G04 EAGLE Gerber RS-274X export*
G75*
%MOMM*%
%FSLAX34Y34*%
%LPD*%
%INBottom Copper*%
%IPPOS*%
%AMOC8*
5,1,8,0,0,1.08239X$1,22.5*%
G01*
%ADD10C,1.778000*%
%ADD11R,1.778000X1.778000*%
%ADD12P,1.319650X8X112.500000*%
%ADD13C,2.032000*%
%ADD14C,1.651000*%
%ADD15R,1.651000X1.651000*%
%ADD16C,1.524000*%
%ADD17C,1.270000*%
%ADD18C,0.304800*%
%ADD19C,0.152400*%

G36*
X750573Y5081D02*
X750573Y5081D01*
X750576Y5081D01*
X750923Y5101D01*
X751281Y5121D01*
X751284Y5121D01*
X751287Y5121D01*
X751627Y5180D01*
X751984Y5240D01*
X751986Y5241D01*
X751989Y5241D01*
X752334Y5341D01*
X752668Y5437D01*
X752671Y5439D01*
X752674Y5439D01*
X752998Y5574D01*
X753326Y5710D01*
X753329Y5712D01*
X753331Y5713D01*
X753643Y5885D01*
X753950Y6055D01*
X753952Y6057D01*
X753955Y6058D01*
X754252Y6269D01*
X754531Y6467D01*
X754533Y6469D01*
X754535Y6471D01*
X754803Y6711D01*
X755062Y6942D01*
X755064Y6945D01*
X755066Y6946D01*
X755304Y7214D01*
X755536Y7474D01*
X755538Y7476D01*
X755540Y7478D01*
X755738Y7759D01*
X755948Y8055D01*
X755950Y8058D01*
X755951Y8060D01*
X756114Y8356D01*
X756292Y8679D01*
X756293Y8682D01*
X756295Y8684D01*
X756426Y9002D01*
X756564Y9337D01*
X756565Y9340D01*
X756566Y9343D01*
X756659Y9666D01*
X756761Y10022D01*
X756762Y10025D01*
X756762Y10027D01*
X756822Y10381D01*
X756880Y10724D01*
X756880Y10727D01*
X756881Y10730D01*
X756919Y11430D01*
X756919Y496570D01*
X756919Y496573D01*
X756919Y496576D01*
X756899Y496923D01*
X756879Y497281D01*
X756879Y497284D01*
X756879Y497287D01*
X756823Y497611D01*
X756760Y497984D01*
X756759Y497986D01*
X756759Y497989D01*
X756664Y498317D01*
X756563Y498668D01*
X756561Y498671D01*
X756561Y498674D01*
X756426Y498998D01*
X756290Y499326D01*
X756288Y499329D01*
X756287Y499331D01*
X756115Y499643D01*
X755945Y499950D01*
X755943Y499952D01*
X755942Y499955D01*
X755731Y500252D01*
X755533Y500531D01*
X755531Y500533D01*
X755529Y500535D01*
X755289Y500803D01*
X755058Y501062D01*
X755055Y501064D01*
X755054Y501066D01*
X754786Y501304D01*
X754526Y501536D01*
X754524Y501538D01*
X754522Y501540D01*
X754241Y501738D01*
X753945Y501948D01*
X753942Y501950D01*
X753940Y501951D01*
X753644Y502114D01*
X753321Y502292D01*
X753318Y502293D01*
X753316Y502295D01*
X752998Y502426D01*
X752663Y502564D01*
X752660Y502565D01*
X752657Y502566D01*
X752328Y502661D01*
X751978Y502761D01*
X751975Y502762D01*
X751973Y502762D01*
X751619Y502822D01*
X751276Y502880D01*
X751273Y502880D01*
X751270Y502881D01*
X750570Y502919D01*
X738667Y502919D01*
X738665Y502919D01*
X738664Y502919D01*
X738292Y502898D01*
X737955Y502879D01*
X737954Y502879D01*
X737953Y502879D01*
X737593Y502818D01*
X737253Y502760D01*
X737252Y502759D01*
X737250Y502759D01*
X736898Y502657D01*
X736569Y502563D01*
X736567Y502562D01*
X736566Y502562D01*
X736251Y502431D01*
X735910Y502290D01*
X735909Y502289D01*
X735908Y502289D01*
X735605Y502121D01*
X735287Y501945D01*
X735286Y501944D01*
X735285Y501943D01*
X734948Y501705D01*
X734706Y501533D01*
X734705Y501532D01*
X734704Y501531D01*
X734414Y501271D01*
X734175Y501058D01*
X734174Y501057D01*
X734173Y501056D01*
X733941Y500796D01*
X733701Y500526D01*
X733700Y500525D01*
X733699Y500524D01*
X733509Y500256D01*
X733289Y499945D01*
X733288Y499944D01*
X733287Y499942D01*
X733129Y499655D01*
X732945Y499321D01*
X732944Y499320D01*
X732943Y499319D01*
X732820Y499021D01*
X732672Y498663D01*
X732672Y498661D01*
X732671Y498660D01*
X732581Y498344D01*
X732476Y497978D01*
X732475Y497976D01*
X732475Y497975D01*
X732414Y497611D01*
X732357Y497276D01*
X732357Y497274D01*
X732357Y497273D01*
X732334Y496855D01*
X732318Y496564D01*
X732318Y496563D01*
X732318Y496561D01*
X732341Y496155D01*
X732358Y495853D01*
X732358Y495852D01*
X732358Y495850D01*
X732434Y495412D01*
X732478Y495151D01*
X732479Y495150D01*
X732479Y495148D01*
X732582Y494792D01*
X732676Y494466D01*
X732677Y494465D01*
X732677Y494464D01*
X732820Y494119D01*
X732949Y493809D01*
X732950Y493807D01*
X732951Y493806D01*
X733121Y493500D01*
X733295Y493185D01*
X733296Y493184D01*
X733296Y493183D01*
X733510Y492883D01*
X733708Y492605D01*
X733709Y492604D01*
X733710Y492603D01*
X734177Y492080D01*
X735744Y490514D01*
X737871Y485379D01*
X737871Y479821D01*
X735744Y474686D01*
X731814Y470756D01*
X726679Y468629D01*
X721121Y468629D01*
X715986Y470756D01*
X712056Y474686D01*
X709929Y479821D01*
X709929Y485379D01*
X712056Y490514D01*
X713623Y492080D01*
X713624Y492081D01*
X713625Y492082D01*
X713840Y492323D01*
X714098Y492612D01*
X714098Y492613D01*
X714099Y492614D01*
X714310Y492910D01*
X714510Y493193D01*
X714510Y493194D01*
X714511Y493195D01*
X714682Y493504D01*
X714854Y493816D01*
X714855Y493818D01*
X714855Y493819D01*
X714986Y494134D01*
X715127Y494474D01*
X715127Y494476D01*
X715128Y494477D01*
X715229Y494830D01*
X715324Y495159D01*
X715324Y495160D01*
X715324Y495162D01*
X715384Y495516D01*
X715443Y495862D01*
X715443Y495863D01*
X715443Y495864D01*
X715462Y496206D01*
X715482Y496573D01*
X715482Y496574D01*
X715482Y496576D01*
X715463Y496915D01*
X715442Y497284D01*
X715442Y497286D01*
X715442Y497287D01*
X715389Y497594D01*
X715322Y497986D01*
X715322Y497988D01*
X715322Y497989D01*
X715230Y498307D01*
X715125Y498671D01*
X715124Y498672D01*
X715124Y498674D01*
X714988Y499002D01*
X714852Y499329D01*
X714851Y499330D01*
X714851Y499331D01*
X714671Y499655D01*
X714507Y499952D01*
X714506Y499953D01*
X714505Y499955D01*
X714305Y500236D01*
X714094Y500533D01*
X714093Y500534D01*
X714092Y500535D01*
X713895Y500755D01*
X713619Y501064D01*
X713618Y501065D01*
X713617Y501066D01*
X713371Y501285D01*
X713087Y501538D01*
X713086Y501539D01*
X713085Y501540D01*
X712808Y501736D01*
X712506Y501950D01*
X712504Y501950D01*
X712503Y501951D01*
X712214Y502110D01*
X711882Y502293D01*
X711880Y502294D01*
X711879Y502295D01*
X711579Y502419D01*
X711223Y502565D01*
X711222Y502566D01*
X711221Y502566D01*
X710912Y502655D01*
X710539Y502762D01*
X710537Y502762D01*
X710536Y502762D01*
X710173Y502823D01*
X709836Y502880D01*
X709835Y502880D01*
X709833Y502881D01*
X709133Y502919D01*
X644697Y502919D01*
X644636Y502916D01*
X644576Y502918D01*
X644281Y502896D01*
X643986Y502879D01*
X643926Y502869D01*
X643865Y502865D01*
X643575Y502809D01*
X643283Y502760D01*
X643225Y502743D01*
X643165Y502732D01*
X642882Y502644D01*
X642599Y502563D01*
X642543Y502539D01*
X642485Y502521D01*
X642214Y502403D01*
X641941Y502290D01*
X641887Y502260D01*
X641832Y502236D01*
X641576Y502088D01*
X641317Y501945D01*
X641268Y501910D01*
X641215Y501879D01*
X640977Y501703D01*
X640736Y501533D01*
X640691Y501492D01*
X640642Y501456D01*
X640426Y501255D01*
X640205Y501058D01*
X640165Y501012D01*
X640120Y500971D01*
X639928Y500747D01*
X639849Y500658D01*
X639719Y500803D01*
X639488Y501062D01*
X639486Y501064D01*
X639484Y501066D01*
X639216Y501304D01*
X638956Y501536D01*
X638954Y501538D01*
X638952Y501540D01*
X638671Y501738D01*
X638375Y501948D01*
X638372Y501950D01*
X638370Y501951D01*
X638074Y502114D01*
X637751Y502292D01*
X637749Y502293D01*
X637746Y502295D01*
X637428Y502426D01*
X637093Y502564D01*
X637090Y502565D01*
X637088Y502566D01*
X636759Y502661D01*
X636408Y502761D01*
X636405Y502762D01*
X636403Y502762D01*
X636049Y502822D01*
X635706Y502880D01*
X635703Y502880D01*
X635700Y502881D01*
X635000Y502919D01*
X634997Y502919D01*
X634994Y502919D01*
X634647Y502899D01*
X634289Y502879D01*
X634286Y502879D01*
X634283Y502879D01*
X633942Y502820D01*
X633586Y502760D01*
X633583Y502759D01*
X633581Y502759D01*
X633235Y502659D01*
X632902Y502563D01*
X632899Y502561D01*
X632896Y502561D01*
X632572Y502426D01*
X632244Y502290D01*
X632241Y502288D01*
X632238Y502287D01*
X631927Y502115D01*
X631620Y501945D01*
X631618Y501943D01*
X631615Y501942D01*
X631318Y501731D01*
X631039Y501533D01*
X631037Y501531D01*
X631035Y501529D01*
X630767Y501289D01*
X630508Y501058D01*
X630506Y501055D01*
X630504Y501054D01*
X630266Y500786D01*
X630152Y500658D01*
X630065Y500755D01*
X629872Y500979D01*
X629827Y501020D01*
X629787Y501066D01*
X629566Y501262D01*
X629349Y501463D01*
X629300Y501499D01*
X629255Y501540D01*
X629013Y501711D01*
X628775Y501886D01*
X628723Y501916D01*
X628673Y501951D01*
X628414Y502094D01*
X628158Y502241D01*
X628102Y502265D01*
X628049Y502295D01*
X627776Y502407D01*
X627505Y502525D01*
X627446Y502543D01*
X627390Y502566D01*
X627107Y502648D01*
X626824Y502735D01*
X626764Y502746D01*
X626706Y502762D01*
X626414Y502811D01*
X626123Y502866D01*
X626063Y502870D01*
X626003Y502881D01*
X625693Y502898D01*
X625413Y502918D01*
X625358Y502916D01*
X625303Y502919D01*
X585741Y502919D01*
X585739Y502919D01*
X585737Y502919D01*
X585370Y502898D01*
X585029Y502879D01*
X585028Y502879D01*
X585026Y502879D01*
X584672Y502818D01*
X584327Y502760D01*
X584325Y502759D01*
X584323Y502759D01*
X583973Y502658D01*
X583643Y502563D01*
X583641Y502562D01*
X583639Y502561D01*
X583297Y502419D01*
X582984Y502290D01*
X582983Y502289D01*
X582981Y502288D01*
X582644Y502102D01*
X582361Y501945D01*
X582360Y501944D01*
X582358Y501943D01*
X582030Y501710D01*
X581780Y501533D01*
X581779Y501531D01*
X581777Y501530D01*
X581495Y501278D01*
X581249Y501058D01*
X581248Y501056D01*
X581246Y501055D01*
X581010Y500789D01*
X580775Y500526D01*
X580774Y500525D01*
X580772Y500523D01*
X580581Y500253D01*
X580363Y499945D01*
X580362Y499943D01*
X580361Y499942D01*
X580199Y499649D01*
X580018Y499321D01*
X580018Y499319D01*
X580017Y499318D01*
X579884Y498997D01*
X579746Y498663D01*
X579746Y498661D01*
X579745Y498659D01*
X579648Y498321D01*
X579550Y497978D01*
X579549Y497976D01*
X579549Y497974D01*
X579487Y497611D01*
X579431Y497276D01*
X579431Y497274D01*
X579430Y497272D01*
X579408Y496864D01*
X579391Y496564D01*
X579392Y496562D01*
X579391Y496561D01*
X579415Y496155D01*
X579432Y495853D01*
X579432Y495851D01*
X579432Y495849D01*
X579498Y495468D01*
X579552Y495151D01*
X579553Y495149D01*
X579553Y495147D01*
X579654Y494800D01*
X579750Y494466D01*
X579751Y494465D01*
X579751Y494463D01*
X579884Y494144D01*
X580023Y493809D01*
X580024Y493807D01*
X580025Y493805D01*
X580196Y493497D01*
X580369Y493185D01*
X580370Y493184D01*
X580371Y493182D01*
X580584Y492883D01*
X580782Y492605D01*
X580783Y492604D01*
X580784Y492602D01*
X580955Y492411D01*
X582083Y490941D01*
X582500Y490219D01*
X571500Y490219D01*
X560500Y490219D01*
X560917Y490941D01*
X562048Y492415D01*
X562223Y492611D01*
X562224Y492612D01*
X562225Y492614D01*
X562436Y492910D01*
X562635Y493192D01*
X562636Y493193D01*
X562637Y493195D01*
X562808Y493504D01*
X562980Y493815D01*
X562981Y493817D01*
X562982Y493819D01*
X563116Y494144D01*
X563252Y494474D01*
X563253Y494475D01*
X563254Y494477D01*
X563355Y494830D01*
X563450Y495158D01*
X563450Y495160D01*
X563450Y495162D01*
X563502Y495469D01*
X563569Y495861D01*
X563569Y495863D01*
X563569Y495864D01*
X563588Y496206D01*
X563609Y496572D01*
X563608Y496574D01*
X563609Y496576D01*
X563589Y496919D01*
X563568Y497283D01*
X563568Y497285D01*
X563568Y497287D01*
X563515Y497594D01*
X563449Y497986D01*
X563448Y497987D01*
X563448Y497989D01*
X563356Y498307D01*
X563251Y498670D01*
X563250Y498672D01*
X563250Y498674D01*
X563121Y498985D01*
X562978Y499328D01*
X562977Y499330D01*
X562977Y499331D01*
X562807Y499637D01*
X562633Y499951D01*
X562632Y499953D01*
X562631Y499955D01*
X562439Y500225D01*
X562221Y500532D01*
X562219Y500534D01*
X562218Y500535D01*
X562021Y500755D01*
X561745Y501063D01*
X561744Y501064D01*
X561743Y501066D01*
X561488Y501293D01*
X561214Y501537D01*
X561212Y501538D01*
X561211Y501540D01*
X560917Y501748D01*
X560633Y501949D01*
X560631Y501950D01*
X560629Y501951D01*
X560313Y502125D01*
X560009Y502293D01*
X560007Y502294D01*
X560005Y502295D01*
X559682Y502428D01*
X559350Y502565D01*
X559348Y502566D01*
X559347Y502566D01*
X559022Y502659D01*
X558665Y502762D01*
X558664Y502762D01*
X558662Y502762D01*
X558301Y502823D01*
X557963Y502880D01*
X557961Y502880D01*
X557959Y502881D01*
X557259Y502919D01*
X547641Y502919D01*
X547639Y502919D01*
X547637Y502919D01*
X547270Y502898D01*
X546929Y502879D01*
X546928Y502879D01*
X546926Y502879D01*
X546572Y502818D01*
X546227Y502760D01*
X546225Y502759D01*
X546223Y502759D01*
X545873Y502658D01*
X545543Y502563D01*
X545541Y502562D01*
X545539Y502561D01*
X545197Y502419D01*
X544884Y502290D01*
X544883Y502289D01*
X544881Y502288D01*
X544544Y502102D01*
X544261Y501945D01*
X544260Y501944D01*
X544258Y501943D01*
X543930Y501710D01*
X543680Y501533D01*
X543679Y501531D01*
X543677Y501530D01*
X543395Y501278D01*
X543149Y501058D01*
X543148Y501056D01*
X543146Y501055D01*
X542910Y500789D01*
X542675Y500526D01*
X542674Y500525D01*
X542672Y500523D01*
X542481Y500253D01*
X542263Y499945D01*
X542262Y499943D01*
X542261Y499942D01*
X542099Y499649D01*
X541918Y499321D01*
X541918Y499319D01*
X541917Y499318D01*
X541784Y498997D01*
X541646Y498663D01*
X541646Y498661D01*
X541645Y498659D01*
X541548Y498321D01*
X541450Y497978D01*
X541449Y497976D01*
X541449Y497974D01*
X541387Y497611D01*
X541331Y497276D01*
X541331Y497274D01*
X541330Y497272D01*
X541308Y496864D01*
X541291Y496564D01*
X541292Y496562D01*
X541291Y496561D01*
X541315Y496155D01*
X541332Y495853D01*
X541332Y495851D01*
X541332Y495849D01*
X541398Y495468D01*
X541452Y495151D01*
X541453Y495149D01*
X541453Y495147D01*
X541554Y494800D01*
X541650Y494466D01*
X541651Y494465D01*
X541651Y494463D01*
X541784Y494144D01*
X541923Y493809D01*
X541924Y493807D01*
X541925Y493805D01*
X542096Y493497D01*
X542269Y493185D01*
X542270Y493184D01*
X542271Y493182D01*
X542484Y492883D01*
X542682Y492605D01*
X542683Y492604D01*
X542684Y492602D01*
X542855Y492411D01*
X543983Y490941D01*
X544400Y490219D01*
X533400Y490219D01*
X522400Y490219D01*
X522817Y490941D01*
X523948Y492415D01*
X524123Y492611D01*
X524124Y492612D01*
X524125Y492614D01*
X524336Y492910D01*
X524535Y493192D01*
X524536Y493193D01*
X524537Y493195D01*
X524708Y493504D01*
X524880Y493815D01*
X524881Y493817D01*
X524882Y493819D01*
X525016Y494144D01*
X525152Y494474D01*
X525153Y494475D01*
X525154Y494477D01*
X525255Y494830D01*
X525350Y495158D01*
X525350Y495160D01*
X525350Y495162D01*
X525402Y495469D01*
X525469Y495861D01*
X525469Y495863D01*
X525469Y495864D01*
X525488Y496206D01*
X525509Y496572D01*
X525508Y496574D01*
X525509Y496576D01*
X525489Y496919D01*
X525468Y497283D01*
X525468Y497285D01*
X525468Y497287D01*
X525415Y497594D01*
X525349Y497986D01*
X525348Y497987D01*
X525348Y497989D01*
X525256Y498307D01*
X525151Y498670D01*
X525150Y498672D01*
X525150Y498674D01*
X525021Y498985D01*
X524878Y499328D01*
X524877Y499330D01*
X524877Y499331D01*
X524707Y499637D01*
X524533Y499951D01*
X524532Y499953D01*
X524531Y499955D01*
X524339Y500225D01*
X524121Y500532D01*
X524119Y500534D01*
X524118Y500535D01*
X523921Y500755D01*
X523645Y501063D01*
X523644Y501064D01*
X523643Y501066D01*
X523388Y501293D01*
X523114Y501537D01*
X523112Y501538D01*
X523111Y501540D01*
X522817Y501748D01*
X522533Y501949D01*
X522531Y501950D01*
X522529Y501951D01*
X522213Y502125D01*
X521909Y502293D01*
X521907Y502294D01*
X521905Y502295D01*
X521582Y502428D01*
X521250Y502565D01*
X521248Y502566D01*
X521247Y502566D01*
X520922Y502659D01*
X520565Y502762D01*
X520564Y502762D01*
X520562Y502762D01*
X520201Y502823D01*
X519863Y502880D01*
X519861Y502880D01*
X519859Y502881D01*
X519159Y502919D01*
X176101Y502919D01*
X176040Y502916D01*
X175979Y502918D01*
X175684Y502896D01*
X175389Y502879D01*
X175330Y502869D01*
X175269Y502865D01*
X174978Y502809D01*
X174687Y502760D01*
X174629Y502743D01*
X174569Y502732D01*
X174286Y502644D01*
X174003Y502563D01*
X173946Y502539D01*
X173888Y502521D01*
X173618Y502403D01*
X173344Y502290D01*
X173291Y502260D01*
X173236Y502236D01*
X172980Y502088D01*
X172721Y501945D01*
X172671Y501910D01*
X172619Y501879D01*
X172381Y501703D01*
X172140Y501533D01*
X172095Y501492D01*
X172046Y501456D01*
X171829Y501254D01*
X171609Y501058D01*
X171569Y501012D01*
X171524Y500971D01*
X171331Y500747D01*
X171135Y500526D01*
X171099Y500477D01*
X171060Y500430D01*
X170894Y500186D01*
X170723Y499945D01*
X170693Y499892D01*
X170659Y499841D01*
X170521Y499580D01*
X170378Y499321D01*
X170355Y499265D01*
X170327Y499211D01*
X170219Y498935D01*
X170106Y498663D01*
X170089Y498604D01*
X170067Y498548D01*
X169991Y498262D01*
X169910Y497978D01*
X169899Y497918D01*
X169884Y497859D01*
X169840Y497567D01*
X169791Y497276D01*
X169787Y497215D01*
X169778Y497155D01*
X169768Y496860D01*
X169751Y496564D01*
X169755Y496504D01*
X169753Y496443D01*
X169775Y496148D01*
X169792Y495853D01*
X169802Y495793D01*
X169807Y495733D01*
X169863Y495441D01*
X169912Y495151D01*
X169929Y495093D01*
X169940Y495033D01*
X170028Y494750D01*
X170110Y494466D01*
X170133Y494410D01*
X170151Y494352D01*
X170270Y494082D01*
X170383Y493809D01*
X170413Y493756D01*
X170437Y493700D01*
X170586Y493444D01*
X170729Y493185D01*
X170764Y493136D01*
X170794Y493083D01*
X170971Y492845D01*
X171142Y492605D01*
X171182Y492560D01*
X171218Y492511D01*
X171420Y492294D01*
X171617Y492074D01*
X171663Y492034D01*
X171704Y491989D01*
X171939Y491788D01*
X172149Y491600D01*
X172194Y491569D01*
X172236Y491533D01*
X172653Y491212D01*
X173712Y490153D01*
X174625Y488964D01*
X174633Y488949D01*
X165100Y488949D01*
X155567Y488949D01*
X155575Y488964D01*
X156488Y490153D01*
X157547Y491212D01*
X157964Y491533D01*
X158010Y491572D01*
X158060Y491608D01*
X158280Y491804D01*
X158504Y491997D01*
X158546Y492042D01*
X158591Y492082D01*
X158788Y492303D01*
X158989Y492520D01*
X159025Y492568D01*
X159065Y492614D01*
X159237Y492856D01*
X159412Y493093D01*
X159442Y493145D01*
X159477Y493195D01*
X159620Y493454D01*
X159768Y493710D01*
X159792Y493766D01*
X159822Y493819D01*
X159935Y494092D01*
X160053Y494363D01*
X160070Y494421D01*
X160094Y494477D01*
X160175Y494761D01*
X160262Y495044D01*
X160274Y495104D01*
X160290Y495162D01*
X160340Y495453D01*
X160395Y495744D01*
X160399Y495805D01*
X160409Y495864D01*
X160426Y496159D01*
X160447Y496454D01*
X160445Y496515D01*
X160449Y496576D01*
X160432Y496871D01*
X160420Y497166D01*
X160411Y497226D01*
X160408Y497287D01*
X160358Y497578D01*
X160314Y497871D01*
X160298Y497929D01*
X160288Y497989D01*
X160206Y498273D01*
X160129Y498559D01*
X160107Y498615D01*
X160090Y498674D01*
X159977Y498946D01*
X159868Y499222D01*
X159840Y499275D01*
X159817Y499331D01*
X159674Y499590D01*
X159535Y499851D01*
X159501Y499901D01*
X159471Y499955D01*
X159300Y500195D01*
X159133Y500440D01*
X159093Y500486D01*
X159058Y500535D01*
X158861Y500755D01*
X158668Y500979D01*
X158623Y501020D01*
X158583Y501066D01*
X158362Y501262D01*
X158145Y501463D01*
X158096Y501499D01*
X158051Y501540D01*
X157810Y501710D01*
X157572Y501886D01*
X157519Y501916D01*
X157469Y501951D01*
X157210Y502094D01*
X156954Y502241D01*
X156899Y502265D01*
X156845Y502295D01*
X156573Y502407D01*
X156301Y502525D01*
X156243Y502543D01*
X156187Y502566D01*
X155903Y502647D01*
X155620Y502734D01*
X155560Y502746D01*
X155502Y502762D01*
X155210Y502811D01*
X154920Y502866D01*
X154859Y502870D01*
X154799Y502881D01*
X154489Y502898D01*
X154209Y502918D01*
X154155Y502916D01*
X154099Y502919D01*
X139700Y502919D01*
X139697Y502919D01*
X139694Y502919D01*
X139347Y502899D01*
X138989Y502879D01*
X138986Y502879D01*
X138983Y502879D01*
X138643Y502820D01*
X138286Y502760D01*
X138284Y502759D01*
X138281Y502759D01*
X137936Y502659D01*
X137602Y502563D01*
X137599Y502561D01*
X137596Y502561D01*
X137272Y502426D01*
X136944Y502290D01*
X136941Y502288D01*
X136939Y502287D01*
X136627Y502115D01*
X136320Y501945D01*
X136318Y501943D01*
X136315Y501942D01*
X136018Y501731D01*
X135739Y501533D01*
X135737Y501531D01*
X135735Y501529D01*
X135467Y501289D01*
X135208Y501058D01*
X135207Y501055D01*
X135204Y501054D01*
X134966Y500786D01*
X134734Y500526D01*
X134732Y500524D01*
X134730Y500522D01*
X134532Y500241D01*
X134322Y499945D01*
X134321Y499942D01*
X134319Y499940D01*
X134156Y499644D01*
X133978Y499321D01*
X133977Y499318D01*
X133975Y499316D01*
X133844Y498998D01*
X133706Y498663D01*
X133705Y498660D01*
X133704Y498657D01*
X133606Y498317D01*
X133509Y497978D01*
X133508Y497975D01*
X133508Y497973D01*
X133447Y497611D01*
X133390Y497276D01*
X133390Y497273D01*
X133389Y497270D01*
X133351Y496570D01*
X133351Y368300D01*
X133351Y368297D01*
X133351Y368294D01*
X133371Y367938D01*
X133391Y367589D01*
X133391Y367586D01*
X133391Y367583D01*
X133451Y367236D01*
X133510Y366886D01*
X133511Y366884D01*
X133511Y366881D01*
X133620Y366504D01*
X133707Y366202D01*
X133709Y366199D01*
X133709Y366196D01*
X133844Y365872D01*
X133980Y365544D01*
X133982Y365541D01*
X133983Y365539D01*
X134167Y365206D01*
X134325Y364920D01*
X134327Y364918D01*
X134328Y364915D01*
X134550Y364604D01*
X134738Y364339D01*
X134739Y364337D01*
X134741Y364335D01*
X134995Y364052D01*
X135212Y363808D01*
X135215Y363807D01*
X135216Y363804D01*
X135484Y363566D01*
X135744Y363334D01*
X135746Y363332D01*
X135748Y363330D01*
X136029Y363132D01*
X136325Y362922D01*
X136328Y362920D01*
X136330Y362919D01*
X136626Y362756D01*
X136949Y362578D01*
X136952Y362577D01*
X136954Y362575D01*
X137272Y362444D01*
X137607Y362306D01*
X137610Y362305D01*
X137613Y362304D01*
X137942Y362210D01*
X138292Y362109D01*
X138295Y362108D01*
X138298Y362108D01*
X138651Y362048D01*
X138994Y361990D01*
X138997Y361990D01*
X139000Y361989D01*
X139700Y361951D01*
X209550Y361951D01*
X209553Y361951D01*
X209556Y361951D01*
X209903Y361971D01*
X210261Y361991D01*
X210264Y361991D01*
X210267Y361991D01*
X210607Y362050D01*
X210964Y362110D01*
X210966Y362111D01*
X210969Y362111D01*
X211314Y362211D01*
X211648Y362307D01*
X211651Y362309D01*
X211654Y362309D01*
X211978Y362444D01*
X212306Y362580D01*
X212309Y362582D01*
X212311Y362583D01*
X212623Y362755D01*
X212930Y362925D01*
X212932Y362927D01*
X212935Y362928D01*
X213232Y363139D01*
X213511Y363338D01*
X213513Y363339D01*
X213515Y363341D01*
X213783Y363581D01*
X214042Y363812D01*
X214044Y363815D01*
X214046Y363816D01*
X214284Y364084D01*
X214516Y364344D01*
X214518Y364346D01*
X214520Y364348D01*
X214718Y364628D01*
X214928Y364925D01*
X214930Y364928D01*
X214931Y364930D01*
X215094Y365226D01*
X215272Y365549D01*
X215273Y365552D01*
X215275Y365554D01*
X215402Y365862D01*
X215544Y366207D01*
X215545Y366210D01*
X215546Y366213D01*
X215641Y366542D01*
X215741Y366892D01*
X215742Y366895D01*
X215742Y366898D01*
X215802Y367251D01*
X215860Y367594D01*
X215860Y367597D01*
X215861Y367600D01*
X215899Y368300D01*
X215899Y378446D01*
X217833Y383114D01*
X221406Y386687D01*
X226074Y388621D01*
X231126Y388621D01*
X235794Y386687D01*
X236810Y385671D01*
X236812Y385669D01*
X236814Y385667D01*
X237084Y385427D01*
X237342Y385196D01*
X237344Y385195D01*
X237346Y385193D01*
X237649Y384978D01*
X237923Y384784D01*
X237925Y384783D01*
X237928Y384781D01*
X238249Y384604D01*
X238546Y384440D01*
X238549Y384439D01*
X238551Y384437D01*
X238885Y384300D01*
X239204Y384167D01*
X239207Y384166D01*
X239210Y384165D01*
X239554Y384067D01*
X239889Y383970D01*
X239892Y383970D01*
X239895Y383969D01*
X240254Y383908D01*
X240591Y383851D01*
X240594Y383851D01*
X240597Y383850D01*
X240961Y383831D01*
X241303Y383811D01*
X241306Y383812D01*
X241309Y383811D01*
X241662Y383832D01*
X242014Y383852D01*
X242017Y383852D01*
X242020Y383852D01*
X242369Y383912D01*
X242716Y383971D01*
X242719Y383972D01*
X242722Y383973D01*
X243067Y384073D01*
X243401Y384169D01*
X243403Y384170D01*
X243406Y384171D01*
X243722Y384303D01*
X244059Y384442D01*
X244062Y384444D01*
X244064Y384445D01*
X244366Y384612D01*
X244682Y384787D01*
X244684Y384789D01*
X244687Y384790D01*
X244980Y384999D01*
X245263Y385200D01*
X245265Y385202D01*
X245267Y385204D01*
X245790Y385671D01*
X246806Y386687D01*
X251474Y388621D01*
X256526Y388621D01*
X261194Y386687D01*
X262210Y385671D01*
X262212Y385669D01*
X262214Y385667D01*
X262484Y385427D01*
X262742Y385196D01*
X262744Y385195D01*
X262746Y385193D01*
X263049Y384978D01*
X263323Y384784D01*
X263325Y384783D01*
X263328Y384781D01*
X263649Y384604D01*
X263946Y384440D01*
X263949Y384439D01*
X263951Y384437D01*
X264285Y384300D01*
X264604Y384167D01*
X264607Y384166D01*
X264610Y384165D01*
X264954Y384067D01*
X265289Y383970D01*
X265292Y383970D01*
X265295Y383969D01*
X265654Y383908D01*
X265991Y383851D01*
X265994Y383851D01*
X265997Y383850D01*
X266361Y383831D01*
X266703Y383811D01*
X266706Y383812D01*
X266709Y383811D01*
X267062Y383832D01*
X267414Y383852D01*
X267417Y383852D01*
X267420Y383852D01*
X267769Y383912D01*
X268116Y383971D01*
X268119Y383972D01*
X268122Y383973D01*
X268467Y384073D01*
X268801Y384169D01*
X268803Y384170D01*
X268806Y384171D01*
X269122Y384303D01*
X269459Y384442D01*
X269462Y384444D01*
X269464Y384445D01*
X269766Y384612D01*
X270082Y384787D01*
X270084Y384789D01*
X270087Y384790D01*
X270380Y384999D01*
X270663Y385200D01*
X270665Y385202D01*
X270667Y385204D01*
X271190Y385671D01*
X272206Y386687D01*
X276874Y388621D01*
X281926Y388621D01*
X286594Y386687D01*
X290237Y383045D01*
X290254Y383008D01*
X290351Y382854D01*
X290439Y382695D01*
X290540Y382553D01*
X290633Y382405D01*
X290747Y382263D01*
X290852Y382115D01*
X290969Y381985D01*
X291078Y381848D01*
X291206Y381720D01*
X291328Y381584D01*
X291458Y381468D01*
X291581Y381345D01*
X291724Y381231D01*
X291859Y381110D01*
X292002Y381009D01*
X292139Y380901D01*
X292293Y380804D01*
X292441Y380699D01*
X292594Y380615D01*
X292742Y380522D01*
X292906Y380443D01*
X293065Y380355D01*
X293226Y380289D01*
X293384Y380213D01*
X293556Y380153D01*
X293724Y380084D01*
X293892Y380036D01*
X294056Y379978D01*
X294234Y379938D01*
X294409Y379888D01*
X294581Y379859D01*
X294751Y379820D01*
X294932Y379800D01*
X295111Y379769D01*
X295289Y379760D01*
X295459Y379741D01*
X295632Y379741D01*
X295811Y379731D01*
X310135Y379731D01*
X310140Y379731D01*
X310144Y379731D01*
X310497Y379751D01*
X310847Y379771D01*
X310851Y379771D01*
X310855Y379772D01*
X311206Y379832D01*
X311549Y379890D01*
X311553Y379891D01*
X311557Y379892D01*
X311909Y379994D01*
X312233Y380087D01*
X312237Y380089D01*
X312242Y380090D01*
X312568Y380226D01*
X312892Y380360D01*
X312896Y380362D01*
X312899Y380364D01*
X313206Y380534D01*
X313515Y380705D01*
X313518Y380707D01*
X313522Y380710D01*
X313821Y380922D01*
X314096Y381117D01*
X314099Y381120D01*
X314103Y381123D01*
X314625Y381590D01*
X323797Y390762D01*
X323813Y390770D01*
X323969Y390868D01*
X324129Y390957D01*
X324270Y391057D01*
X324416Y391149D01*
X324560Y391264D01*
X324709Y391370D01*
X324840Y391487D01*
X324973Y391594D01*
X325097Y391717D01*
X325231Y391838D01*
X325570Y392177D01*
X326050Y392177D01*
X326233Y392187D01*
X326416Y392187D01*
X326589Y392207D01*
X326761Y392217D01*
X326942Y392247D01*
X327124Y392268D01*
X327293Y392307D01*
X327464Y392336D01*
X327640Y392387D01*
X327819Y392428D01*
X327826Y392431D01*
X332576Y392431D01*
X332592Y392425D01*
X332771Y392384D01*
X332947Y392334D01*
X333118Y392305D01*
X333287Y392266D01*
X333469Y392246D01*
X333650Y392215D01*
X333826Y392206D01*
X333995Y392187D01*
X334170Y392187D01*
X334350Y392177D01*
X334830Y392177D01*
X335169Y391838D01*
X335305Y391715D01*
X335435Y391586D01*
X335571Y391478D01*
X335700Y391363D01*
X335850Y391257D01*
X335993Y391143D01*
X336140Y391051D01*
X336281Y390951D01*
X336442Y390862D01*
X336597Y390765D01*
X336604Y390761D01*
X339962Y387403D01*
X339970Y387387D01*
X340068Y387231D01*
X340157Y387071D01*
X340257Y386930D01*
X340349Y386784D01*
X340464Y386640D01*
X340570Y386491D01*
X340687Y386360D01*
X340794Y386227D01*
X340917Y386103D01*
X341038Y385969D01*
X341377Y385630D01*
X341377Y385150D01*
X341387Y384967D01*
X341387Y384784D01*
X341407Y384611D01*
X341417Y384439D01*
X341447Y384258D01*
X341468Y384076D01*
X341507Y383907D01*
X341536Y383736D01*
X341587Y383560D01*
X341628Y383381D01*
X341631Y383374D01*
X341631Y378624D01*
X341625Y378608D01*
X341584Y378429D01*
X341534Y378253D01*
X341505Y378082D01*
X341466Y377913D01*
X341446Y377731D01*
X341415Y377550D01*
X341406Y377374D01*
X341387Y377205D01*
X341387Y377030D01*
X341377Y376850D01*
X341377Y376370D01*
X341038Y376031D01*
X340915Y375895D01*
X340786Y375765D01*
X340678Y375629D01*
X340563Y375500D01*
X340457Y375350D01*
X340343Y375207D01*
X340251Y375060D01*
X340151Y374919D01*
X340062Y374758D01*
X339965Y374603D01*
X339961Y374596D01*
X338155Y372790D01*
X338154Y372789D01*
X338153Y372788D01*
X337910Y372516D01*
X337680Y372258D01*
X337680Y372257D01*
X337679Y372256D01*
X337432Y371909D01*
X337268Y371677D01*
X337268Y371676D01*
X337267Y371675D01*
X337083Y371342D01*
X336924Y371054D01*
X336923Y371052D01*
X336922Y371051D01*
X336789Y370728D01*
X336651Y370396D01*
X336651Y370394D01*
X336650Y370393D01*
X336544Y370024D01*
X336454Y369711D01*
X336454Y369710D01*
X336454Y369708D01*
X336391Y369338D01*
X336335Y369009D01*
X336335Y369007D01*
X336335Y369006D01*
X336315Y368639D01*
X336295Y368297D01*
X336296Y368296D01*
X336295Y368294D01*
X336316Y367926D01*
X336336Y367586D01*
X336336Y367584D01*
X336336Y367583D01*
X336393Y367252D01*
X336455Y366884D01*
X336456Y366882D01*
X336456Y366881D01*
X336565Y366504D01*
X336653Y366199D01*
X336654Y366198D01*
X336654Y366196D01*
X336796Y365854D01*
X336926Y365541D01*
X336927Y365540D01*
X336927Y365539D01*
X337116Y365199D01*
X337271Y364918D01*
X337272Y364917D01*
X337273Y364915D01*
X337473Y364634D01*
X337684Y364337D01*
X337685Y364336D01*
X337686Y364335D01*
X337901Y364095D01*
X338159Y363806D01*
X338160Y363805D01*
X338161Y363804D01*
X338410Y363583D01*
X338691Y363332D01*
X338692Y363331D01*
X338693Y363330D01*
X338970Y363134D01*
X339272Y362920D01*
X339274Y362920D01*
X339275Y362919D01*
X339335Y362886D01*
X351110Y351110D01*
X351114Y351108D01*
X351116Y351104D01*
X351379Y350870D01*
X351642Y350636D01*
X351645Y350633D01*
X351648Y350630D01*
X351933Y350429D01*
X352223Y350224D01*
X352226Y350221D01*
X352230Y350219D01*
X352540Y350048D01*
X352846Y349879D01*
X352850Y349877D01*
X352854Y349875D01*
X353179Y349741D01*
X353505Y349607D01*
X353509Y349605D01*
X353513Y349604D01*
X353851Y349507D01*
X354189Y349410D01*
X354193Y349409D01*
X354198Y349408D01*
X354554Y349348D01*
X354892Y349290D01*
X354896Y349290D01*
X354900Y349289D01*
X355600Y349251D01*
X594270Y349251D01*
X611238Y332282D01*
X611373Y332162D01*
X611501Y332035D01*
X611639Y331925D01*
X611770Y331808D01*
X611917Y331703D01*
X612058Y331591D01*
X612207Y331497D01*
X612351Y331395D01*
X612509Y331308D01*
X612661Y331212D01*
X612820Y331136D01*
X612974Y331051D01*
X613141Y330982D01*
X613304Y330904D01*
X613470Y330846D01*
X613633Y330778D01*
X613806Y330729D01*
X613976Y330669D01*
X614148Y330630D01*
X614317Y330581D01*
X614495Y330551D01*
X614671Y330511D01*
X614846Y330492D01*
X615020Y330462D01*
X615200Y330452D01*
X615379Y330432D01*
X615555Y330433D01*
X615731Y330423D01*
X615911Y330433D01*
X616091Y330433D01*
X616266Y330453D01*
X616442Y330463D01*
X616620Y330493D01*
X616799Y330514D01*
X616971Y330553D01*
X617144Y330583D01*
X617318Y330633D01*
X617494Y330673D01*
X617660Y330732D01*
X617829Y330780D01*
X617995Y330849D01*
X618166Y330909D01*
X618324Y330986D01*
X618487Y331053D01*
X618645Y331141D01*
X618807Y331219D01*
X618956Y331313D01*
X619110Y331399D01*
X619257Y331503D01*
X619410Y331599D01*
X619547Y331709D01*
X619691Y331811D01*
X619825Y331931D01*
X619966Y332044D01*
X620091Y332169D01*
X620222Y332286D01*
X620342Y332421D01*
X620469Y332549D01*
X620579Y332687D01*
X620696Y332818D01*
X620800Y332965D01*
X620912Y333107D01*
X621006Y333256D01*
X621108Y333400D01*
X621195Y333557D01*
X621290Y333710D01*
X621368Y333872D01*
X621451Y334023D01*
X621517Y334182D01*
X621594Y334342D01*
X623156Y338114D01*
X623453Y338410D01*
X623455Y338413D01*
X623457Y338415D01*
X623678Y338662D01*
X623928Y338942D01*
X623929Y338944D01*
X623931Y338946D01*
X624135Y339234D01*
X624340Y339523D01*
X624341Y339525D01*
X624343Y339528D01*
X624519Y339847D01*
X624684Y340146D01*
X624685Y340149D01*
X624687Y340152D01*
X624825Y340487D01*
X624957Y340805D01*
X624958Y340807D01*
X624959Y340810D01*
X625058Y341155D01*
X625154Y341489D01*
X625154Y341492D01*
X625155Y341495D01*
X625214Y341846D01*
X625273Y342192D01*
X625273Y342194D01*
X625273Y342197D01*
X625293Y342559D01*
X625312Y342903D01*
X625312Y342906D01*
X625312Y342909D01*
X625292Y343264D01*
X625272Y343614D01*
X625272Y343617D01*
X625272Y343620D01*
X625215Y343949D01*
X625152Y344316D01*
X625152Y344319D01*
X625151Y344322D01*
X625057Y344645D01*
X624955Y345001D01*
X624954Y345003D01*
X624953Y345006D01*
X624816Y345334D01*
X624682Y345659D01*
X624680Y345662D01*
X624679Y345664D01*
X624516Y345958D01*
X624337Y346282D01*
X624335Y346285D01*
X624334Y346287D01*
X624131Y346572D01*
X623924Y346863D01*
X623922Y346865D01*
X623920Y346867D01*
X623453Y347390D01*
X623156Y347686D01*
X621029Y352821D01*
X621029Y358379D01*
X623184Y363581D01*
X623328Y363743D01*
X623382Y363818D01*
X623441Y363889D01*
X623588Y364108D01*
X623741Y364324D01*
X623785Y364405D01*
X623837Y364481D01*
X623958Y364716D01*
X624085Y364947D01*
X624120Y365032D01*
X624163Y365115D01*
X624257Y365362D01*
X624358Y365605D01*
X624383Y365694D01*
X624416Y365781D01*
X624482Y366037D01*
X624555Y366290D01*
X624570Y366381D01*
X624593Y366471D01*
X624630Y366733D01*
X624674Y366992D01*
X624679Y367085D01*
X624692Y367176D01*
X624699Y367440D01*
X624713Y367704D01*
X624708Y367796D01*
X624711Y367888D01*
X624688Y368151D01*
X624673Y368415D01*
X624658Y368506D01*
X624650Y368598D01*
X624598Y368857D01*
X624553Y369117D01*
X624528Y369206D01*
X624510Y369297D01*
X624429Y369549D01*
X624356Y369802D01*
X624320Y369887D01*
X624292Y369975D01*
X624184Y370216D01*
X624083Y370460D01*
X624038Y370541D01*
X624000Y370625D01*
X623917Y370766D01*
X623667Y371369D01*
X623569Y371860D01*
X623569Y374651D01*
X635000Y374651D01*
X646431Y374651D01*
X646431Y371860D01*
X646333Y371369D01*
X646082Y370763D01*
X645995Y370615D01*
X645957Y370531D01*
X645912Y370450D01*
X645811Y370205D01*
X645704Y369965D01*
X645676Y369876D01*
X645640Y369791D01*
X645568Y369537D01*
X645488Y369286D01*
X645470Y369195D01*
X645444Y369106D01*
X645400Y368845D01*
X645349Y368587D01*
X645341Y368495D01*
X645326Y368404D01*
X645311Y368140D01*
X645289Y367877D01*
X645292Y367785D01*
X645287Y367692D01*
X645302Y367429D01*
X645309Y367165D01*
X645322Y367073D01*
X645328Y366981D01*
X645372Y366721D01*
X645409Y366460D01*
X645432Y366370D01*
X645448Y366279D01*
X645521Y366025D01*
X645587Y365770D01*
X645620Y365684D01*
X645646Y365595D01*
X645748Y365351D01*
X645842Y365104D01*
X645884Y365022D01*
X645920Y364937D01*
X646048Y364706D01*
X646169Y364472D01*
X646221Y364395D01*
X646265Y364314D01*
X646419Y364099D01*
X646565Y363879D01*
X646625Y363809D01*
X646679Y363734D01*
X646817Y363580D01*
X648971Y358379D01*
X648971Y352821D01*
X646844Y347686D01*
X646547Y347390D01*
X646545Y347388D01*
X646543Y347386D01*
X646303Y347116D01*
X646073Y346858D01*
X646071Y346856D01*
X646069Y346854D01*
X645856Y346553D01*
X645660Y346277D01*
X645659Y346275D01*
X645657Y346272D01*
X645484Y345958D01*
X645316Y345654D01*
X645315Y345651D01*
X645313Y345649D01*
X645175Y345313D01*
X645043Y344996D01*
X645043Y344993D01*
X645041Y344990D01*
X644943Y344645D01*
X644846Y344311D01*
X644846Y344308D01*
X644845Y344305D01*
X644785Y343949D01*
X644727Y343609D01*
X644727Y343606D01*
X644727Y343603D01*
X644707Y343241D01*
X644688Y342897D01*
X644688Y342894D01*
X644688Y342891D01*
X644708Y342537D01*
X644728Y342186D01*
X644728Y342183D01*
X644728Y342180D01*
X644791Y341815D01*
X644848Y341484D01*
X644848Y341481D01*
X644849Y341478D01*
X644952Y341123D01*
X645045Y340799D01*
X645046Y340797D01*
X645047Y340794D01*
X645183Y340466D01*
X645318Y340141D01*
X645320Y340139D01*
X645321Y340136D01*
X645491Y339830D01*
X645663Y339518D01*
X645665Y339516D01*
X645666Y339513D01*
X645870Y339227D01*
X646076Y338937D01*
X646078Y338935D01*
X646080Y338933D01*
X646547Y338410D01*
X646551Y338407D01*
X646551Y338406D01*
X646844Y338114D01*
X648971Y332979D01*
X648971Y327421D01*
X646844Y322286D01*
X642914Y318356D01*
X639142Y316794D01*
X638980Y316716D01*
X638813Y316647D01*
X638659Y316561D01*
X638500Y316485D01*
X638348Y316389D01*
X638190Y316301D01*
X638046Y316199D01*
X637897Y316106D01*
X637756Y315993D01*
X637609Y315889D01*
X637478Y315771D01*
X637340Y315661D01*
X637213Y315534D01*
X637078Y315414D01*
X636961Y315282D01*
X636837Y315158D01*
X636724Y315017D01*
X636604Y314882D01*
X636502Y314738D01*
X636393Y314600D01*
X636297Y314448D01*
X636192Y314300D01*
X636107Y314146D01*
X636014Y313997D01*
X635936Y313835D01*
X635848Y313677D01*
X635781Y313514D01*
X635705Y313355D01*
X635646Y313185D01*
X635577Y313018D01*
X635528Y312849D01*
X635470Y312683D01*
X635430Y312507D01*
X635380Y312333D01*
X635351Y312160D01*
X635312Y311988D01*
X635292Y311809D01*
X635262Y311631D01*
X635252Y311455D01*
X635232Y311280D01*
X635233Y311100D01*
X635223Y310919D01*
X635233Y310743D01*
X635233Y310568D01*
X635253Y310388D01*
X635264Y310208D01*
X635293Y310035D01*
X635313Y309860D01*
X635354Y309684D01*
X635384Y309506D01*
X635433Y309337D01*
X635472Y309165D01*
X635532Y308995D01*
X635582Y308822D01*
X635650Y308659D01*
X635708Y308493D01*
X635787Y308331D01*
X635856Y308164D01*
X635941Y308010D01*
X636018Y307851D01*
X636114Y307699D01*
X636202Y307541D01*
X636304Y307397D01*
X636398Y307249D01*
X636510Y307108D01*
X636615Y306961D01*
X636734Y306827D01*
X636842Y306692D01*
X636964Y306571D01*
X637082Y306438D01*
X653434Y290087D01*
X653436Y290085D01*
X653438Y290083D01*
X653703Y289846D01*
X653965Y289612D01*
X653968Y289610D01*
X653970Y289608D01*
X654256Y289406D01*
X654547Y289200D01*
X654549Y289198D01*
X654551Y289197D01*
X654874Y289019D01*
X655170Y288855D01*
X655172Y288854D01*
X655175Y288853D01*
X655517Y288711D01*
X655828Y288583D01*
X655831Y288582D01*
X655834Y288581D01*
X656181Y288481D01*
X656513Y288386D01*
X656516Y288385D01*
X656519Y288384D01*
X656886Y288322D01*
X657215Y288267D01*
X657218Y288266D01*
X657221Y288266D01*
X657588Y288246D01*
X657927Y288227D01*
X657930Y288227D01*
X657932Y288227D01*
X658282Y288247D01*
X658638Y288267D01*
X658641Y288268D01*
X658644Y288268D01*
X658984Y288326D01*
X659340Y288387D01*
X659343Y288388D01*
X659346Y288388D01*
X659694Y288489D01*
X660025Y288585D01*
X660027Y288586D01*
X660030Y288586D01*
X660363Y288725D01*
X660683Y288858D01*
X660685Y288859D01*
X660688Y288860D01*
X660988Y289027D01*
X661306Y289203D01*
X661308Y289204D01*
X661311Y289206D01*
X661598Y289410D01*
X661887Y289615D01*
X661889Y289617D01*
X661891Y289619D01*
X662413Y290087D01*
X662590Y290263D01*
X663006Y290542D01*
X663469Y290733D01*
X663960Y290831D01*
X666751Y290831D01*
X666751Y279400D01*
X666751Y279397D01*
X666751Y279395D01*
X666770Y279047D01*
X666791Y278689D01*
X666791Y278686D01*
X666791Y278683D01*
X666849Y278343D01*
X666910Y277987D01*
X666911Y277984D01*
X666911Y277981D01*
X667011Y277636D01*
X667107Y277302D01*
X667108Y277300D01*
X667109Y277297D01*
X667244Y276973D01*
X667380Y276644D01*
X667381Y276641D01*
X667383Y276639D01*
X667555Y276327D01*
X667725Y276021D01*
X667726Y276018D01*
X667728Y276016D01*
X667942Y275714D01*
X668137Y275440D01*
X668139Y275438D01*
X668141Y275435D01*
X668381Y275167D01*
X668612Y274909D01*
X668613Y274908D01*
X668615Y274907D01*
X668616Y274905D01*
X668617Y274904D01*
X668884Y274666D01*
X669144Y274434D01*
X669147Y274432D01*
X669149Y274430D01*
X669429Y274232D01*
X669725Y274022D01*
X669728Y274020D01*
X669730Y274019D01*
X670032Y273853D01*
X670349Y273678D01*
X670352Y273676D01*
X670354Y273675D01*
X670673Y273544D01*
X671008Y273405D01*
X671010Y273405D01*
X671013Y273404D01*
X671342Y273309D01*
X671692Y273209D01*
X671695Y273208D01*
X671698Y273207D01*
X672052Y273148D01*
X672395Y273090D01*
X672397Y273090D01*
X672400Y273089D01*
X673100Y273051D01*
X684531Y273051D01*
X684531Y270260D01*
X684433Y269769D01*
X684182Y269163D01*
X684095Y269015D01*
X684057Y268931D01*
X684012Y268849D01*
X683912Y268606D01*
X683804Y268365D01*
X683776Y268277D01*
X683740Y268191D01*
X683668Y267938D01*
X683588Y267686D01*
X683570Y267595D01*
X683544Y267506D01*
X683500Y267246D01*
X683449Y266988D01*
X683441Y266895D01*
X683426Y266804D01*
X683411Y266540D01*
X683389Y266278D01*
X683392Y266185D01*
X683387Y266092D01*
X683402Y265829D01*
X683409Y265566D01*
X683422Y265474D01*
X683428Y265381D01*
X683472Y265121D01*
X683509Y264860D01*
X683532Y264770D01*
X683548Y264679D01*
X683621Y264426D01*
X683687Y264170D01*
X683720Y264084D01*
X683746Y263995D01*
X683847Y263751D01*
X683942Y263505D01*
X683984Y263423D01*
X684020Y263337D01*
X684148Y263106D01*
X684269Y262872D01*
X684321Y262795D01*
X684366Y262714D01*
X684518Y262500D01*
X684665Y262280D01*
X684725Y262209D01*
X684779Y262134D01*
X684917Y261980D01*
X687071Y256779D01*
X687071Y251221D01*
X684944Y246086D01*
X684647Y245790D01*
X684645Y245788D01*
X684643Y245786D01*
X684403Y245516D01*
X684173Y245258D01*
X684171Y245256D01*
X684169Y245254D01*
X683965Y244965D01*
X683760Y244677D01*
X683759Y244675D01*
X683757Y244672D01*
X683576Y244344D01*
X683416Y244054D01*
X683415Y244051D01*
X683413Y244049D01*
X683275Y243713D01*
X683143Y243396D01*
X683143Y243393D01*
X683141Y243390D01*
X683045Y243055D01*
X682946Y242711D01*
X682946Y242708D01*
X682945Y242705D01*
X682885Y242352D01*
X682827Y242009D01*
X682827Y242006D01*
X682827Y242003D01*
X682807Y241641D01*
X682788Y241297D01*
X682788Y241294D01*
X682788Y241291D01*
X682808Y240937D01*
X682828Y240586D01*
X682828Y240583D01*
X682828Y240580D01*
X682889Y240225D01*
X682948Y239884D01*
X682948Y239881D01*
X682949Y239878D01*
X683052Y239523D01*
X683145Y239199D01*
X683146Y239197D01*
X683147Y239194D01*
X683283Y238866D01*
X683418Y238541D01*
X683420Y238539D01*
X683421Y238536D01*
X683589Y238233D01*
X683763Y237918D01*
X683765Y237916D01*
X683766Y237913D01*
X683970Y237627D01*
X684176Y237337D01*
X684178Y237335D01*
X684180Y237333D01*
X684647Y236810D01*
X684651Y236807D01*
X684651Y236806D01*
X684944Y236514D01*
X687071Y231379D01*
X687071Y225821D01*
X684944Y220686D01*
X684901Y220644D01*
X684900Y220642D01*
X684899Y220642D01*
X684676Y220392D01*
X684427Y220112D01*
X684426Y220111D01*
X684425Y220110D01*
X684202Y219795D01*
X684014Y219531D01*
X684014Y219530D01*
X684013Y219529D01*
X683829Y219197D01*
X683670Y218908D01*
X683669Y218906D01*
X683669Y218905D01*
X683527Y218564D01*
X683397Y218250D01*
X683397Y218248D01*
X683396Y218247D01*
X683304Y217925D01*
X683200Y217565D01*
X683200Y217563D01*
X683200Y217562D01*
X683144Y217233D01*
X683081Y216863D01*
X683081Y216861D01*
X683081Y216860D01*
X683059Y216468D01*
X683042Y216151D01*
X683042Y216150D01*
X683042Y216148D01*
X683061Y215802D01*
X683082Y215440D01*
X683082Y215438D01*
X683082Y215437D01*
X683148Y215053D01*
X683202Y214738D01*
X683202Y214736D01*
X683202Y214735D01*
X683306Y214376D01*
X683399Y214053D01*
X683400Y214052D01*
X683400Y214050D01*
X683544Y213703D01*
X683672Y213395D01*
X683673Y213394D01*
X683673Y213393D01*
X683859Y213058D01*
X684017Y212772D01*
X684018Y212771D01*
X684019Y212769D01*
X684217Y212490D01*
X684430Y212191D01*
X684431Y212190D01*
X684432Y212189D01*
X684656Y211939D01*
X684905Y211660D01*
X684906Y211659D01*
X684907Y211658D01*
X685198Y211399D01*
X685437Y211186D01*
X685438Y211185D01*
X685439Y211184D01*
X685756Y210960D01*
X686018Y210775D01*
X686019Y210774D01*
X686021Y210773D01*
X686331Y210602D01*
X686642Y210431D01*
X686644Y210430D01*
X686645Y210429D01*
X686955Y210301D01*
X687301Y210159D01*
X687302Y210158D01*
X687303Y210158D01*
X687639Y210061D01*
X687985Y209962D01*
X687987Y209962D01*
X687988Y209962D01*
X688361Y209899D01*
X688688Y209844D01*
X688689Y209844D01*
X688691Y209843D01*
X689391Y209805D01*
X693134Y209805D01*
X693139Y209805D01*
X693143Y209805D01*
X693496Y209825D01*
X693846Y209845D01*
X693850Y209845D01*
X693854Y209846D01*
X694205Y209906D01*
X694548Y209964D01*
X694552Y209965D01*
X694556Y209966D01*
X694908Y210068D01*
X695232Y210161D01*
X695236Y210163D01*
X695241Y210164D01*
X695567Y210300D01*
X695891Y210434D01*
X695895Y210436D01*
X695898Y210438D01*
X696205Y210608D01*
X696514Y210779D01*
X696517Y210781D01*
X696521Y210784D01*
X696820Y210996D01*
X697095Y211191D01*
X697098Y211194D01*
X697102Y211197D01*
X697624Y211664D01*
X708070Y222110D01*
X708072Y222113D01*
X708076Y222116D01*
X708310Y222379D01*
X708544Y222641D01*
X708547Y222645D01*
X708550Y222648D01*
X708751Y222933D01*
X708957Y223222D01*
X708959Y223226D01*
X708961Y223230D01*
X709132Y223540D01*
X709301Y223846D01*
X709303Y223850D01*
X709305Y223854D01*
X709439Y224178D01*
X709574Y224504D01*
X709575Y224508D01*
X709576Y224512D01*
X709673Y224851D01*
X709771Y225189D01*
X709771Y225193D01*
X709772Y225197D01*
X709832Y225553D01*
X709890Y225891D01*
X709890Y225895D01*
X709891Y225900D01*
X709929Y226600D01*
X709929Y231379D01*
X712056Y236514D01*
X712353Y236810D01*
X712355Y236813D01*
X712357Y236815D01*
X712589Y237074D01*
X712828Y237342D01*
X712829Y237344D01*
X712831Y237346D01*
X713035Y237634D01*
X713240Y237923D01*
X713241Y237925D01*
X713243Y237928D01*
X713422Y238253D01*
X713584Y238546D01*
X713585Y238549D01*
X713587Y238552D01*
X713725Y238887D01*
X713857Y239205D01*
X713858Y239207D01*
X713859Y239210D01*
X713959Y239562D01*
X714054Y239889D01*
X714054Y239892D01*
X714055Y239895D01*
X714117Y240261D01*
X714173Y240592D01*
X714173Y240594D01*
X714173Y240597D01*
X714193Y240959D01*
X714212Y241303D01*
X714212Y241306D01*
X714212Y241309D01*
X714192Y241664D01*
X714172Y242014D01*
X714172Y242017D01*
X714172Y242020D01*
X714113Y242361D01*
X714052Y242716D01*
X714052Y242719D01*
X714051Y242722D01*
X713953Y243061D01*
X713855Y243401D01*
X713854Y243403D01*
X713853Y243406D01*
X713716Y243734D01*
X713582Y244059D01*
X713580Y244062D01*
X713579Y244064D01*
X713411Y244367D01*
X713237Y244682D01*
X713235Y244685D01*
X713234Y244687D01*
X713035Y244965D01*
X712824Y245263D01*
X712822Y245265D01*
X712820Y245267D01*
X712353Y245790D01*
X712056Y246086D01*
X709929Y251221D01*
X709929Y256779D01*
X712084Y261981D01*
X712228Y262142D01*
X712282Y262218D01*
X712342Y262289D01*
X712488Y262509D01*
X712641Y262723D01*
X712685Y262805D01*
X712737Y262882D01*
X712858Y263116D01*
X712985Y263347D01*
X713021Y263433D01*
X713063Y263515D01*
X713157Y263762D01*
X713258Y264005D01*
X713283Y264094D01*
X713316Y264181D01*
X713382Y264436D01*
X713455Y264690D01*
X713470Y264781D01*
X713493Y264871D01*
X713530Y265132D01*
X713574Y265392D01*
X713579Y265485D01*
X713592Y265577D01*
X713599Y265840D01*
X713613Y266104D01*
X713608Y266196D01*
X713611Y266289D01*
X713588Y266552D01*
X713573Y266815D01*
X713558Y266906D01*
X713550Y266999D01*
X713498Y267258D01*
X713453Y267517D01*
X713428Y267606D01*
X713409Y267697D01*
X713329Y267948D01*
X713256Y268202D01*
X713220Y268287D01*
X713192Y268376D01*
X713084Y268617D01*
X712983Y268860D01*
X712938Y268941D01*
X712900Y269026D01*
X712816Y269167D01*
X712567Y269769D01*
X712469Y270260D01*
X712469Y273051D01*
X723900Y273051D01*
X735331Y273051D01*
X735331Y270260D01*
X735233Y269769D01*
X734982Y269163D01*
X734895Y269015D01*
X734857Y268931D01*
X734812Y268849D01*
X734712Y268606D01*
X734604Y268365D01*
X734576Y268277D01*
X734540Y268191D01*
X734468Y267938D01*
X734388Y267686D01*
X734370Y267595D01*
X734344Y267506D01*
X734300Y267246D01*
X734249Y266988D01*
X734241Y266895D01*
X734226Y266804D01*
X734211Y266540D01*
X734189Y266278D01*
X734192Y266185D01*
X734187Y266092D01*
X734202Y265829D01*
X734209Y265566D01*
X734222Y265474D01*
X734228Y265381D01*
X734272Y265121D01*
X734309Y264860D01*
X734332Y264770D01*
X734348Y264679D01*
X734421Y264426D01*
X734487Y264170D01*
X734520Y264084D01*
X734546Y263995D01*
X734647Y263751D01*
X734742Y263505D01*
X734784Y263423D01*
X734820Y263337D01*
X734948Y263106D01*
X735069Y262872D01*
X735121Y262795D01*
X735166Y262714D01*
X735318Y262500D01*
X735465Y262280D01*
X735525Y262209D01*
X735579Y262134D01*
X735717Y261980D01*
X737871Y256779D01*
X737871Y251221D01*
X735744Y246086D01*
X735447Y245790D01*
X735445Y245788D01*
X735443Y245786D01*
X735203Y245516D01*
X734973Y245258D01*
X734971Y245256D01*
X734969Y245254D01*
X734765Y244965D01*
X734560Y244677D01*
X734559Y244675D01*
X734557Y244672D01*
X734376Y244344D01*
X734216Y244054D01*
X734215Y244051D01*
X734213Y244049D01*
X734075Y243713D01*
X733943Y243396D01*
X733943Y243393D01*
X733941Y243390D01*
X733845Y243055D01*
X733746Y242711D01*
X733746Y242708D01*
X733745Y242705D01*
X733685Y242352D01*
X733627Y242009D01*
X733627Y242006D01*
X733627Y242003D01*
X733607Y241641D01*
X733588Y241297D01*
X733588Y241294D01*
X733588Y241291D01*
X733608Y240937D01*
X733628Y240586D01*
X733628Y240583D01*
X733628Y240580D01*
X733689Y240225D01*
X733748Y239884D01*
X733748Y239881D01*
X733749Y239878D01*
X733852Y239523D01*
X733945Y239199D01*
X733946Y239197D01*
X733947Y239194D01*
X734083Y238866D01*
X734218Y238541D01*
X734220Y238539D01*
X734221Y238536D01*
X734389Y238233D01*
X734563Y237918D01*
X734565Y237916D01*
X734566Y237913D01*
X734770Y237627D01*
X734976Y237337D01*
X734978Y237335D01*
X734980Y237333D01*
X735447Y236810D01*
X735451Y236807D01*
X735451Y236806D01*
X735744Y236514D01*
X737871Y231379D01*
X737871Y225821D01*
X735744Y220686D01*
X731814Y216756D01*
X726679Y214629D01*
X721900Y214629D01*
X721895Y214629D01*
X721891Y214629D01*
X721538Y214609D01*
X721188Y214589D01*
X721184Y214589D01*
X721180Y214588D01*
X720829Y214528D01*
X720486Y214470D01*
X720482Y214469D01*
X720478Y214468D01*
X720126Y214366D01*
X719802Y214273D01*
X719798Y214271D01*
X719793Y214270D01*
X719467Y214134D01*
X719143Y214000D01*
X719139Y213998D01*
X719136Y213996D01*
X718829Y213826D01*
X718520Y213655D01*
X718517Y213653D01*
X718513Y213650D01*
X718214Y213438D01*
X717939Y213243D01*
X717936Y213240D01*
X717932Y213237D01*
X717410Y212770D01*
X702241Y197601D01*
X699814Y196595D01*
X690139Y196595D01*
X689959Y196585D01*
X689779Y196585D01*
X689604Y196565D01*
X689428Y196555D01*
X689250Y196525D01*
X689071Y196505D01*
X688899Y196465D01*
X688726Y196436D01*
X688553Y196386D01*
X688377Y196346D01*
X688210Y196287D01*
X688041Y196239D01*
X687875Y196169D01*
X687704Y196110D01*
X687546Y196033D01*
X687383Y195966D01*
X687225Y195878D01*
X687063Y195800D01*
X686914Y195706D01*
X686760Y195621D01*
X686613Y195517D01*
X686460Y195420D01*
X686322Y195310D01*
X686179Y195209D01*
X686045Y195088D01*
X685903Y194976D01*
X685779Y194851D01*
X685648Y194734D01*
X685528Y194599D01*
X685400Y194471D01*
X685291Y194333D01*
X685173Y194202D01*
X685069Y194055D01*
X684957Y193914D01*
X684863Y193765D01*
X684761Y193621D01*
X684674Y193463D01*
X684578Y193310D01*
X684502Y193151D01*
X684417Y192997D01*
X684348Y192830D01*
X684270Y192668D01*
X684212Y192501D01*
X684145Y192339D01*
X684095Y192165D01*
X684036Y191995D01*
X683997Y191823D01*
X683948Y191654D01*
X683918Y191476D01*
X683878Y191300D01*
X683859Y191125D01*
X683830Y190952D01*
X683820Y190772D01*
X683800Y190592D01*
X683800Y190416D01*
X683790Y190240D01*
X683801Y190060D01*
X683801Y189880D01*
X683821Y189704D01*
X683831Y189529D01*
X683861Y189351D01*
X683882Y189172D01*
X683921Y189000D01*
X683951Y188827D01*
X684001Y188654D01*
X684041Y188478D01*
X684101Y188309D01*
X684149Y188142D01*
X684215Y187984D01*
X684274Y187816D01*
X684433Y187431D01*
X684531Y186940D01*
X684531Y184149D01*
X673100Y184149D01*
X673097Y184149D01*
X673095Y184149D01*
X672747Y184130D01*
X672389Y184109D01*
X672386Y184109D01*
X672383Y184109D01*
X672043Y184051D01*
X671687Y183990D01*
X671684Y183989D01*
X671681Y183989D01*
X671336Y183889D01*
X671002Y183793D01*
X671000Y183792D01*
X670997Y183791D01*
X670673Y183656D01*
X670344Y183520D01*
X670341Y183518D01*
X670339Y183517D01*
X670027Y183345D01*
X669721Y183175D01*
X669718Y183174D01*
X669716Y183172D01*
X669414Y182957D01*
X669140Y182763D01*
X669138Y182761D01*
X669135Y182759D01*
X668867Y182519D01*
X668609Y182288D01*
X668607Y182286D01*
X668605Y182284D01*
X668366Y182016D01*
X668134Y181756D01*
X668133Y181754D01*
X668131Y181752D01*
X667932Y181471D01*
X667722Y181175D01*
X667721Y181172D01*
X667719Y181170D01*
X667556Y180874D01*
X667378Y180551D01*
X667377Y180549D01*
X667376Y180546D01*
X667244Y180228D01*
X667106Y179893D01*
X667105Y179890D01*
X667104Y179888D01*
X667010Y179559D01*
X666909Y179208D01*
X666909Y179205D01*
X666908Y179203D01*
X666848Y178849D01*
X666790Y178506D01*
X666790Y178503D01*
X666790Y178500D01*
X666751Y177800D01*
X666751Y177797D01*
X666751Y177794D01*
X666771Y177447D01*
X666791Y177089D01*
X666792Y177086D01*
X666792Y177083D01*
X666850Y176742D01*
X666910Y176386D01*
X666911Y176383D01*
X666912Y176381D01*
X667012Y176035D01*
X667108Y175702D01*
X667109Y175699D01*
X667110Y175696D01*
X667244Y175372D01*
X667381Y175044D01*
X667382Y175041D01*
X667383Y175038D01*
X667556Y174727D01*
X667725Y174420D01*
X667727Y174418D01*
X667728Y174415D01*
X667940Y174117D01*
X668138Y173839D01*
X668140Y173837D01*
X668141Y173835D01*
X668381Y173567D01*
X668613Y173308D01*
X668615Y173306D01*
X668617Y173304D01*
X668884Y173066D01*
X669144Y172834D01*
X669147Y172832D01*
X669149Y172830D01*
X669429Y172632D01*
X669725Y172422D01*
X669728Y172420D01*
X669730Y172419D01*
X670029Y172254D01*
X670349Y172078D01*
X670352Y172076D01*
X670354Y172075D01*
X670673Y171944D01*
X671008Y171805D01*
X671010Y171805D01*
X671013Y171804D01*
X671342Y171709D01*
X671692Y171609D01*
X671695Y171608D01*
X671698Y171607D01*
X672052Y171548D01*
X672395Y171490D01*
X672397Y171490D01*
X672400Y171489D01*
X673100Y171451D01*
X684531Y171451D01*
X684531Y168660D01*
X684433Y168169D01*
X684182Y167563D01*
X684095Y167415D01*
X684057Y167331D01*
X684012Y167249D01*
X683912Y167006D01*
X683804Y166765D01*
X683776Y166677D01*
X683740Y166591D01*
X683668Y166338D01*
X683588Y166086D01*
X683570Y165995D01*
X683544Y165906D01*
X683500Y165646D01*
X683449Y165388D01*
X683441Y165295D01*
X683426Y165204D01*
X683411Y164940D01*
X683389Y164678D01*
X683392Y164585D01*
X683387Y164492D01*
X683402Y164229D01*
X683409Y163966D01*
X683422Y163874D01*
X683428Y163781D01*
X683472Y163521D01*
X683509Y163260D01*
X683532Y163170D01*
X683548Y163079D01*
X683621Y162826D01*
X683687Y162570D01*
X683720Y162484D01*
X683746Y162395D01*
X683847Y162151D01*
X683942Y161905D01*
X683984Y161823D01*
X684020Y161737D01*
X684148Y161506D01*
X684269Y161272D01*
X684321Y161195D01*
X684366Y161114D01*
X684518Y160900D01*
X684665Y160680D01*
X684725Y160609D01*
X684779Y160534D01*
X684917Y160380D01*
X687071Y155179D01*
X687071Y149621D01*
X684944Y144486D01*
X684647Y144190D01*
X684645Y144188D01*
X684643Y144186D01*
X684403Y143916D01*
X684173Y143658D01*
X684171Y143656D01*
X684169Y143654D01*
X683958Y143356D01*
X683760Y143077D01*
X683759Y143075D01*
X683757Y143072D01*
X683576Y142744D01*
X683416Y142454D01*
X683415Y142451D01*
X683413Y142449D01*
X683275Y142113D01*
X683143Y141796D01*
X683143Y141793D01*
X683141Y141790D01*
X683045Y141455D01*
X682946Y141111D01*
X682946Y141108D01*
X682945Y141105D01*
X682885Y140752D01*
X682827Y140409D01*
X682827Y140406D01*
X682827Y140403D01*
X682807Y140041D01*
X682788Y139697D01*
X682788Y139694D01*
X682788Y139691D01*
X682808Y139337D01*
X682828Y138986D01*
X682828Y138983D01*
X682828Y138980D01*
X682889Y138625D01*
X682948Y138284D01*
X682948Y138281D01*
X682949Y138278D01*
X683052Y137923D01*
X683145Y137599D01*
X683146Y137597D01*
X683147Y137594D01*
X683283Y137266D01*
X683418Y136941D01*
X683420Y136939D01*
X683421Y136936D01*
X683589Y136633D01*
X683763Y136318D01*
X683765Y136316D01*
X683766Y136313D01*
X683974Y136022D01*
X684176Y135737D01*
X684178Y135735D01*
X684180Y135733D01*
X684647Y135210D01*
X684651Y135207D01*
X684651Y135206D01*
X684944Y134914D01*
X687071Y129779D01*
X687071Y124221D01*
X684944Y119086D01*
X684901Y119044D01*
X684900Y119042D01*
X684899Y119042D01*
X684676Y118792D01*
X684427Y118512D01*
X684426Y118511D01*
X684425Y118510D01*
X684202Y118195D01*
X684014Y117931D01*
X684014Y117930D01*
X684013Y117929D01*
X683829Y117597D01*
X683670Y117308D01*
X683669Y117306D01*
X683669Y117305D01*
X683535Y116983D01*
X683397Y116650D01*
X683397Y116648D01*
X683396Y116647D01*
X683304Y116325D01*
X683200Y115965D01*
X683200Y115963D01*
X683200Y115962D01*
X683144Y115633D01*
X683081Y115263D01*
X683081Y115261D01*
X683081Y115260D01*
X683062Y114923D01*
X683042Y114551D01*
X683042Y114550D01*
X683042Y114548D01*
X683061Y114202D01*
X683082Y113840D01*
X683082Y113838D01*
X683082Y113837D01*
X683148Y113453D01*
X683202Y113138D01*
X683202Y113136D01*
X683202Y113135D01*
X683306Y112776D01*
X683399Y112453D01*
X683400Y112452D01*
X683400Y112450D01*
X683544Y112103D01*
X683672Y111795D01*
X683673Y111794D01*
X683673Y111793D01*
X683859Y111458D01*
X684017Y111172D01*
X684018Y111171D01*
X684019Y111169D01*
X684217Y110890D01*
X684430Y110591D01*
X684431Y110590D01*
X684432Y110589D01*
X684656Y110339D01*
X684905Y110060D01*
X684906Y110059D01*
X684907Y110058D01*
X685198Y109799D01*
X685437Y109586D01*
X685438Y109585D01*
X685439Y109584D01*
X685756Y109360D01*
X686018Y109175D01*
X686019Y109174D01*
X686021Y109173D01*
X686331Y109002D01*
X686642Y108831D01*
X686644Y108830D01*
X686645Y108829D01*
X686955Y108701D01*
X687301Y108559D01*
X687302Y108558D01*
X687303Y108558D01*
X687639Y108461D01*
X687985Y108362D01*
X687987Y108362D01*
X687988Y108362D01*
X688361Y108299D01*
X688688Y108244D01*
X688689Y108244D01*
X688691Y108243D01*
X689391Y108205D01*
X693134Y108205D01*
X693138Y108205D01*
X693143Y108205D01*
X693495Y108225D01*
X693846Y108245D01*
X693850Y108245D01*
X693854Y108246D01*
X694205Y108306D01*
X694548Y108364D01*
X694552Y108365D01*
X694556Y108366D01*
X694908Y108468D01*
X695232Y108561D01*
X695236Y108563D01*
X695241Y108564D01*
X695567Y108700D01*
X695891Y108834D01*
X695895Y108836D01*
X695898Y108838D01*
X696205Y109008D01*
X696514Y109179D01*
X696517Y109181D01*
X696521Y109184D01*
X696820Y109396D01*
X697095Y109591D01*
X697098Y109594D01*
X697102Y109597D01*
X697624Y110064D01*
X702439Y114880D01*
X708070Y120510D01*
X708072Y120513D01*
X708076Y120516D01*
X708316Y120786D01*
X708544Y121041D01*
X708547Y121045D01*
X708550Y121048D01*
X708756Y121340D01*
X708957Y121622D01*
X708959Y121626D01*
X708961Y121630D01*
X709129Y121935D01*
X709301Y122246D01*
X709303Y122250D01*
X709305Y122254D01*
X709435Y122570D01*
X709574Y122904D01*
X709575Y122909D01*
X709576Y122912D01*
X709672Y123248D01*
X709771Y123589D01*
X709771Y123593D01*
X709772Y123597D01*
X709832Y123953D01*
X709890Y124291D01*
X709890Y124295D01*
X709891Y124300D01*
X709929Y125000D01*
X709929Y129779D01*
X712056Y134914D01*
X712353Y135210D01*
X712355Y135213D01*
X712357Y135215D01*
X712589Y135474D01*
X712828Y135742D01*
X712829Y135744D01*
X712831Y135746D01*
X713026Y136022D01*
X713240Y136323D01*
X713241Y136325D01*
X713243Y136328D01*
X713422Y136653D01*
X713584Y136946D01*
X713585Y136949D01*
X713587Y136952D01*
X713725Y137287D01*
X713857Y137605D01*
X713858Y137607D01*
X713859Y137610D01*
X713959Y137962D01*
X714054Y138289D01*
X714054Y138292D01*
X714055Y138295D01*
X714117Y138661D01*
X714173Y138992D01*
X714173Y138994D01*
X714173Y138997D01*
X714193Y139359D01*
X714212Y139703D01*
X714212Y139706D01*
X714212Y139709D01*
X714192Y140064D01*
X714172Y140414D01*
X714172Y140417D01*
X714172Y140420D01*
X714113Y140761D01*
X714052Y141116D01*
X714052Y141119D01*
X714051Y141122D01*
X713953Y141461D01*
X713855Y141801D01*
X713854Y141803D01*
X713853Y141806D01*
X713716Y142134D01*
X713582Y142459D01*
X713580Y142462D01*
X713579Y142464D01*
X713411Y142767D01*
X713237Y143082D01*
X713235Y143085D01*
X713234Y143087D01*
X713030Y143373D01*
X712824Y143663D01*
X712822Y143665D01*
X712820Y143667D01*
X712353Y144190D01*
X712056Y144486D01*
X709929Y149621D01*
X709929Y155179D01*
X712084Y160381D01*
X712228Y160543D01*
X712282Y160618D01*
X712341Y160689D01*
X712488Y160908D01*
X712641Y161124D01*
X712685Y161205D01*
X712737Y161281D01*
X712858Y161516D01*
X712985Y161747D01*
X713020Y161832D01*
X713063Y161915D01*
X713157Y162162D01*
X713258Y162405D01*
X713283Y162494D01*
X713316Y162581D01*
X713382Y162837D01*
X713455Y163090D01*
X713470Y163181D01*
X713493Y163271D01*
X713530Y163533D01*
X713574Y163792D01*
X713579Y163885D01*
X713592Y163976D01*
X713599Y164240D01*
X713613Y164504D01*
X713608Y164596D01*
X713611Y164688D01*
X713588Y164951D01*
X713573Y165215D01*
X713558Y165306D01*
X713550Y165398D01*
X713498Y165657D01*
X713453Y165917D01*
X713428Y166006D01*
X713410Y166097D01*
X713329Y166349D01*
X713256Y166602D01*
X713220Y166687D01*
X713192Y166775D01*
X713084Y167016D01*
X712983Y167260D01*
X712938Y167341D01*
X712900Y167425D01*
X712817Y167566D01*
X712567Y168169D01*
X712469Y168660D01*
X712469Y171451D01*
X723900Y171451D01*
X735331Y171451D01*
X735331Y168660D01*
X735233Y168169D01*
X734982Y167563D01*
X734895Y167415D01*
X734857Y167331D01*
X734812Y167250D01*
X734711Y167005D01*
X734604Y166765D01*
X734576Y166676D01*
X734540Y166591D01*
X734468Y166337D01*
X734388Y166086D01*
X734370Y165995D01*
X734344Y165906D01*
X734300Y165645D01*
X734249Y165387D01*
X734241Y165295D01*
X734226Y165204D01*
X734211Y164940D01*
X734189Y164677D01*
X734192Y164585D01*
X734187Y164492D01*
X734202Y164229D01*
X734209Y163965D01*
X734222Y163873D01*
X734228Y163781D01*
X734272Y163521D01*
X734309Y163260D01*
X734332Y163170D01*
X734348Y163079D01*
X734421Y162825D01*
X734487Y162570D01*
X734520Y162484D01*
X734546Y162395D01*
X734648Y162151D01*
X734742Y161904D01*
X734784Y161822D01*
X734820Y161737D01*
X734948Y161506D01*
X735069Y161272D01*
X735121Y161195D01*
X735165Y161114D01*
X735319Y160899D01*
X735465Y160679D01*
X735525Y160609D01*
X735579Y160534D01*
X735717Y160380D01*
X737871Y155179D01*
X737871Y149621D01*
X735744Y144486D01*
X735447Y144190D01*
X735445Y144188D01*
X735443Y144186D01*
X735203Y143916D01*
X734973Y143658D01*
X734971Y143656D01*
X734969Y143654D01*
X734758Y143356D01*
X734560Y143077D01*
X734559Y143075D01*
X734557Y143072D01*
X734376Y142744D01*
X734216Y142454D01*
X734215Y142451D01*
X734213Y142449D01*
X734075Y142113D01*
X733943Y141796D01*
X733943Y141793D01*
X733941Y141790D01*
X733845Y141455D01*
X733746Y141111D01*
X733746Y141108D01*
X733745Y141105D01*
X733685Y140752D01*
X733627Y140409D01*
X733627Y140406D01*
X733627Y140403D01*
X733607Y140041D01*
X733588Y139697D01*
X733588Y139694D01*
X733588Y139691D01*
X733608Y139337D01*
X733628Y138986D01*
X733628Y138983D01*
X733628Y138980D01*
X733689Y138625D01*
X733748Y138284D01*
X733748Y138281D01*
X733749Y138278D01*
X733852Y137923D01*
X733945Y137599D01*
X733946Y137597D01*
X733947Y137594D01*
X734083Y137266D01*
X734218Y136941D01*
X734220Y136939D01*
X734221Y136936D01*
X734389Y136633D01*
X734563Y136318D01*
X734565Y136316D01*
X734566Y136313D01*
X734774Y136022D01*
X734976Y135737D01*
X734978Y135735D01*
X734980Y135733D01*
X735447Y135210D01*
X735451Y135207D01*
X735451Y135206D01*
X735744Y134914D01*
X737871Y129779D01*
X737871Y124221D01*
X735744Y119086D01*
X731814Y115156D01*
X726679Y113029D01*
X721900Y113029D01*
X721895Y113029D01*
X721891Y113029D01*
X721538Y113009D01*
X721188Y112989D01*
X721184Y112989D01*
X721180Y112988D01*
X720829Y112928D01*
X720486Y112870D01*
X720482Y112869D01*
X720478Y112868D01*
X720126Y112766D01*
X719802Y112673D01*
X719798Y112671D01*
X719793Y112670D01*
X719467Y112534D01*
X719143Y112400D01*
X719139Y112398D01*
X719136Y112396D01*
X718829Y112226D01*
X718520Y112055D01*
X718517Y112053D01*
X718513Y112050D01*
X718214Y111838D01*
X717939Y111643D01*
X717936Y111640D01*
X717932Y111637D01*
X717410Y111170D01*
X704698Y98458D01*
X702241Y96001D01*
X699814Y94995D01*
X690139Y94995D01*
X689959Y94985D01*
X689779Y94985D01*
X689604Y94965D01*
X689428Y94955D01*
X689250Y94925D01*
X689071Y94905D01*
X688899Y94865D01*
X688726Y94836D01*
X688553Y94786D01*
X688377Y94746D01*
X688210Y94687D01*
X688041Y94639D01*
X687875Y94569D01*
X687704Y94510D01*
X687546Y94433D01*
X687383Y94366D01*
X687225Y94278D01*
X687063Y94200D01*
X686914Y94106D01*
X686760Y94021D01*
X686613Y93917D01*
X686460Y93820D01*
X686322Y93710D01*
X686179Y93609D01*
X686045Y93488D01*
X685903Y93376D01*
X685779Y93251D01*
X685648Y93134D01*
X685528Y92999D01*
X685400Y92871D01*
X685291Y92733D01*
X685173Y92602D01*
X685069Y92455D01*
X684957Y92314D01*
X684863Y92165D01*
X684761Y92021D01*
X684674Y91863D01*
X684578Y91710D01*
X684502Y91551D01*
X684417Y91397D01*
X684348Y91230D01*
X684270Y91068D01*
X684212Y90901D01*
X684145Y90739D01*
X684095Y90565D01*
X684036Y90395D01*
X683997Y90223D01*
X683948Y90054D01*
X683918Y89876D01*
X683878Y89700D01*
X683859Y89525D01*
X683830Y89352D01*
X683820Y89172D01*
X683800Y88992D01*
X683800Y88816D01*
X683790Y88640D01*
X683801Y88460D01*
X683801Y88280D01*
X683821Y88104D01*
X683831Y87929D01*
X683861Y87751D01*
X683882Y87572D01*
X683921Y87400D01*
X683951Y87227D01*
X684001Y87054D01*
X684041Y86878D01*
X684101Y86709D01*
X684149Y86542D01*
X684215Y86384D01*
X684274Y86216D01*
X684433Y85831D01*
X684531Y85340D01*
X684531Y82549D01*
X673100Y82549D01*
X673097Y82549D01*
X673095Y82549D01*
X672747Y82530D01*
X672389Y82509D01*
X672386Y82509D01*
X672383Y82509D01*
X672043Y82451D01*
X671687Y82390D01*
X671684Y82389D01*
X671681Y82389D01*
X671336Y82289D01*
X671002Y82193D01*
X671000Y82192D01*
X670997Y82191D01*
X670673Y82056D01*
X670344Y81920D01*
X670341Y81918D01*
X670339Y81917D01*
X670027Y81745D01*
X669721Y81575D01*
X669718Y81574D01*
X669716Y81572D01*
X669414Y81357D01*
X669140Y81163D01*
X669138Y81161D01*
X669135Y81159D01*
X668863Y80915D01*
X668609Y80688D01*
X668607Y80686D01*
X668605Y80684D01*
X668366Y80416D01*
X668134Y80156D01*
X668133Y80154D01*
X668131Y80152D01*
X667927Y79864D01*
X667722Y79575D01*
X667721Y79572D01*
X667719Y79570D01*
X667556Y79274D01*
X667378Y78951D01*
X667377Y78949D01*
X667376Y78946D01*
X667244Y78628D01*
X667106Y78293D01*
X667105Y78290D01*
X667104Y78288D01*
X667010Y77959D01*
X666909Y77608D01*
X666909Y77605D01*
X666908Y77603D01*
X666848Y77249D01*
X666790Y76906D01*
X666790Y76903D01*
X666790Y76900D01*
X666751Y76200D01*
X666751Y76197D01*
X666751Y76194D01*
X666771Y75847D01*
X666791Y75489D01*
X666792Y75486D01*
X666792Y75483D01*
X666850Y75142D01*
X666910Y74786D01*
X666911Y74783D01*
X666912Y74781D01*
X667012Y74435D01*
X667108Y74102D01*
X667109Y74099D01*
X667110Y74096D01*
X667244Y73772D01*
X667381Y73444D01*
X667382Y73441D01*
X667383Y73438D01*
X667556Y73127D01*
X667725Y72820D01*
X667727Y72818D01*
X667728Y72815D01*
X667940Y72518D01*
X668138Y72239D01*
X668140Y72237D01*
X668141Y72235D01*
X668390Y71958D01*
X668613Y71708D01*
X668615Y71706D01*
X668617Y71704D01*
X668884Y71466D01*
X669144Y71234D01*
X669147Y71232D01*
X669149Y71230D01*
X669429Y71032D01*
X669725Y70822D01*
X669728Y70820D01*
X669730Y70819D01*
X670027Y70656D01*
X670349Y70478D01*
X670352Y70476D01*
X670354Y70475D01*
X670673Y70344D01*
X671008Y70205D01*
X671010Y70205D01*
X671013Y70204D01*
X671342Y70109D01*
X671692Y70009D01*
X671695Y70008D01*
X671698Y70007D01*
X672052Y69948D01*
X672395Y69890D01*
X672397Y69890D01*
X672400Y69889D01*
X673100Y69851D01*
X684531Y69851D01*
X684531Y67060D01*
X684433Y66569D01*
X684182Y65963D01*
X684095Y65815D01*
X684057Y65731D01*
X684012Y65649D01*
X683912Y65406D01*
X683804Y65165D01*
X683776Y65077D01*
X683740Y64991D01*
X683668Y64738D01*
X683588Y64486D01*
X683570Y64395D01*
X683544Y64306D01*
X683500Y64046D01*
X683449Y63788D01*
X683441Y63695D01*
X683426Y63604D01*
X683411Y63340D01*
X683389Y63078D01*
X683392Y62985D01*
X683387Y62892D01*
X683402Y62629D01*
X683409Y62366D01*
X683422Y62274D01*
X683428Y62181D01*
X683472Y61921D01*
X683509Y61660D01*
X683532Y61570D01*
X683548Y61479D01*
X683621Y61226D01*
X683687Y60970D01*
X683720Y60884D01*
X683746Y60795D01*
X683847Y60551D01*
X683942Y60305D01*
X683984Y60223D01*
X684020Y60137D01*
X684148Y59906D01*
X684269Y59672D01*
X684321Y59595D01*
X684366Y59514D01*
X684518Y59300D01*
X684665Y59080D01*
X684725Y59009D01*
X684779Y58934D01*
X684917Y58780D01*
X687071Y53579D01*
X687071Y48021D01*
X684944Y42886D01*
X684647Y42590D01*
X684645Y42588D01*
X684643Y42586D01*
X684403Y42316D01*
X684173Y42058D01*
X684171Y42056D01*
X684169Y42054D01*
X683959Y41757D01*
X683760Y41477D01*
X683759Y41475D01*
X683757Y41472D01*
X683576Y41144D01*
X683416Y40854D01*
X683415Y40851D01*
X683413Y40849D01*
X683275Y40513D01*
X683143Y40196D01*
X683143Y40193D01*
X683141Y40190D01*
X683045Y39855D01*
X682946Y39511D01*
X682946Y39508D01*
X682945Y39505D01*
X682885Y39152D01*
X682827Y38809D01*
X682827Y38806D01*
X682827Y38803D01*
X682807Y38441D01*
X682788Y38097D01*
X682788Y38094D01*
X682788Y38091D01*
X682808Y37737D01*
X682828Y37386D01*
X682828Y37383D01*
X682828Y37380D01*
X682889Y37025D01*
X682948Y36684D01*
X682948Y36681D01*
X682949Y36678D01*
X683052Y36323D01*
X683145Y35999D01*
X683146Y35997D01*
X683147Y35994D01*
X683283Y35666D01*
X683418Y35341D01*
X683420Y35339D01*
X683421Y35336D01*
X683589Y35033D01*
X683763Y34718D01*
X683765Y34716D01*
X683766Y34713D01*
X683970Y34427D01*
X684176Y34137D01*
X684178Y34135D01*
X684180Y34133D01*
X684647Y33610D01*
X684651Y33607D01*
X684651Y33606D01*
X684944Y33314D01*
X687071Y28179D01*
X687071Y25654D01*
X687071Y25651D01*
X687071Y25648D01*
X687091Y25301D01*
X687111Y24943D01*
X687111Y24940D01*
X687111Y24937D01*
X687170Y24597D01*
X687230Y24240D01*
X687231Y24238D01*
X687231Y24235D01*
X687331Y23889D01*
X687427Y23556D01*
X687429Y23553D01*
X687429Y23550D01*
X687564Y23226D01*
X687700Y22898D01*
X687702Y22895D01*
X687703Y22893D01*
X687875Y22581D01*
X688045Y22274D01*
X688047Y22272D01*
X688048Y22269D01*
X688259Y21972D01*
X688457Y21693D01*
X688459Y21691D01*
X688461Y21689D01*
X688701Y21421D01*
X688932Y21162D01*
X688935Y21160D01*
X688936Y21158D01*
X689204Y20920D01*
X689464Y20688D01*
X689466Y20686D01*
X689468Y20684D01*
X689749Y20486D01*
X690045Y20276D01*
X690048Y20274D01*
X690050Y20273D01*
X690346Y20110D01*
X690669Y19932D01*
X690672Y19931D01*
X690674Y19929D01*
X690992Y19798D01*
X691327Y19660D01*
X691330Y19659D01*
X691333Y19658D01*
X691662Y19563D01*
X692012Y19463D01*
X692015Y19462D01*
X692017Y19462D01*
X692371Y19402D01*
X692714Y19344D01*
X692717Y19344D01*
X692720Y19343D01*
X693420Y19305D01*
X703580Y19305D01*
X703583Y19305D01*
X703586Y19305D01*
X703933Y19325D01*
X704291Y19345D01*
X704294Y19345D01*
X704297Y19345D01*
X704637Y19404D01*
X704994Y19464D01*
X704996Y19465D01*
X704999Y19465D01*
X705344Y19565D01*
X705678Y19661D01*
X705681Y19663D01*
X705684Y19663D01*
X706008Y19798D01*
X706336Y19934D01*
X706339Y19936D01*
X706341Y19937D01*
X706653Y20109D01*
X706960Y20279D01*
X706962Y20281D01*
X706965Y20282D01*
X707262Y20493D01*
X707541Y20691D01*
X707543Y20693D01*
X707545Y20695D01*
X707813Y20935D01*
X708072Y21166D01*
X708074Y21169D01*
X708076Y21170D01*
X708314Y21438D01*
X708546Y21698D01*
X708548Y21700D01*
X708550Y21702D01*
X708748Y21983D01*
X708958Y22279D01*
X708960Y22282D01*
X708961Y22284D01*
X709124Y22580D01*
X709302Y22903D01*
X709303Y22906D01*
X709305Y22908D01*
X709436Y23226D01*
X709574Y23561D01*
X709575Y23564D01*
X709576Y23567D01*
X709669Y23889D01*
X709771Y24246D01*
X709772Y24249D01*
X709772Y24251D01*
X709832Y24605D01*
X709890Y24948D01*
X709890Y24951D01*
X709891Y24954D01*
X709929Y25654D01*
X709929Y28179D01*
X712056Y33314D01*
X712353Y33610D01*
X712355Y33613D01*
X712357Y33615D01*
X712578Y33862D01*
X712828Y34142D01*
X712829Y34144D01*
X712831Y34146D01*
X713035Y34434D01*
X713240Y34723D01*
X713241Y34725D01*
X713243Y34728D01*
X713422Y35053D01*
X713584Y35346D01*
X713585Y35349D01*
X713587Y35352D01*
X713725Y35687D01*
X713857Y36005D01*
X713858Y36007D01*
X713859Y36010D01*
X713959Y36362D01*
X714054Y36689D01*
X714054Y36692D01*
X714055Y36695D01*
X714117Y37061D01*
X714173Y37392D01*
X714173Y37394D01*
X714173Y37397D01*
X714193Y37759D01*
X714212Y38103D01*
X714212Y38106D01*
X714212Y38109D01*
X714192Y38464D01*
X714172Y38814D01*
X714172Y38817D01*
X714172Y38820D01*
X714113Y39161D01*
X714052Y39516D01*
X714052Y39519D01*
X714051Y39522D01*
X713953Y39861D01*
X713855Y40201D01*
X713854Y40203D01*
X713853Y40206D01*
X713716Y40534D01*
X713582Y40859D01*
X713580Y40862D01*
X713579Y40864D01*
X713411Y41167D01*
X713237Y41482D01*
X713235Y41485D01*
X713234Y41487D01*
X713041Y41757D01*
X712824Y42063D01*
X712822Y42065D01*
X712820Y42067D01*
X712353Y42590D01*
X712056Y42886D01*
X709929Y48021D01*
X709929Y53579D01*
X712084Y58781D01*
X712228Y58942D01*
X712282Y59018D01*
X712342Y59089D01*
X712488Y59309D01*
X712641Y59523D01*
X712685Y59605D01*
X712737Y59682D01*
X712858Y59916D01*
X712985Y60147D01*
X713021Y60233D01*
X713063Y60315D01*
X713157Y60562D01*
X713258Y60805D01*
X713283Y60894D01*
X713316Y60981D01*
X713382Y61236D01*
X713455Y61490D01*
X713470Y61581D01*
X713493Y61671D01*
X713530Y61932D01*
X713574Y62192D01*
X713579Y62285D01*
X713592Y62377D01*
X713599Y62640D01*
X713613Y62904D01*
X713608Y62996D01*
X713611Y63089D01*
X713588Y63352D01*
X713573Y63615D01*
X713558Y63706D01*
X713550Y63799D01*
X713498Y64058D01*
X713453Y64317D01*
X713428Y64406D01*
X713409Y64497D01*
X713329Y64748D01*
X713256Y65002D01*
X713220Y65087D01*
X713192Y65176D01*
X713084Y65417D01*
X712983Y65660D01*
X712938Y65741D01*
X712900Y65826D01*
X712816Y65967D01*
X712567Y66569D01*
X712469Y67060D01*
X712469Y69851D01*
X723900Y69851D01*
X735331Y69851D01*
X735331Y67060D01*
X735233Y66569D01*
X734982Y65963D01*
X734895Y65815D01*
X734857Y65731D01*
X734812Y65649D01*
X734712Y65406D01*
X734604Y65165D01*
X734576Y65077D01*
X734540Y64991D01*
X734468Y64738D01*
X734388Y64486D01*
X734370Y64395D01*
X734344Y64306D01*
X734300Y64046D01*
X734249Y63788D01*
X734241Y63695D01*
X734226Y63604D01*
X734211Y63340D01*
X734189Y63078D01*
X734192Y62985D01*
X734187Y62892D01*
X734202Y62629D01*
X734209Y62366D01*
X734222Y62274D01*
X734228Y62181D01*
X734272Y61921D01*
X734309Y61660D01*
X734332Y61570D01*
X734348Y61479D01*
X734421Y61226D01*
X734487Y60970D01*
X734520Y60884D01*
X734546Y60795D01*
X734647Y60551D01*
X734742Y60305D01*
X734784Y60223D01*
X734820Y60137D01*
X734948Y59906D01*
X735069Y59672D01*
X735121Y59595D01*
X735166Y59514D01*
X735318Y59300D01*
X735465Y59080D01*
X735525Y59009D01*
X735579Y58934D01*
X735717Y58780D01*
X737871Y53579D01*
X737871Y48021D01*
X735744Y42886D01*
X735447Y42590D01*
X735445Y42588D01*
X735443Y42586D01*
X735203Y42316D01*
X734973Y42058D01*
X734971Y42056D01*
X734969Y42054D01*
X734759Y41757D01*
X734560Y41477D01*
X734559Y41475D01*
X734557Y41472D01*
X734376Y41144D01*
X734216Y40854D01*
X734215Y40851D01*
X734213Y40849D01*
X734075Y40513D01*
X733943Y40196D01*
X733943Y40193D01*
X733941Y40190D01*
X733845Y39855D01*
X733746Y39511D01*
X733746Y39508D01*
X733745Y39505D01*
X733685Y39152D01*
X733627Y38809D01*
X733627Y38806D01*
X733627Y38803D01*
X733607Y38441D01*
X733588Y38097D01*
X733588Y38094D01*
X733588Y38091D01*
X733608Y37737D01*
X733628Y37386D01*
X733628Y37383D01*
X733628Y37380D01*
X733689Y37025D01*
X733748Y36684D01*
X733748Y36681D01*
X733749Y36678D01*
X733852Y36323D01*
X733945Y35999D01*
X733946Y35997D01*
X733947Y35994D01*
X734083Y35666D01*
X734218Y35341D01*
X734220Y35339D01*
X734221Y35336D01*
X734389Y35033D01*
X734563Y34718D01*
X734565Y34716D01*
X734566Y34713D01*
X734770Y34427D01*
X734976Y34137D01*
X734978Y34135D01*
X734980Y34133D01*
X735447Y33610D01*
X735451Y33607D01*
X735451Y33606D01*
X735744Y33314D01*
X737871Y28179D01*
X737871Y22621D01*
X735744Y17486D01*
X734177Y15920D01*
X734176Y15919D01*
X734175Y15918D01*
X733924Y15636D01*
X733702Y15388D01*
X733702Y15387D01*
X733701Y15386D01*
X733479Y15073D01*
X733290Y14807D01*
X733290Y14806D01*
X733289Y14805D01*
X733110Y14482D01*
X732946Y14184D01*
X732945Y14182D01*
X732945Y14181D01*
X732796Y13823D01*
X732673Y13526D01*
X732673Y13524D01*
X732672Y13523D01*
X732567Y13155D01*
X732476Y12841D01*
X732476Y12840D01*
X732476Y12838D01*
X732415Y12479D01*
X732357Y12138D01*
X732357Y12137D01*
X732357Y12136D01*
X732337Y11783D01*
X732318Y11427D01*
X732318Y11426D01*
X732318Y11424D01*
X732337Y11085D01*
X732358Y10716D01*
X732358Y10714D01*
X732358Y10713D01*
X732413Y10390D01*
X732478Y10014D01*
X732478Y10012D01*
X732478Y10011D01*
X732572Y9687D01*
X732675Y9329D01*
X732676Y9328D01*
X732676Y9326D01*
X732812Y8998D01*
X732948Y8671D01*
X732949Y8670D01*
X732949Y8669D01*
X733137Y8330D01*
X733293Y8048D01*
X733294Y8047D01*
X733295Y8045D01*
X733495Y7764D01*
X733706Y7467D01*
X733707Y7466D01*
X733708Y7465D01*
X733923Y7225D01*
X734181Y6936D01*
X734182Y6935D01*
X734183Y6934D01*
X734429Y6715D01*
X734713Y6462D01*
X734714Y6461D01*
X734715Y6460D01*
X734992Y6264D01*
X735294Y6050D01*
X735296Y6050D01*
X735297Y6049D01*
X735586Y5890D01*
X735918Y5707D01*
X735920Y5706D01*
X735921Y5705D01*
X736221Y5581D01*
X736577Y5435D01*
X736578Y5434D01*
X736579Y5434D01*
X736888Y5345D01*
X737261Y5238D01*
X737263Y5238D01*
X737264Y5238D01*
X737627Y5177D01*
X737964Y5120D01*
X737965Y5120D01*
X737967Y5119D01*
X738667Y5081D01*
X750570Y5081D01*
X750573Y5081D01*
G37*
%LPC*%
G36*
X530368Y440689D02*
X530368Y440689D01*
X524767Y443010D01*
X520480Y447297D01*
X518159Y452898D01*
X518159Y458962D01*
X520480Y464563D01*
X523177Y467261D01*
X523377Y467485D01*
X523581Y467705D01*
X523614Y467750D01*
X523652Y467792D01*
X523826Y468038D01*
X524003Y468278D01*
X524031Y468327D01*
X524064Y468373D01*
X524209Y468636D01*
X524359Y468896D01*
X524381Y468948D01*
X524409Y468997D01*
X524523Y469274D01*
X524643Y469549D01*
X524660Y469603D01*
X524681Y469655D01*
X524764Y469943D01*
X524852Y470230D01*
X524863Y470286D01*
X524878Y470340D01*
X524928Y470635D01*
X524984Y470930D01*
X524988Y470987D01*
X524997Y471042D01*
X525014Y471341D01*
X525036Y471641D01*
X525034Y471697D01*
X525037Y471753D01*
X525020Y472053D01*
X525008Y472353D01*
X525000Y472408D01*
X524997Y472465D01*
X524946Y472761D01*
X524901Y473057D01*
X524886Y473111D01*
X524877Y473167D01*
X524794Y473455D01*
X524716Y473745D01*
X524695Y473797D01*
X524679Y473851D01*
X524564Y474128D01*
X524454Y474408D01*
X524428Y474457D01*
X524406Y474509D01*
X524260Y474773D01*
X524120Y475037D01*
X524088Y475084D01*
X524061Y475133D01*
X523898Y475362D01*
X523725Y475616D01*
X522817Y476799D01*
X522400Y477521D01*
X533400Y477521D01*
X544400Y477521D01*
X543983Y476799D01*
X543075Y475616D01*
X542906Y475368D01*
X542733Y475123D01*
X542706Y475074D01*
X542674Y475027D01*
X542534Y474763D01*
X542389Y474499D01*
X542367Y474447D01*
X542341Y474397D01*
X542232Y474118D01*
X542117Y473841D01*
X542101Y473786D01*
X542081Y473734D01*
X542003Y473444D01*
X541921Y473156D01*
X541911Y473100D01*
X541897Y473046D01*
X541852Y472750D01*
X541802Y472453D01*
X541799Y472397D01*
X541791Y472341D01*
X541780Y472042D01*
X541763Y471742D01*
X541766Y471686D01*
X541764Y471629D01*
X541787Y471331D01*
X541804Y471031D01*
X541814Y470975D01*
X541818Y470919D01*
X541874Y470624D01*
X541924Y470329D01*
X541940Y470274D01*
X541951Y470219D01*
X542039Y469933D01*
X542123Y469644D01*
X542144Y469592D01*
X542161Y469538D01*
X542281Y469264D01*
X542396Y468986D01*
X542424Y468937D01*
X542446Y468886D01*
X542596Y468626D01*
X542742Y468364D01*
X542775Y468318D01*
X542803Y468269D01*
X542982Y468027D01*
X543155Y467783D01*
X543193Y467741D01*
X543226Y467696D01*
X543418Y467490D01*
X543623Y467261D01*
X546320Y464563D01*
X546584Y463927D01*
X546585Y463926D01*
X546585Y463924D01*
X546745Y463592D01*
X546893Y463285D01*
X546894Y463284D01*
X546895Y463282D01*
X547091Y462971D01*
X547272Y462682D01*
X547273Y462681D01*
X547274Y462679D01*
X547508Y462386D01*
X547716Y462125D01*
X547717Y462124D01*
X547718Y462123D01*
X547968Y461874D01*
X548220Y461621D01*
X548222Y461620D01*
X548223Y461619D01*
X548459Y461431D01*
X548777Y461177D01*
X548779Y461176D01*
X548780Y461176D01*
X549066Y460996D01*
X549381Y460798D01*
X549382Y460798D01*
X549383Y460797D01*
X549681Y460654D01*
X550023Y460490D01*
X550024Y460489D01*
X550026Y460488D01*
X550356Y460373D01*
X550695Y460255D01*
X550697Y460254D01*
X550698Y460254D01*
X551018Y460181D01*
X551390Y460096D01*
X551392Y460096D01*
X551393Y460096D01*
X551745Y460057D01*
X552098Y460017D01*
X552099Y460017D01*
X552101Y460017D01*
X552494Y460017D01*
X552810Y460018D01*
X552812Y460018D01*
X552813Y460018D01*
X553210Y460063D01*
X553518Y460098D01*
X553519Y460098D01*
X553521Y460098D01*
X553896Y460184D01*
X554213Y460257D01*
X554214Y460257D01*
X554216Y460258D01*
X554544Y460373D01*
X554885Y460493D01*
X554886Y460493D01*
X554888Y460494D01*
X555210Y460650D01*
X555527Y460802D01*
X555528Y460803D01*
X555529Y460804D01*
X555825Y460990D01*
X556129Y461182D01*
X556131Y461183D01*
X556132Y461184D01*
X556399Y461398D01*
X556686Y461627D01*
X556687Y461628D01*
X556688Y461629D01*
X556937Y461878D01*
X557189Y462131D01*
X557190Y462132D01*
X557191Y462133D01*
X557430Y462434D01*
X557633Y462689D01*
X557633Y462690D01*
X557634Y462691D01*
X557826Y462997D01*
X558011Y463292D01*
X558012Y463294D01*
X558012Y463295D01*
X558316Y463927D01*
X558580Y464563D01*
X561277Y467261D01*
X561477Y467485D01*
X561681Y467705D01*
X561714Y467750D01*
X561752Y467792D01*
X561926Y468038D01*
X562103Y468278D01*
X562131Y468327D01*
X562164Y468373D01*
X562309Y468636D01*
X562459Y468896D01*
X562481Y468948D01*
X562509Y468997D01*
X562623Y469274D01*
X562743Y469549D01*
X562760Y469603D01*
X562781Y469655D01*
X562864Y469943D01*
X562952Y470230D01*
X562963Y470286D01*
X562978Y470340D01*
X563028Y470635D01*
X563084Y470930D01*
X563088Y470987D01*
X563097Y471042D01*
X563114Y471341D01*
X563136Y471641D01*
X563134Y471697D01*
X563137Y471753D01*
X563120Y472053D01*
X563108Y472353D01*
X563100Y472408D01*
X563097Y472465D01*
X563046Y472761D01*
X563001Y473057D01*
X562986Y473111D01*
X562977Y473167D01*
X562894Y473455D01*
X562816Y473745D01*
X562795Y473797D01*
X562779Y473851D01*
X562664Y474128D01*
X562554Y474408D01*
X562528Y474457D01*
X562506Y474509D01*
X562360Y474773D01*
X562220Y475037D01*
X562188Y475084D01*
X562161Y475133D01*
X561998Y475362D01*
X561825Y475616D01*
X560917Y476799D01*
X560500Y477521D01*
X571500Y477521D01*
X582500Y477521D01*
X582083Y476799D01*
X581175Y475616D01*
X581006Y475368D01*
X580833Y475123D01*
X580806Y475074D01*
X580774Y475027D01*
X580634Y474763D01*
X580489Y474499D01*
X580467Y474447D01*
X580441Y474397D01*
X580332Y474118D01*
X580217Y473841D01*
X580201Y473786D01*
X580181Y473734D01*
X580103Y473444D01*
X580021Y473156D01*
X580011Y473100D01*
X579997Y473046D01*
X579952Y472750D01*
X579902Y472453D01*
X579899Y472397D01*
X579891Y472341D01*
X579880Y472042D01*
X579863Y471742D01*
X579866Y471686D01*
X579864Y471629D01*
X579887Y471331D01*
X579904Y471031D01*
X579914Y470975D01*
X579918Y470919D01*
X579974Y470624D01*
X580024Y470329D01*
X580040Y470274D01*
X580051Y470219D01*
X580139Y469933D01*
X580223Y469644D01*
X580244Y469592D01*
X580261Y469538D01*
X580381Y469264D01*
X580496Y468986D01*
X580524Y468937D01*
X580546Y468886D01*
X580696Y468626D01*
X580842Y468364D01*
X580875Y468318D01*
X580903Y468269D01*
X581082Y468027D01*
X581255Y467783D01*
X581293Y467741D01*
X581326Y467696D01*
X581518Y467490D01*
X581723Y467261D01*
X584420Y464563D01*
X586741Y458962D01*
X586741Y452898D01*
X584420Y447297D01*
X580133Y443010D01*
X574532Y440689D01*
X568468Y440689D01*
X562867Y443010D01*
X558580Y447297D01*
X558316Y447933D01*
X558315Y447934D01*
X558315Y447936D01*
X558190Y448194D01*
X558007Y448575D01*
X558006Y448576D01*
X558005Y448578D01*
X557840Y448841D01*
X557628Y449178D01*
X557627Y449179D01*
X557626Y449181D01*
X557396Y449469D01*
X557183Y449735D01*
X557182Y449736D01*
X557181Y449737D01*
X556944Y449975D01*
X556680Y450239D01*
X556678Y450240D01*
X556677Y450241D01*
X556437Y450432D01*
X556122Y450683D01*
X556121Y450684D01*
X556120Y450685D01*
X555789Y450892D01*
X555519Y451062D01*
X555518Y451062D01*
X555517Y451063D01*
X555192Y451219D01*
X554877Y451370D01*
X554876Y451371D01*
X554874Y451372D01*
X554544Y451487D01*
X554205Y451605D01*
X554203Y451606D01*
X554202Y451606D01*
X553851Y451686D01*
X553510Y451764D01*
X553508Y451764D01*
X553507Y451764D01*
X553155Y451803D01*
X552802Y451843D01*
X552800Y451843D01*
X552799Y451843D01*
X552438Y451843D01*
X552089Y451842D01*
X552088Y451842D01*
X552087Y451842D01*
X551726Y451801D01*
X551382Y451762D01*
X551380Y451762D01*
X551379Y451762D01*
X551034Y451682D01*
X550687Y451603D01*
X550686Y451603D01*
X550684Y451602D01*
X550345Y451483D01*
X550015Y451367D01*
X550014Y451367D01*
X550012Y451366D01*
X549675Y451203D01*
X549373Y451057D01*
X549372Y451057D01*
X549371Y451056D01*
X549042Y450848D01*
X548771Y450678D01*
X548770Y450677D01*
X548768Y450676D01*
X548441Y450414D01*
X548214Y450233D01*
X548213Y450232D01*
X548212Y450231D01*
X547922Y449941D01*
X547711Y449729D01*
X547710Y449728D01*
X547709Y449727D01*
X547468Y449424D01*
X547267Y449171D01*
X547266Y449170D01*
X547266Y449169D01*
X547075Y448864D01*
X546889Y448568D01*
X546888Y448566D01*
X546888Y448565D01*
X546584Y447933D01*
X546320Y447297D01*
X542033Y443010D01*
X536432Y440689D01*
X530368Y440689D01*
G37*
%LPD*%
%LPC*%
G36*
X625734Y444064D02*
X625734Y444064D01*
X623867Y444838D01*
X622438Y446267D01*
X621664Y448134D01*
X621664Y466666D01*
X622438Y468533D01*
X624130Y470225D01*
X624291Y470405D01*
X624458Y470579D01*
X624528Y470670D01*
X624604Y470756D01*
X624744Y470953D01*
X624891Y471145D01*
X624950Y471243D01*
X625016Y471337D01*
X625133Y471549D01*
X625258Y471756D01*
X625305Y471860D01*
X625361Y471961D01*
X625454Y472184D01*
X625554Y472404D01*
X625590Y472513D01*
X625633Y472619D01*
X625700Y472851D01*
X625776Y473081D01*
X625799Y473193D01*
X625830Y473304D01*
X625871Y473542D01*
X625920Y473779D01*
X625930Y473893D01*
X625950Y474006D01*
X625963Y474247D01*
X625985Y474488D01*
X625983Y474603D01*
X625989Y474717D01*
X625976Y474959D01*
X625971Y475200D01*
X625955Y475314D01*
X625949Y475429D01*
X625908Y475667D01*
X625876Y475906D01*
X625849Y476018D01*
X625843Y476051D01*
X635000Y476051D01*
X644157Y476051D01*
X644149Y476007D01*
X644122Y475895D01*
X644090Y475655D01*
X644050Y475417D01*
X644043Y475303D01*
X644029Y475189D01*
X644024Y474947D01*
X644011Y474706D01*
X644017Y474591D01*
X644015Y474477D01*
X644038Y474236D01*
X644052Y473995D01*
X644071Y473882D01*
X644082Y473767D01*
X644131Y473531D01*
X644172Y473292D01*
X644204Y473182D01*
X644227Y473070D01*
X644303Y472840D01*
X644370Y472608D01*
X644414Y472502D01*
X644450Y472393D01*
X644551Y472174D01*
X644644Y471950D01*
X644700Y471850D01*
X644748Y471746D01*
X644872Y471539D01*
X644990Y471327D01*
X645056Y471234D01*
X645115Y471136D01*
X645263Y470944D01*
X645403Y470747D01*
X645480Y470661D01*
X645549Y470571D01*
X645709Y470405D01*
X645870Y470225D01*
X647562Y468533D01*
X648336Y466666D01*
X648336Y448134D01*
X647562Y446267D01*
X646133Y444838D01*
X644266Y444064D01*
X625734Y444064D01*
G37*
%LPD*%
%LPC*%
G36*
X162321Y417829D02*
X162321Y417829D01*
X157186Y419956D01*
X153256Y423886D01*
X151129Y429021D01*
X151129Y434579D01*
X153256Y439714D01*
X157186Y443644D01*
X162321Y445771D01*
X167879Y445771D01*
X173014Y443644D01*
X176944Y439714D01*
X179071Y434579D01*
X179071Y429021D01*
X176944Y423886D01*
X173014Y419956D01*
X167879Y417829D01*
X162321Y417829D01*
G37*
%LPD*%
%LPC*%
G36*
X378221Y417829D02*
X378221Y417829D01*
X373086Y419956D01*
X369156Y423886D01*
X367029Y429021D01*
X367029Y434579D01*
X369156Y439714D01*
X373086Y443644D01*
X378221Y445771D01*
X383779Y445771D01*
X388914Y443644D01*
X392844Y439714D01*
X394971Y434579D01*
X394971Y429021D01*
X392844Y423886D01*
X388914Y419956D01*
X383779Y417829D01*
X378221Y417829D01*
G37*
%LPD*%
%LPC*%
G36*
X721121Y417829D02*
X721121Y417829D01*
X715986Y419956D01*
X712056Y423886D01*
X709929Y429021D01*
X709929Y434579D01*
X712056Y439714D01*
X715986Y443644D01*
X721121Y445771D01*
X726679Y445771D01*
X731814Y443644D01*
X735744Y439714D01*
X737871Y434579D01*
X737871Y429021D01*
X735744Y423886D01*
X731814Y419956D01*
X726679Y417829D01*
X721121Y417829D01*
G37*
%LPD*%
%LPC*%
G36*
X325570Y446023D02*
X325570Y446023D01*
X319023Y452570D01*
X319023Y461830D01*
X325570Y468377D01*
X334830Y468377D01*
X341377Y461830D01*
X341377Y452570D01*
X334830Y446023D01*
X325570Y446023D01*
G37*
%LPD*%
%LPC*%
G36*
X641349Y387349D02*
X641349Y387349D01*
X641349Y392431D01*
X644140Y392431D01*
X644631Y392333D01*
X645094Y392142D01*
X645510Y391863D01*
X645863Y391510D01*
X646142Y391094D01*
X646333Y390631D01*
X646431Y390140D01*
X646431Y387349D01*
X641349Y387349D01*
G37*
%LPD*%
%LPC*%
G36*
X730249Y82549D02*
X730249Y82549D01*
X730249Y87631D01*
X733040Y87631D01*
X733531Y87533D01*
X733994Y87342D01*
X734410Y87063D01*
X734763Y86710D01*
X735042Y86294D01*
X735233Y85831D01*
X735331Y85340D01*
X735331Y82549D01*
X730249Y82549D01*
G37*
%LPD*%
%LPC*%
G36*
X730249Y184149D02*
X730249Y184149D01*
X730249Y189231D01*
X733040Y189231D01*
X733531Y189133D01*
X733994Y188942D01*
X734410Y188663D01*
X734763Y188310D01*
X735042Y187894D01*
X735233Y187431D01*
X735331Y186940D01*
X735331Y184149D01*
X730249Y184149D01*
G37*
%LPD*%
%LPC*%
G36*
X730249Y285749D02*
X730249Y285749D01*
X730249Y290831D01*
X733040Y290831D01*
X733531Y290733D01*
X733994Y290542D01*
X734410Y290263D01*
X734763Y289910D01*
X735042Y289494D01*
X735233Y289031D01*
X735331Y288540D01*
X735331Y285749D01*
X730249Y285749D01*
G37*
%LPD*%
%LPC*%
G36*
X679449Y285749D02*
X679449Y285749D01*
X679449Y290831D01*
X682240Y290831D01*
X682731Y290733D01*
X683194Y290542D01*
X683610Y290263D01*
X683963Y289910D01*
X684242Y289494D01*
X684433Y289031D01*
X684531Y288540D01*
X684531Y285749D01*
X679449Y285749D01*
G37*
%LPD*%
%LPC*%
G36*
X623569Y387349D02*
X623569Y387349D01*
X623569Y390140D01*
X623667Y390631D01*
X623858Y391094D01*
X624137Y391510D01*
X624490Y391863D01*
X624906Y392142D01*
X625369Y392333D01*
X625860Y392431D01*
X628651Y392431D01*
X628651Y387349D01*
X623569Y387349D01*
G37*
%LPD*%
%LPC*%
G36*
X712469Y82549D02*
X712469Y82549D01*
X712469Y85340D01*
X712567Y85831D01*
X712758Y86294D01*
X713037Y86710D01*
X713390Y87063D01*
X713806Y87342D01*
X714269Y87533D01*
X714760Y87631D01*
X717551Y87631D01*
X717551Y82549D01*
X712469Y82549D01*
G37*
%LPD*%
%LPC*%
G36*
X712469Y184149D02*
X712469Y184149D01*
X712469Y186940D01*
X712567Y187431D01*
X712758Y187894D01*
X713037Y188310D01*
X713390Y188663D01*
X713806Y188942D01*
X714269Y189133D01*
X714760Y189231D01*
X717551Y189231D01*
X717551Y184149D01*
X712469Y184149D01*
G37*
%LPD*%
%LPC*%
G36*
X712469Y285749D02*
X712469Y285749D01*
X712469Y288540D01*
X712567Y289031D01*
X712758Y289494D01*
X713037Y289910D01*
X713390Y290263D01*
X713806Y290542D01*
X714269Y290733D01*
X714760Y290831D01*
X717551Y290831D01*
X717551Y285749D01*
X712469Y285749D01*
G37*
%LPD*%
%LPC*%
G36*
X438149Y438149D02*
X438149Y438149D01*
X438149Y441333D01*
X438164Y441325D01*
X439353Y440412D01*
X440412Y439353D01*
X441325Y438164D01*
X441333Y438149D01*
X438149Y438149D01*
G37*
%LPD*%
%LPC*%
G36*
X730249Y387349D02*
X730249Y387349D01*
X730249Y390533D01*
X730264Y390525D01*
X731453Y389612D01*
X732512Y388553D01*
X733425Y387364D01*
X733433Y387349D01*
X730249Y387349D01*
G37*
%LPD*%
%LPC*%
G36*
X730249Y336549D02*
X730249Y336549D01*
X730249Y339733D01*
X730264Y339725D01*
X731453Y338812D01*
X732512Y337753D01*
X733425Y336564D01*
X733433Y336549D01*
X730249Y336549D01*
G37*
%LPD*%
%LPC*%
G36*
X422267Y438149D02*
X422267Y438149D01*
X422275Y438164D01*
X423188Y439353D01*
X424247Y440412D01*
X425436Y441325D01*
X425451Y441333D01*
X425451Y438149D01*
X422267Y438149D01*
G37*
%LPD*%
%LPC*%
G36*
X438149Y425451D02*
X438149Y425451D01*
X441333Y425451D01*
X441325Y425436D01*
X440412Y424247D01*
X439353Y423188D01*
X438164Y422275D01*
X438149Y422267D01*
X438149Y425451D01*
G37*
%LPD*%
%LPC*%
G36*
X714367Y387349D02*
X714367Y387349D01*
X714375Y387364D01*
X715288Y388553D01*
X716347Y389612D01*
X717536Y390525D01*
X717551Y390533D01*
X717551Y387349D01*
X714367Y387349D01*
G37*
%LPD*%
%LPC*%
G36*
X730249Y374651D02*
X730249Y374651D01*
X733433Y374651D01*
X733425Y374636D01*
X732512Y373447D01*
X731453Y372388D01*
X730264Y371475D01*
X730249Y371467D01*
X730249Y374651D01*
G37*
%LPD*%
%LPC*%
G36*
X714367Y336549D02*
X714367Y336549D01*
X714375Y336564D01*
X715288Y337753D01*
X716347Y338812D01*
X717536Y339725D01*
X717551Y339733D01*
X717551Y336549D01*
X714367Y336549D01*
G37*
%LPD*%
%LPC*%
G36*
X730249Y323851D02*
X730249Y323851D01*
X733433Y323851D01*
X733425Y323836D01*
X732512Y322647D01*
X731453Y321588D01*
X730264Y320675D01*
X730249Y320667D01*
X730249Y323851D01*
G37*
%LPD*%
%LPC*%
G36*
X171449Y476251D02*
X171449Y476251D01*
X174633Y476251D01*
X174625Y476236D01*
X173712Y475047D01*
X172653Y473988D01*
X171464Y473075D01*
X171449Y473067D01*
X171449Y476251D01*
G37*
%LPD*%
%LPC*%
G36*
X425436Y422275D02*
X425436Y422275D01*
X424247Y423188D01*
X423188Y424247D01*
X422275Y425436D01*
X422267Y425451D01*
X425451Y425451D01*
X425451Y422267D01*
X425436Y422275D01*
G37*
%LPD*%
%LPC*%
G36*
X158736Y473075D02*
X158736Y473075D01*
X157547Y473988D01*
X156488Y475047D01*
X155575Y476236D01*
X155567Y476251D01*
X158751Y476251D01*
X158751Y473067D01*
X158736Y473075D01*
G37*
%LPD*%
%LPC*%
G36*
X717536Y320675D02*
X717536Y320675D01*
X716347Y321588D01*
X715288Y322647D01*
X714375Y323836D01*
X714367Y323851D01*
X717551Y323851D01*
X717551Y320667D01*
X717536Y320675D01*
G37*
%LPD*%
%LPC*%
G36*
X717536Y371475D02*
X717536Y371475D01*
X716347Y372388D01*
X715288Y373447D01*
X714375Y374636D01*
X714367Y374651D01*
X717551Y374651D01*
X717551Y371467D01*
X717536Y371475D01*
G37*
%LPD*%
%LPC*%
G36*
X641349Y488749D02*
X641349Y488749D01*
X641349Y491136D01*
X642134Y490534D01*
X643134Y489533D01*
X643736Y488749D01*
X641349Y488749D01*
G37*
%LPD*%
%LPC*%
G36*
X626264Y488749D02*
X626264Y488749D01*
X626866Y489533D01*
X627866Y490534D01*
X628651Y491136D01*
X628651Y488749D01*
X626264Y488749D01*
G37*
%LPD*%
D10*
X165100Y482600D03*
X165100Y431800D03*
X431800Y431800D03*
X381000Y431800D03*
X38100Y139700D03*
X38100Y88900D03*
X38100Y38100D03*
X38100Y190500D03*
X38100Y355600D03*
X38100Y304800D03*
X38100Y254000D03*
X38100Y406400D03*
X723900Y381000D03*
X723900Y431800D03*
X723900Y482600D03*
X723900Y330200D03*
D11*
X673100Y279400D03*
D10*
X673100Y254000D03*
X673100Y228600D03*
D11*
X673100Y76200D03*
D10*
X673100Y50800D03*
X673100Y25400D03*
D11*
X673100Y177800D03*
D10*
X673100Y152400D03*
X673100Y127000D03*
D12*
X330200Y381000D03*
X330200Y457200D03*
D11*
X635000Y381000D03*
D10*
X635000Y355600D03*
X635000Y330200D03*
D13*
X571500Y455930D03*
X571500Y483870D03*
X533400Y455930D03*
X533400Y483870D03*
D14*
X635000Y482400D03*
D15*
X635000Y457400D03*
D16*
X228600Y375920D02*
X228600Y360680D01*
X254000Y360680D02*
X254000Y375920D01*
X279400Y375920D02*
X279400Y360680D01*
D11*
X723900Y76200D03*
D10*
X723900Y50800D03*
X723900Y25400D03*
D11*
X723900Y177800D03*
D10*
X723900Y152400D03*
X723900Y127000D03*
D11*
X723900Y279400D03*
D10*
X723900Y254000D03*
X723900Y228600D03*
D17*
X381000Y482600D02*
X165100Y482600D01*
X381000Y482600D02*
X431800Y431800D01*
X382270Y483870D02*
X533400Y483870D01*
X382270Y483870D02*
X381000Y482600D01*
X533400Y483870D02*
X570230Y483870D01*
X571500Y483870D02*
X633730Y483870D01*
X635000Y482600D01*
X635000Y482400D01*
X609600Y444500D02*
X723900Y330200D01*
X609600Y444500D02*
X570230Y483870D01*
X609600Y406400D02*
X635000Y381000D01*
X609600Y406400D02*
X609600Y444500D01*
X723900Y330200D02*
X736600Y317500D01*
X749300Y292100D02*
X736600Y279400D01*
X749300Y292100D02*
X749300Y304800D01*
X736600Y279400D02*
X673100Y279400D01*
X673100Y177800D02*
X733933Y177800D01*
X733933Y76200D02*
X673100Y76200D01*
X736600Y368300D02*
X723900Y381000D01*
X736600Y317500D02*
X749300Y304800D01*
X736600Y317500D02*
X736600Y368300D01*
D18*
X756666Y259334D02*
X756666Y206576D01*
X756666Y104976D01*
X756666Y259334D02*
X736600Y279400D01*
X756666Y104976D02*
X733933Y76200D01*
X733933Y177800D02*
X756666Y206576D01*
D19*
X736600Y279400D02*
X723900Y279400D01*
D18*
X711200Y12700D02*
X63500Y12700D01*
X38100Y38100D01*
X711200Y12700D02*
X723900Y25400D01*
D17*
X330200Y381000D02*
X317500Y368300D01*
X279400Y368300D01*
D18*
X139700Y203200D02*
X38100Y304800D01*
X139700Y203200D02*
X698500Y203200D01*
X711200Y215900D02*
X723900Y228600D01*
X711200Y215900D02*
X698500Y203200D01*
X215900Y101600D02*
X38100Y254000D01*
X215900Y101600D02*
X698500Y101600D01*
X723900Y127000D01*
M02*
