G04 EAGLE Gerber RS-274X export*
G75*
%MOMM*%
%FSLAX34Y34*%
%LPD*%
%INTop Copper*%
%IPPOS*%
%AMOC8*
5,1,8,0,0,1.08239X$1,22.5*%
G01*
%ADD10C,1.778000*%
%ADD11R,1.778000X1.778000*%
%ADD12P,1.319650X8X112.500000*%
%ADD13C,2.032000*%
%ADD14C,1.651000*%
%ADD15R,1.651000X1.651000*%
%ADD16C,1.524000*%
%ADD17C,1.270000*%
%ADD18C,0.609600*%
%ADD19C,0.508000*%
%ADD20C,0.406400*%
%ADD21C,0.304800*%

G36*
X705456Y6605D02*
X705456Y6605D01*
X705458Y6605D01*
X705818Y6625D01*
X706165Y6645D01*
X706167Y6645D01*
X706169Y6645D01*
X706529Y6707D01*
X706868Y6764D01*
X706870Y6765D01*
X706872Y6765D01*
X707235Y6870D01*
X707552Y6961D01*
X707554Y6962D01*
X707556Y6963D01*
X707897Y7104D01*
X708210Y7234D01*
X708212Y7235D01*
X708214Y7236D01*
X708527Y7410D01*
X708834Y7579D01*
X708835Y7580D01*
X708837Y7581D01*
X709142Y7798D01*
X709415Y7991D01*
X709416Y7993D01*
X709418Y7994D01*
X709693Y8241D01*
X709946Y8466D01*
X709947Y8468D01*
X709949Y8469D01*
X710180Y8729D01*
X710420Y8998D01*
X710421Y9000D01*
X710423Y9001D01*
X710621Y9282D01*
X710832Y9579D01*
X710833Y9581D01*
X710834Y9583D01*
X711008Y9899D01*
X711176Y10203D01*
X711177Y10205D01*
X711178Y10207D01*
X711311Y10529D01*
X711448Y10861D01*
X711449Y10863D01*
X711450Y10865D01*
X711543Y11192D01*
X711645Y11546D01*
X711645Y11548D01*
X711646Y11550D01*
X711705Y11898D01*
X711764Y12248D01*
X711764Y12250D01*
X711764Y12253D01*
X711784Y12610D01*
X711803Y12960D01*
X711803Y12962D01*
X711803Y12964D01*
X711783Y13311D01*
X711763Y13671D01*
X711762Y13673D01*
X711762Y13675D01*
X711699Y14041D01*
X711643Y14373D01*
X711642Y14375D01*
X711642Y14377D01*
X711546Y14706D01*
X711445Y15058D01*
X711444Y15060D01*
X711443Y15062D01*
X711307Y15388D01*
X711171Y15715D01*
X711170Y15717D01*
X711169Y15719D01*
X711048Y15939D01*
X708405Y22318D01*
X708405Y28482D01*
X710858Y34403D01*
X710876Y34429D01*
X711084Y34723D01*
X711086Y34725D01*
X711088Y34728D01*
X711262Y35045D01*
X711429Y35346D01*
X711430Y35349D01*
X711432Y35352D01*
X711564Y35673D01*
X711701Y36005D01*
X711702Y36008D01*
X711703Y36010D01*
X711799Y36345D01*
X711898Y36689D01*
X711899Y36692D01*
X711900Y36695D01*
X711960Y37051D01*
X712018Y37392D01*
X712018Y37394D01*
X712018Y37398D01*
X712038Y37763D01*
X712057Y38103D01*
X712057Y38106D01*
X712057Y38109D01*
X712037Y38460D01*
X712017Y38814D01*
X712016Y38817D01*
X712016Y38820D01*
X711958Y39160D01*
X711897Y39516D01*
X711896Y39519D01*
X711896Y39522D01*
X711799Y39858D01*
X711700Y40201D01*
X711698Y40204D01*
X711698Y40207D01*
X711569Y40516D01*
X711426Y40859D01*
X711425Y40862D01*
X711424Y40864D01*
X711259Y41161D01*
X711081Y41482D01*
X711080Y41485D01*
X711078Y41487D01*
X710876Y41772D01*
X710858Y41797D01*
X708405Y47718D01*
X708405Y53882D01*
X709913Y57523D01*
X709973Y57694D01*
X710043Y57863D01*
X710091Y58031D01*
X710149Y58196D01*
X710189Y58373D01*
X710239Y58548D01*
X710268Y58720D01*
X710307Y58890D01*
X710327Y59071D01*
X710358Y59250D01*
X710367Y59424D01*
X710387Y59598D01*
X710387Y59780D01*
X710397Y59961D01*
X710387Y60136D01*
X710387Y60310D01*
X710366Y60491D01*
X710356Y60673D01*
X710326Y60845D01*
X710307Y61018D01*
X710266Y61196D01*
X710235Y61375D01*
X710187Y61543D01*
X710148Y61713D01*
X710088Y61884D01*
X710037Y62059D01*
X709970Y62220D01*
X709912Y62385D01*
X709833Y62549D01*
X709793Y62646D01*
X708405Y65996D01*
X708405Y86404D01*
X709411Y88831D01*
X711269Y90689D01*
X713696Y91695D01*
X734104Y91695D01*
X736531Y90689D01*
X738389Y88831D01*
X739395Y86404D01*
X739395Y65996D01*
X738034Y62711D01*
X738032Y62707D01*
X737962Y62539D01*
X737883Y62375D01*
X737826Y62210D01*
X737759Y62048D01*
X737709Y61874D01*
X737649Y61702D01*
X737610Y61531D01*
X737562Y61364D01*
X737532Y61185D01*
X737491Y61007D01*
X737472Y60834D01*
X737443Y60661D01*
X737433Y60480D01*
X737413Y60299D01*
X737413Y60124D01*
X737403Y59950D01*
X737414Y59769D01*
X737414Y59587D01*
X737434Y59413D01*
X737444Y59239D01*
X737474Y59059D01*
X737495Y58879D01*
X737534Y58709D01*
X737563Y58536D01*
X737614Y58361D01*
X737655Y58185D01*
X737713Y58017D01*
X737761Y57852D01*
X737827Y57692D01*
X737887Y57523D01*
X739395Y53882D01*
X739395Y47718D01*
X736942Y41797D01*
X736917Y41761D01*
X736716Y41478D01*
X736714Y41475D01*
X736713Y41472D01*
X736535Y41151D01*
X736371Y40854D01*
X736370Y40851D01*
X736369Y40849D01*
X736220Y40490D01*
X736099Y40196D01*
X736098Y40193D01*
X736097Y40190D01*
X735992Y39824D01*
X735902Y39511D01*
X735901Y39508D01*
X735900Y39505D01*
X735837Y39129D01*
X735783Y38809D01*
X735782Y38806D01*
X735782Y38803D01*
X735761Y38429D01*
X735743Y38097D01*
X735743Y38094D01*
X735743Y38091D01*
X735764Y37721D01*
X735783Y37386D01*
X735784Y37383D01*
X735784Y37380D01*
X735843Y37036D01*
X735903Y36684D01*
X735904Y36681D01*
X735904Y36678D01*
X736008Y36320D01*
X736100Y35999D01*
X736101Y35997D01*
X736102Y35994D01*
X736241Y35661D01*
X736373Y35341D01*
X736375Y35339D01*
X736376Y35336D01*
X736542Y35037D01*
X736718Y34718D01*
X736720Y34716D01*
X736722Y34713D01*
X736942Y34404D01*
X739395Y28482D01*
X739395Y22318D01*
X736752Y15937D01*
X736626Y15709D01*
X736625Y15707D01*
X736624Y15705D01*
X736484Y15367D01*
X736353Y15051D01*
X736352Y15049D01*
X736352Y15047D01*
X736253Y14702D01*
X736156Y14366D01*
X736155Y14364D01*
X736155Y14362D01*
X736096Y14014D01*
X736037Y13664D01*
X736036Y13662D01*
X736036Y13660D01*
X736017Y13305D01*
X735997Y12952D01*
X735997Y12950D01*
X735997Y12948D01*
X736016Y12611D01*
X736037Y12241D01*
X736037Y12239D01*
X736037Y12237D01*
X736091Y11925D01*
X736156Y11539D01*
X736157Y11537D01*
X736157Y11535D01*
X736248Y11221D01*
X736354Y10854D01*
X736355Y10852D01*
X736355Y10850D01*
X736486Y10536D01*
X736627Y10196D01*
X736628Y10194D01*
X736629Y10193D01*
X736797Y9888D01*
X736972Y9573D01*
X736973Y9571D01*
X736974Y9569D01*
X737165Y9300D01*
X737384Y8992D01*
X737386Y8990D01*
X737387Y8989D01*
X737611Y8739D01*
X737860Y8461D01*
X737861Y8460D01*
X737863Y8458D01*
X738138Y8212D01*
X738391Y7987D01*
X738393Y7986D01*
X738394Y7984D01*
X738692Y7774D01*
X738972Y7575D01*
X738974Y7574D01*
X738976Y7573D01*
X739275Y7408D01*
X739596Y7231D01*
X739598Y7230D01*
X739600Y7229D01*
X739904Y7104D01*
X740255Y6959D01*
X740257Y6958D01*
X740259Y6958D01*
X740587Y6864D01*
X740939Y6763D01*
X740941Y6762D01*
X740944Y6762D01*
X741297Y6702D01*
X741642Y6644D01*
X741644Y6644D01*
X741646Y6643D01*
X742346Y6605D01*
X749046Y6605D01*
X749049Y6605D01*
X749052Y6605D01*
X749399Y6625D01*
X749757Y6645D01*
X749760Y6645D01*
X749763Y6645D01*
X750103Y6704D01*
X750460Y6764D01*
X750462Y6765D01*
X750465Y6765D01*
X750810Y6865D01*
X751144Y6961D01*
X751147Y6963D01*
X751150Y6963D01*
X751474Y7098D01*
X751802Y7234D01*
X751805Y7236D01*
X751807Y7237D01*
X752119Y7409D01*
X752426Y7579D01*
X752428Y7581D01*
X752431Y7582D01*
X752728Y7793D01*
X753007Y7991D01*
X753009Y7993D01*
X753011Y7995D01*
X753279Y8235D01*
X753538Y8466D01*
X753540Y8469D01*
X753542Y8470D01*
X753780Y8738D01*
X754012Y8998D01*
X754014Y9000D01*
X754016Y9002D01*
X754214Y9283D01*
X754424Y9579D01*
X754426Y9582D01*
X754427Y9584D01*
X754590Y9880D01*
X754768Y10203D01*
X754769Y10206D01*
X754771Y10208D01*
X754902Y10526D01*
X755040Y10861D01*
X755041Y10864D01*
X755042Y10867D01*
X755137Y11196D01*
X755237Y11546D01*
X755238Y11549D01*
X755238Y11551D01*
X755298Y11905D01*
X755356Y12248D01*
X755356Y12251D01*
X755357Y12254D01*
X755395Y12954D01*
X755395Y495046D01*
X755395Y495049D01*
X755395Y495052D01*
X755375Y495399D01*
X755355Y495757D01*
X755355Y495760D01*
X755355Y495763D01*
X755301Y496079D01*
X755236Y496460D01*
X755235Y496462D01*
X755235Y496465D01*
X755135Y496810D01*
X755039Y497144D01*
X755037Y497147D01*
X755037Y497150D01*
X754904Y497468D01*
X754766Y497802D01*
X754764Y497805D01*
X754763Y497807D01*
X754591Y498118D01*
X754421Y498426D01*
X754419Y498428D01*
X754418Y498431D01*
X754211Y498721D01*
X754009Y499007D01*
X754007Y499009D01*
X754005Y499011D01*
X753774Y499269D01*
X753534Y499538D01*
X753531Y499540D01*
X753530Y499542D01*
X753269Y499774D01*
X753002Y500012D01*
X753000Y500014D01*
X752998Y500016D01*
X752717Y500214D01*
X752421Y500424D01*
X752418Y500426D01*
X752416Y500427D01*
X752120Y500590D01*
X751797Y500768D01*
X751794Y500769D01*
X751792Y500771D01*
X751474Y500902D01*
X751139Y501040D01*
X751136Y501041D01*
X751133Y501042D01*
X750804Y501137D01*
X750454Y501237D01*
X750451Y501238D01*
X750449Y501238D01*
X750095Y501298D01*
X749752Y501356D01*
X749749Y501356D01*
X749746Y501357D01*
X749046Y501395D01*
X736599Y501395D01*
X736597Y501395D01*
X736596Y501395D01*
X736247Y501375D01*
X735887Y501355D01*
X735886Y501355D01*
X735884Y501355D01*
X735523Y501293D01*
X735185Y501236D01*
X735184Y501236D01*
X735182Y501235D01*
X734808Y501127D01*
X734500Y501039D01*
X734499Y501038D01*
X734498Y501038D01*
X734170Y500902D01*
X733842Y500766D01*
X733841Y500765D01*
X733840Y500764D01*
X733530Y500593D01*
X733219Y500421D01*
X733218Y500420D01*
X733216Y500419D01*
X732844Y500155D01*
X732638Y500009D01*
X732637Y500008D01*
X732636Y500007D01*
X732341Y499743D01*
X732107Y499534D01*
X732106Y499532D01*
X732105Y499531D01*
X731871Y499269D01*
X731633Y499002D01*
X731632Y499001D01*
X731631Y499000D01*
X731433Y498721D01*
X731221Y498421D01*
X731220Y498420D01*
X731219Y498418D01*
X731039Y498091D01*
X730876Y497797D01*
X730876Y497796D01*
X730875Y497794D01*
X730715Y497406D01*
X730604Y497139D01*
X730604Y497137D01*
X730603Y497136D01*
X730505Y496795D01*
X730408Y496454D01*
X730407Y496452D01*
X730407Y496451D01*
X730348Y496100D01*
X730289Y495752D01*
X730289Y495750D01*
X730288Y495749D01*
X730266Y495340D01*
X730249Y495040D01*
X730250Y495039D01*
X730249Y495037D01*
X730272Y494647D01*
X730290Y494329D01*
X730290Y494328D01*
X730290Y494326D01*
X730363Y493900D01*
X730410Y493627D01*
X730410Y493625D01*
X730411Y493624D01*
X730518Y493255D01*
X730608Y492942D01*
X730609Y492941D01*
X730609Y492940D01*
X730744Y492616D01*
X730881Y492285D01*
X730882Y492283D01*
X730883Y492282D01*
X731057Y491967D01*
X731227Y491661D01*
X731228Y491660D01*
X731228Y491659D01*
X731445Y491354D01*
X731640Y491081D01*
X731641Y491080D01*
X731642Y491079D01*
X732109Y490556D01*
X732513Y490153D01*
X733425Y488964D01*
X733433Y488949D01*
X723900Y488949D01*
X714367Y488949D01*
X714375Y488964D01*
X715287Y490153D01*
X715691Y490556D01*
X715692Y490557D01*
X715693Y490558D01*
X715919Y490812D01*
X716166Y491088D01*
X716166Y491089D01*
X716167Y491090D01*
X716367Y491372D01*
X716578Y491669D01*
X716578Y491670D01*
X716579Y491671D01*
X716752Y491984D01*
X716922Y492292D01*
X716923Y492294D01*
X716924Y492295D01*
X717063Y492633D01*
X717195Y492950D01*
X717195Y492952D01*
X717196Y492953D01*
X717301Y493319D01*
X717392Y493635D01*
X717392Y493636D01*
X717392Y493638D01*
X717449Y493972D01*
X717511Y494337D01*
X717511Y494339D01*
X717511Y494340D01*
X717529Y494659D01*
X717551Y495049D01*
X717550Y495050D01*
X717551Y495052D01*
X717531Y495392D01*
X717510Y495760D01*
X717510Y495762D01*
X717510Y495763D01*
X717458Y496070D01*
X717391Y496462D01*
X717390Y496464D01*
X717390Y496465D01*
X717299Y496781D01*
X717193Y497147D01*
X717192Y497148D01*
X717192Y497150D01*
X717062Y497463D01*
X716920Y497805D01*
X716919Y497806D01*
X716919Y497807D01*
X716747Y498118D01*
X716575Y498428D01*
X716574Y498429D01*
X716573Y498431D01*
X716373Y498712D01*
X716162Y499009D01*
X716161Y499010D01*
X716160Y499011D01*
X715929Y499269D01*
X715687Y499540D01*
X715686Y499541D01*
X715685Y499542D01*
X715416Y499781D01*
X715155Y500014D01*
X715154Y500015D01*
X715153Y500016D01*
X714866Y500219D01*
X714574Y500425D01*
X714573Y500426D01*
X714571Y500427D01*
X714288Y500583D01*
X713950Y500769D01*
X713948Y500770D01*
X713947Y500771D01*
X713660Y500889D01*
X713292Y501041D01*
X713290Y501042D01*
X713289Y501042D01*
X712971Y501133D01*
X712607Y501238D01*
X712605Y501238D01*
X712604Y501238D01*
X712242Y501299D01*
X711904Y501356D01*
X711903Y501356D01*
X711901Y501357D01*
X711201Y501395D01*
X652348Y501395D01*
X652346Y501395D01*
X652345Y501395D01*
X651994Y501375D01*
X651637Y501355D01*
X651635Y501355D01*
X651634Y501355D01*
X651272Y501293D01*
X650934Y501236D01*
X650933Y501236D01*
X650931Y501235D01*
X650547Y501124D01*
X650250Y501039D01*
X650249Y501038D01*
X650247Y501038D01*
X649898Y500893D01*
X649592Y500766D01*
X649590Y500765D01*
X649589Y500764D01*
X649265Y500585D01*
X648968Y500421D01*
X648967Y500420D01*
X648966Y500419D01*
X648649Y500194D01*
X648387Y500009D01*
X648386Y500008D01*
X648385Y500007D01*
X648106Y499757D01*
X647856Y499534D01*
X647855Y499532D01*
X647854Y499531D01*
X647612Y499259D01*
X647382Y499002D01*
X647381Y499001D01*
X647380Y499000D01*
X647176Y498712D01*
X646970Y498421D01*
X646969Y498420D01*
X646968Y498418D01*
X646788Y498091D01*
X646626Y497797D01*
X646625Y497796D01*
X646624Y497794D01*
X646464Y497406D01*
X646354Y497139D01*
X646353Y497137D01*
X646353Y497136D01*
X646255Y496795D01*
X646157Y496454D01*
X646157Y496452D01*
X646156Y496451D01*
X646097Y496100D01*
X646038Y495752D01*
X646038Y495750D01*
X646038Y495749D01*
X646015Y495340D01*
X645999Y495040D01*
X645999Y495039D01*
X645999Y495037D01*
X646021Y494645D01*
X646039Y494329D01*
X646040Y494328D01*
X646040Y494326D01*
X646113Y493900D01*
X646159Y493627D01*
X646160Y493626D01*
X646160Y493624D01*
X646267Y493255D01*
X646357Y492942D01*
X646358Y492941D01*
X646358Y492940D01*
X646499Y492600D01*
X646631Y492285D01*
X646631Y492283D01*
X646632Y492282D01*
X646800Y491978D01*
X646976Y491661D01*
X646977Y491660D01*
X646978Y491659D01*
X647191Y491359D01*
X647389Y491081D01*
X647390Y491080D01*
X647391Y491079D01*
X647574Y490874D01*
X649860Y485356D01*
X649860Y479444D01*
X647598Y473983D01*
X647032Y473417D01*
X646911Y473282D01*
X646782Y473153D01*
X646674Y473016D01*
X646558Y472886D01*
X646452Y472738D01*
X646339Y472595D01*
X646246Y472448D01*
X646145Y472305D01*
X646057Y472146D01*
X645961Y471992D01*
X645885Y471834D01*
X645801Y471682D01*
X645731Y471514D01*
X645652Y471349D01*
X645595Y471184D01*
X645528Y471023D01*
X645478Y470849D01*
X645418Y470677D01*
X645380Y470506D01*
X645331Y470339D01*
X645301Y470160D01*
X645261Y469982D01*
X645241Y469808D01*
X645212Y469636D01*
X645202Y469455D01*
X645182Y469274D01*
X645182Y469099D01*
X645173Y468925D01*
X645183Y468743D01*
X645183Y468561D01*
X645203Y468388D01*
X645213Y468214D01*
X645243Y468034D01*
X645264Y467854D01*
X645303Y467683D01*
X645333Y467511D01*
X645383Y467337D01*
X645424Y467159D01*
X645483Y466992D01*
X645530Y466827D01*
X645597Y466667D01*
X645656Y466498D01*
X645698Y466396D01*
X645796Y465905D01*
X645796Y463749D01*
X635000Y463749D01*
X624204Y463749D01*
X624204Y465905D01*
X624302Y466396D01*
X624344Y466498D01*
X624404Y466670D01*
X624474Y466838D01*
X624522Y467006D01*
X624579Y467170D01*
X624620Y467347D01*
X624670Y467523D01*
X624699Y467695D01*
X624738Y467865D01*
X624758Y468046D01*
X624788Y468225D01*
X624798Y468399D01*
X624818Y468573D01*
X624817Y468755D01*
X624827Y468936D01*
X624817Y469111D01*
X624817Y469285D01*
X624797Y469466D01*
X624787Y469648D01*
X624757Y469819D01*
X624737Y469993D01*
X624697Y470171D01*
X624666Y470350D01*
X624618Y470517D01*
X624579Y470688D01*
X624518Y470860D01*
X624468Y471034D01*
X624401Y471195D01*
X624343Y471360D01*
X624264Y471524D01*
X624194Y471692D01*
X624110Y471844D01*
X624034Y472002D01*
X623937Y472156D01*
X623849Y472315D01*
X623747Y472457D01*
X623654Y472605D01*
X623541Y472747D01*
X623435Y472895D01*
X623317Y473028D01*
X623210Y473161D01*
X623087Y473284D01*
X622968Y473417D01*
X622402Y473983D01*
X620140Y479444D01*
X620140Y485356D01*
X622426Y490875D01*
X622616Y491088D01*
X622617Y491089D01*
X622618Y491090D01*
X622851Y491418D01*
X623028Y491669D01*
X623029Y491670D01*
X623030Y491671D01*
X623203Y491984D01*
X623373Y492292D01*
X623374Y492294D01*
X623374Y492295D01*
X623514Y492633D01*
X623645Y492950D01*
X623646Y492952D01*
X623646Y492953D01*
X623752Y493319D01*
X623842Y493635D01*
X623843Y493636D01*
X623843Y493638D01*
X623900Y493972D01*
X623962Y494337D01*
X623962Y494339D01*
X623962Y494340D01*
X623980Y494659D01*
X624001Y495049D01*
X624001Y495050D01*
X624001Y495052D01*
X623982Y495392D01*
X623961Y495760D01*
X623961Y495762D01*
X623961Y495763D01*
X623907Y496079D01*
X623841Y496462D01*
X623841Y496464D01*
X623841Y496465D01*
X623747Y496789D01*
X623644Y497147D01*
X623643Y497148D01*
X623643Y497150D01*
X623510Y497468D01*
X623371Y497805D01*
X623370Y497806D01*
X623369Y497807D01*
X623197Y498118D01*
X623026Y498428D01*
X623025Y498429D01*
X623024Y498431D01*
X622834Y498698D01*
X622613Y499009D01*
X622612Y499010D01*
X622611Y499011D01*
X622408Y499238D01*
X622138Y499540D01*
X622137Y499541D01*
X622136Y499542D01*
X621859Y499788D01*
X621606Y500014D01*
X621605Y500015D01*
X621604Y500016D01*
X621314Y500220D01*
X621025Y500425D01*
X621023Y500426D01*
X621022Y500427D01*
X620715Y500596D01*
X620401Y500769D01*
X620399Y500770D01*
X620398Y500771D01*
X620064Y500909D01*
X619742Y501041D01*
X619741Y501042D01*
X619739Y501042D01*
X619399Y501140D01*
X619057Y501238D01*
X619056Y501238D01*
X619055Y501238D01*
X618705Y501297D01*
X618355Y501356D01*
X618354Y501356D01*
X618352Y501357D01*
X617652Y501395D01*
X591889Y501395D01*
X591709Y501385D01*
X591529Y501385D01*
X591354Y501365D01*
X591178Y501355D01*
X591000Y501325D01*
X590821Y501305D01*
X590649Y501265D01*
X590475Y501236D01*
X590302Y501186D01*
X590126Y501146D01*
X589960Y501087D01*
X589791Y501039D01*
X589625Y500970D01*
X589454Y500910D01*
X589296Y500833D01*
X589133Y500766D01*
X588975Y500678D01*
X588812Y500600D01*
X588663Y500506D01*
X588509Y500421D01*
X588363Y500317D01*
X588210Y500220D01*
X588072Y500110D01*
X587929Y500009D01*
X587794Y499889D01*
X587653Y499776D01*
X587529Y499651D01*
X587397Y499534D01*
X587277Y499399D01*
X587150Y499271D01*
X587040Y499134D01*
X586923Y499002D01*
X586819Y498855D01*
X586706Y498714D01*
X586613Y498565D01*
X586511Y498421D01*
X586424Y498263D01*
X586328Y498110D01*
X586252Y497952D01*
X586167Y497797D01*
X586098Y497630D01*
X586020Y497468D01*
X585962Y497302D01*
X585895Y497139D01*
X585845Y496965D01*
X585786Y496795D01*
X585747Y496623D01*
X585698Y496454D01*
X585668Y496276D01*
X585628Y496100D01*
X585609Y495925D01*
X585579Y495752D01*
X585569Y495572D01*
X585549Y495392D01*
X585550Y495216D01*
X585540Y495040D01*
X585550Y494860D01*
X585550Y494680D01*
X585570Y494505D01*
X585580Y494329D01*
X585611Y494151D01*
X585631Y493972D01*
X585671Y493800D01*
X585701Y493627D01*
X585751Y493454D01*
X585791Y493278D01*
X585850Y493109D01*
X585898Y492942D01*
X585964Y492784D01*
X586023Y492616D01*
X588265Y487205D01*
X588265Y480535D01*
X585712Y474374D01*
X582659Y471320D01*
X582458Y471096D01*
X582255Y470876D01*
X582221Y470830D01*
X582184Y470788D01*
X582010Y470543D01*
X581832Y470302D01*
X581804Y470253D01*
X581772Y470207D01*
X581627Y469945D01*
X581477Y469685D01*
X581454Y469633D01*
X581427Y469584D01*
X581312Y469307D01*
X581193Y469031D01*
X581176Y468978D01*
X581155Y468925D01*
X581072Y468637D01*
X580984Y468350D01*
X580973Y468295D01*
X580958Y468241D01*
X580908Y467946D01*
X580852Y467650D01*
X580848Y467594D01*
X580839Y467538D01*
X580822Y467240D01*
X580800Y466939D01*
X580802Y466883D01*
X580799Y466827D01*
X580816Y466527D01*
X580828Y466228D01*
X580836Y466172D01*
X580839Y466116D01*
X580890Y465820D01*
X580935Y465523D01*
X580949Y465469D01*
X580959Y465414D01*
X581042Y465125D01*
X581120Y464835D01*
X581141Y464783D01*
X581157Y464729D01*
X581272Y464452D01*
X581382Y464173D01*
X581408Y464123D01*
X581430Y464071D01*
X581575Y463808D01*
X581716Y463543D01*
X581748Y463497D01*
X581775Y463448D01*
X581937Y463219D01*
X582066Y463030D01*
X582500Y462279D01*
X571500Y462279D01*
X560500Y462279D01*
X560934Y463031D01*
X561058Y463212D01*
X561231Y463458D01*
X561259Y463507D01*
X561290Y463553D01*
X561430Y463818D01*
X561575Y464081D01*
X561597Y464134D01*
X561623Y464183D01*
X561733Y464462D01*
X561847Y464740D01*
X561863Y464794D01*
X561883Y464846D01*
X561961Y465136D01*
X562044Y465425D01*
X562053Y465480D01*
X562068Y465534D01*
X562112Y465830D01*
X562162Y466127D01*
X562165Y466183D01*
X562174Y466239D01*
X562185Y466538D01*
X562201Y466839D01*
X562198Y466895D01*
X562200Y466951D01*
X562177Y467250D01*
X562160Y467550D01*
X562151Y467605D01*
X562146Y467661D01*
X562091Y467956D01*
X562040Y468252D01*
X562024Y468306D01*
X562014Y468361D01*
X561925Y468647D01*
X561842Y468936D01*
X561820Y468988D01*
X561803Y469042D01*
X561684Y469316D01*
X561568Y469594D01*
X561541Y469643D01*
X561518Y469695D01*
X561368Y469955D01*
X561222Y470217D01*
X561190Y470263D01*
X561162Y470311D01*
X560983Y470553D01*
X560809Y470797D01*
X560771Y470840D01*
X560738Y470884D01*
X560547Y471090D01*
X560341Y471320D01*
X556940Y474722D01*
X556937Y474723D01*
X556936Y474726D01*
X556674Y474959D01*
X556408Y475196D01*
X556406Y475198D01*
X556404Y475200D01*
X556118Y475402D01*
X555827Y475608D01*
X555825Y475610D01*
X555822Y475611D01*
X555504Y475787D01*
X555204Y475953D01*
X555201Y475954D01*
X555199Y475955D01*
X554857Y476096D01*
X554545Y476225D01*
X554543Y476226D01*
X554540Y476227D01*
X554193Y476327D01*
X553861Y476422D01*
X553858Y476423D01*
X553855Y476424D01*
X553488Y476486D01*
X553158Y476542D01*
X553156Y476542D01*
X553153Y476542D01*
X552786Y476562D01*
X552447Y476581D01*
X552444Y476581D01*
X552441Y476581D01*
X552091Y476561D01*
X551736Y476541D01*
X551733Y476540D01*
X551730Y476540D01*
X551390Y476482D01*
X551034Y476421D01*
X551031Y476420D01*
X551028Y476420D01*
X550680Y476319D01*
X550349Y476224D01*
X550347Y476222D01*
X550344Y476222D01*
X550011Y476083D01*
X549691Y475950D01*
X549689Y475949D01*
X549686Y475948D01*
X549386Y475781D01*
X549068Y475605D01*
X549065Y475604D01*
X549063Y475602D01*
X548775Y475397D01*
X548487Y475193D01*
X548485Y475191D01*
X548483Y475189D01*
X547960Y474722D01*
X544558Y471320D01*
X544359Y471096D01*
X544154Y470875D01*
X544121Y470830D01*
X544084Y470788D01*
X543910Y470543D01*
X543732Y470302D01*
X543704Y470253D01*
X543672Y470207D01*
X543527Y469945D01*
X543376Y469684D01*
X543354Y469633D01*
X543327Y469584D01*
X543212Y469306D01*
X543092Y469031D01*
X543076Y468977D01*
X543055Y468925D01*
X542972Y468637D01*
X542883Y468350D01*
X542873Y468295D01*
X542858Y468241D01*
X542807Y467945D01*
X542752Y467650D01*
X542748Y467594D01*
X542738Y467538D01*
X542722Y467238D01*
X542700Y466939D01*
X542702Y466883D01*
X542699Y466827D01*
X542716Y466527D01*
X542728Y466227D01*
X542736Y466172D01*
X542739Y466116D01*
X542790Y465818D01*
X542835Y465523D01*
X542849Y465469D01*
X542859Y465414D01*
X542942Y465125D01*
X543020Y464835D01*
X543041Y464783D01*
X543056Y464729D01*
X543172Y464452D01*
X543282Y464172D01*
X543308Y464123D01*
X543330Y464071D01*
X543475Y463808D01*
X543616Y463543D01*
X543648Y463497D01*
X543675Y463448D01*
X543837Y463220D01*
X543966Y463030D01*
X544400Y462279D01*
X533400Y462279D01*
X522400Y462279D01*
X522834Y463031D01*
X522958Y463213D01*
X523131Y463458D01*
X523159Y463507D01*
X523190Y463554D01*
X523330Y463819D01*
X523475Y464081D01*
X523497Y464134D01*
X523523Y464183D01*
X523633Y464462D01*
X523747Y464740D01*
X523763Y464794D01*
X523783Y464847D01*
X523861Y465136D01*
X523944Y465425D01*
X523953Y465480D01*
X523968Y465535D01*
X524012Y465831D01*
X524062Y466127D01*
X524065Y466184D01*
X524074Y466239D01*
X524085Y466539D01*
X524101Y466839D01*
X524098Y466895D01*
X524100Y466951D01*
X524077Y467251D01*
X524060Y467550D01*
X524051Y467605D01*
X524046Y467662D01*
X523991Y467956D01*
X523940Y468252D01*
X523924Y468306D01*
X523914Y468362D01*
X523825Y468648D01*
X523742Y468936D01*
X523720Y468988D01*
X523703Y469042D01*
X523583Y469317D01*
X523468Y469594D01*
X523440Y469644D01*
X523418Y469695D01*
X523268Y469954D01*
X523122Y470217D01*
X523090Y470263D01*
X523061Y470312D01*
X522883Y470553D01*
X522709Y470797D01*
X522671Y470840D01*
X522638Y470885D01*
X522448Y471089D01*
X522241Y471320D01*
X519188Y474374D01*
X516635Y480535D01*
X516635Y487205D01*
X518877Y492616D01*
X518936Y492787D01*
X519005Y492953D01*
X519054Y493122D01*
X519112Y493289D01*
X519152Y493465D01*
X519202Y493638D01*
X519231Y493811D01*
X519271Y493983D01*
X519291Y494163D01*
X519321Y494340D01*
X519330Y494516D01*
X519350Y494691D01*
X519350Y494872D01*
X519360Y495052D01*
X519350Y495228D01*
X519350Y495404D01*
X519330Y495583D01*
X519320Y495763D01*
X519290Y495936D01*
X519270Y496112D01*
X519230Y496288D01*
X519199Y496465D01*
X519151Y496634D01*
X519111Y496806D01*
X519052Y496976D01*
X519002Y497150D01*
X518934Y497312D01*
X518876Y497478D01*
X518797Y497641D01*
X518728Y497807D01*
X518643Y497962D01*
X518566Y498120D01*
X518470Y498273D01*
X518383Y498431D01*
X518281Y498574D01*
X518187Y498723D01*
X518074Y498864D01*
X517970Y499011D01*
X517852Y499142D01*
X517742Y499280D01*
X517615Y499407D01*
X517494Y499542D01*
X517363Y499659D01*
X517238Y499783D01*
X517097Y499896D01*
X516963Y500016D01*
X516819Y500117D01*
X516681Y500227D01*
X516528Y500323D01*
X516381Y500427D01*
X516227Y500512D01*
X516078Y500606D01*
X515915Y500684D01*
X515757Y500771D01*
X515594Y500838D01*
X515435Y500914D01*
X515265Y500974D01*
X515098Y501042D01*
X514929Y501091D01*
X514763Y501149D01*
X514587Y501189D01*
X514413Y501238D01*
X514240Y501268D01*
X514068Y501307D01*
X513889Y501327D01*
X513711Y501357D01*
X513532Y501366D01*
X513360Y501386D01*
X513188Y501385D01*
X513011Y501395D01*
X183546Y501395D01*
X183544Y501395D01*
X183542Y501395D01*
X183182Y501375D01*
X182835Y501355D01*
X182833Y501355D01*
X182831Y501355D01*
X182471Y501293D01*
X182132Y501236D01*
X182130Y501235D01*
X182128Y501235D01*
X181765Y501130D01*
X181448Y501039D01*
X181446Y501038D01*
X181444Y501037D01*
X181103Y500896D01*
X180790Y500766D01*
X180788Y500765D01*
X180786Y500764D01*
X180473Y500590D01*
X180166Y500421D01*
X180165Y500420D01*
X180163Y500419D01*
X179858Y500202D01*
X179585Y500009D01*
X179584Y500007D01*
X179582Y500006D01*
X179307Y499759D01*
X179054Y499534D01*
X179053Y499532D01*
X179051Y499531D01*
X178818Y499269D01*
X178580Y499002D01*
X178579Y499000D01*
X178577Y498999D01*
X178379Y498718D01*
X178168Y498421D01*
X178167Y498419D01*
X178166Y498417D01*
X177986Y498091D01*
X177824Y497797D01*
X177823Y497795D01*
X177822Y497793D01*
X177688Y497468D01*
X177552Y497139D01*
X177551Y497137D01*
X177550Y497135D01*
X177453Y496795D01*
X177355Y496454D01*
X177355Y496452D01*
X177354Y496450D01*
X177295Y496100D01*
X177236Y495752D01*
X177236Y495750D01*
X177236Y495747D01*
X177216Y495390D01*
X177197Y495040D01*
X177197Y495038D01*
X177197Y495036D01*
X177218Y494670D01*
X177237Y494329D01*
X177238Y494327D01*
X177238Y494325D01*
X177304Y493938D01*
X177357Y493627D01*
X177358Y493625D01*
X177358Y493623D01*
X177465Y493255D01*
X177555Y492942D01*
X177556Y492940D01*
X177557Y492938D01*
X177694Y492609D01*
X177829Y492285D01*
X177830Y492283D01*
X177831Y492281D01*
X177952Y492061D01*
X180595Y485682D01*
X180595Y479518D01*
X178236Y473823D01*
X173877Y469464D01*
X168182Y467105D01*
X162018Y467105D01*
X156323Y469464D01*
X151964Y473823D01*
X149605Y479518D01*
X149605Y485682D01*
X152248Y492063D01*
X152374Y492291D01*
X152375Y492293D01*
X152376Y492295D01*
X152516Y492633D01*
X152647Y492949D01*
X152648Y492951D01*
X152648Y492953D01*
X152747Y493298D01*
X152844Y493634D01*
X152845Y493636D01*
X152845Y493638D01*
X152902Y493972D01*
X152963Y494336D01*
X152964Y494338D01*
X152964Y494340D01*
X152983Y494691D01*
X153003Y495048D01*
X153003Y495050D01*
X153003Y495052D01*
X152984Y495389D01*
X152963Y495759D01*
X152963Y495761D01*
X152963Y495763D01*
X152910Y496070D01*
X152844Y496461D01*
X152843Y496463D01*
X152843Y496465D01*
X152752Y496779D01*
X152646Y497146D01*
X152645Y497148D01*
X152645Y497150D01*
X152514Y497464D01*
X152373Y497804D01*
X152372Y497806D01*
X152371Y497807D01*
X152204Y498108D01*
X152028Y498427D01*
X152027Y498429D01*
X152026Y498431D01*
X151835Y498700D01*
X151616Y499008D01*
X151614Y499010D01*
X151613Y499011D01*
X151389Y499261D01*
X151140Y499539D01*
X151139Y499540D01*
X151137Y499542D01*
X150862Y499788D01*
X150609Y500013D01*
X150607Y500014D01*
X150606Y500016D01*
X150316Y500220D01*
X150028Y500425D01*
X150026Y500426D01*
X150024Y500427D01*
X149725Y500592D01*
X149404Y500769D01*
X149402Y500770D01*
X149400Y500771D01*
X149096Y500896D01*
X148745Y501041D01*
X148743Y501042D01*
X148741Y501042D01*
X148413Y501136D01*
X148061Y501237D01*
X148059Y501238D01*
X148056Y501238D01*
X147703Y501298D01*
X147358Y501356D01*
X147356Y501356D01*
X147354Y501357D01*
X146654Y501395D01*
X139700Y501395D01*
X139697Y501395D01*
X139694Y501395D01*
X139347Y501375D01*
X138989Y501355D01*
X138986Y501355D01*
X138983Y501355D01*
X138643Y501296D01*
X138286Y501236D01*
X138284Y501235D01*
X138281Y501235D01*
X137936Y501135D01*
X137602Y501039D01*
X137599Y501037D01*
X137596Y501037D01*
X137272Y500902D01*
X136944Y500766D01*
X136941Y500764D01*
X136939Y500763D01*
X136627Y500591D01*
X136320Y500421D01*
X136318Y500419D01*
X136315Y500418D01*
X136018Y500207D01*
X135739Y500009D01*
X135737Y500007D01*
X135735Y500005D01*
X135467Y499765D01*
X135208Y499534D01*
X135206Y499531D01*
X135204Y499530D01*
X134966Y499262D01*
X134734Y499002D01*
X134732Y499000D01*
X134730Y498998D01*
X134532Y498717D01*
X134322Y498421D01*
X134321Y498418D01*
X134319Y498416D01*
X134149Y498108D01*
X133978Y497797D01*
X133977Y497794D01*
X133975Y497792D01*
X133842Y497468D01*
X133706Y497139D01*
X133705Y497136D01*
X133704Y497133D01*
X133607Y496795D01*
X133509Y496454D01*
X133508Y496451D01*
X133508Y496449D01*
X133448Y496095D01*
X133390Y495752D01*
X133390Y495749D01*
X133389Y495746D01*
X133351Y495046D01*
X133351Y393700D01*
X133351Y393697D01*
X133351Y393694D01*
X133371Y393340D01*
X133391Y392989D01*
X133391Y392986D01*
X133391Y392983D01*
X133451Y392632D01*
X133510Y392286D01*
X133511Y392284D01*
X133511Y392281D01*
X133611Y391936D01*
X133707Y391602D01*
X133709Y391599D01*
X133709Y391596D01*
X133847Y391265D01*
X133980Y390944D01*
X133982Y390941D01*
X133983Y390939D01*
X134162Y390615D01*
X134325Y390320D01*
X134327Y390318D01*
X134328Y390315D01*
X134539Y390018D01*
X134738Y389739D01*
X134739Y389737D01*
X134741Y389735D01*
X134984Y389464D01*
X135212Y389208D01*
X135215Y389207D01*
X135216Y389204D01*
X135490Y388961D01*
X135744Y388734D01*
X135746Y388732D01*
X135748Y388730D01*
X136029Y388532D01*
X136325Y388322D01*
X136328Y388320D01*
X136330Y388319D01*
X136626Y388156D01*
X136949Y387978D01*
X136952Y387977D01*
X136954Y387975D01*
X137272Y387844D01*
X137607Y387706D01*
X137610Y387705D01*
X137613Y387704D01*
X137942Y387610D01*
X138292Y387509D01*
X138295Y387508D01*
X138298Y387508D01*
X138651Y387448D01*
X138994Y387390D01*
X138997Y387390D01*
X139000Y387389D01*
X139700Y387351D01*
X217762Y387351D01*
X217945Y387361D01*
X218128Y387361D01*
X218301Y387381D01*
X218474Y387391D01*
X218654Y387421D01*
X218836Y387442D01*
X219005Y387481D01*
X219176Y387510D01*
X219352Y387561D01*
X219531Y387602D01*
X219697Y387660D01*
X219860Y387707D01*
X220022Y387774D01*
X220192Y387834D01*
X225771Y390145D01*
X231429Y390145D01*
X237008Y387834D01*
X237181Y387774D01*
X237350Y387704D01*
X237517Y387656D01*
X237680Y387599D01*
X237859Y387558D01*
X238035Y387508D01*
X238206Y387479D01*
X238375Y387440D01*
X238557Y387420D01*
X238738Y387389D01*
X238913Y387380D01*
X239083Y387361D01*
X239258Y387361D01*
X239438Y387351D01*
X268562Y387351D01*
X268745Y387361D01*
X268928Y387361D01*
X269101Y387381D01*
X269274Y387391D01*
X269454Y387421D01*
X269636Y387442D01*
X269805Y387481D01*
X269976Y387510D01*
X270152Y387561D01*
X270331Y387602D01*
X270497Y387660D01*
X270660Y387707D01*
X270822Y387774D01*
X270992Y387834D01*
X276571Y390145D01*
X282229Y390145D01*
X287808Y387834D01*
X287981Y387774D01*
X288150Y387704D01*
X288317Y387656D01*
X288480Y387599D01*
X288659Y387558D01*
X288835Y387508D01*
X289006Y387479D01*
X289175Y387440D01*
X289357Y387420D01*
X289538Y387389D01*
X289713Y387380D01*
X289883Y387361D01*
X290058Y387361D01*
X290238Y387351D01*
X315959Y387351D01*
X315964Y387351D01*
X315968Y387351D01*
X316321Y387371D01*
X316671Y387391D01*
X316675Y387391D01*
X316679Y387392D01*
X317030Y387452D01*
X317373Y387510D01*
X317377Y387511D01*
X317381Y387512D01*
X317733Y387614D01*
X318057Y387707D01*
X318061Y387709D01*
X318066Y387710D01*
X318392Y387846D01*
X318716Y387980D01*
X318720Y387982D01*
X318723Y387984D01*
X319030Y388154D01*
X319339Y388325D01*
X319342Y388327D01*
X319346Y388330D01*
X319645Y388542D01*
X319920Y388738D01*
X319923Y388740D01*
X319927Y388743D01*
X320449Y389210D01*
X324939Y393701D01*
X335461Y393701D01*
X342901Y386261D01*
X342901Y375739D01*
X339181Y372019D01*
X339179Y372017D01*
X339177Y372015D01*
X338938Y371748D01*
X338706Y371488D01*
X338705Y371486D01*
X338702Y371484D01*
X338492Y371186D01*
X338294Y370907D01*
X338292Y370904D01*
X338291Y370902D01*
X338117Y370588D01*
X337949Y370283D01*
X337948Y370281D01*
X337947Y370278D01*
X337815Y369960D01*
X337677Y369625D01*
X337676Y369622D01*
X337675Y369620D01*
X337581Y369292D01*
X337480Y368941D01*
X337479Y368938D01*
X337479Y368935D01*
X337414Y368551D01*
X337361Y368238D01*
X337361Y368235D01*
X337360Y368232D01*
X337340Y367868D01*
X337321Y367527D01*
X337321Y367524D01*
X337321Y367521D01*
X337341Y367169D01*
X337361Y366816D01*
X337362Y366813D01*
X337362Y366810D01*
X337421Y366464D01*
X337481Y366113D01*
X337482Y366110D01*
X337482Y366108D01*
X337586Y365750D01*
X337679Y365429D01*
X337680Y365426D01*
X337681Y365423D01*
X337819Y365091D01*
X337952Y364771D01*
X337953Y364768D01*
X337954Y364766D01*
X338125Y364458D01*
X338297Y364148D01*
X338299Y364145D01*
X338300Y364143D01*
X338503Y363858D01*
X338710Y363567D01*
X338712Y363565D01*
X338713Y363562D01*
X339181Y363040D01*
X351110Y351110D01*
X351114Y351108D01*
X351116Y351104D01*
X351379Y350870D01*
X351642Y350636D01*
X351645Y350633D01*
X351648Y350630D01*
X351933Y350429D01*
X352223Y350224D01*
X352226Y350221D01*
X352230Y350219D01*
X352540Y350048D01*
X352846Y349879D01*
X352850Y349877D01*
X352854Y349875D01*
X353179Y349741D01*
X353505Y349607D01*
X353509Y349605D01*
X353513Y349604D01*
X353841Y349510D01*
X354189Y349409D01*
X354194Y349409D01*
X354198Y349408D01*
X354545Y349349D01*
X354892Y349290D01*
X354896Y349290D01*
X354900Y349289D01*
X355600Y349251D01*
X594270Y349251D01*
X598506Y345014D01*
X598510Y345012D01*
X598512Y345008D01*
X598782Y344768D01*
X599038Y344540D01*
X599041Y344537D01*
X599044Y344534D01*
X599337Y344328D01*
X599619Y344127D01*
X599622Y344125D01*
X599626Y344123D01*
X599931Y343955D01*
X600242Y343783D01*
X600246Y343781D01*
X600250Y343779D01*
X600567Y343649D01*
X600901Y343510D01*
X600905Y343509D01*
X600909Y343508D01*
X601241Y343413D01*
X601585Y343313D01*
X601589Y343313D01*
X601594Y343312D01*
X601948Y343252D01*
X602288Y343194D01*
X602292Y343194D01*
X602296Y343193D01*
X602996Y343155D01*
X618280Y343155D01*
X618460Y343165D01*
X618641Y343165D01*
X618816Y343185D01*
X618991Y343195D01*
X619169Y343225D01*
X619349Y343245D01*
X619520Y343285D01*
X619694Y343314D01*
X619867Y343364D01*
X620043Y343404D01*
X620209Y343463D01*
X620378Y343511D01*
X620545Y343580D01*
X620716Y343640D01*
X620874Y343717D01*
X621036Y343784D01*
X621195Y343872D01*
X621357Y343950D01*
X621506Y344044D01*
X621660Y344129D01*
X621807Y344233D01*
X621960Y344330D01*
X622098Y344440D01*
X622241Y344541D01*
X622375Y344662D01*
X622516Y344775D01*
X622641Y344899D01*
X622772Y345016D01*
X622892Y345151D01*
X623020Y345279D01*
X623129Y345417D01*
X623246Y345548D01*
X623351Y345695D01*
X623463Y345836D01*
X623556Y345985D01*
X623658Y346129D01*
X623746Y346288D01*
X623841Y346440D01*
X623917Y346599D01*
X624002Y346753D01*
X624071Y346920D01*
X624150Y347082D01*
X624207Y347248D01*
X624275Y347411D01*
X624324Y347585D01*
X624384Y347755D01*
X624423Y347927D01*
X624471Y348096D01*
X624501Y348274D01*
X624541Y348450D01*
X624561Y348625D01*
X624590Y348798D01*
X624600Y348979D01*
X624620Y349158D01*
X624620Y349251D01*
X635000Y349251D01*
X644533Y349251D01*
X644528Y349241D01*
X644419Y349026D01*
X644303Y348815D01*
X644259Y348708D01*
X644206Y348605D01*
X644123Y348379D01*
X644031Y348156D01*
X643999Y348045D01*
X643959Y347937D01*
X643901Y347703D01*
X643834Y347471D01*
X643815Y347357D01*
X643787Y347245D01*
X643756Y347006D01*
X643716Y346769D01*
X643710Y346653D01*
X643694Y346539D01*
X643690Y346298D01*
X643677Y346057D01*
X643683Y345942D01*
X643681Y345827D01*
X643704Y345587D01*
X643718Y345346D01*
X643737Y345232D01*
X643748Y345117D01*
X643797Y344882D01*
X643838Y344644D01*
X643870Y344533D01*
X643894Y344420D01*
X643969Y344191D01*
X644036Y343960D01*
X644081Y343853D01*
X644117Y343743D01*
X644218Y343524D01*
X644310Y343302D01*
X644366Y343201D01*
X644414Y343096D01*
X644539Y342890D01*
X644656Y342679D01*
X644723Y342585D01*
X644782Y342486D01*
X644929Y342295D01*
X645069Y342099D01*
X645147Y342011D01*
X645216Y341921D01*
X645376Y341756D01*
X645537Y341576D01*
X648136Y338977D01*
X650495Y333282D01*
X650495Y327118D01*
X648136Y321423D01*
X643777Y317064D01*
X640309Y315628D01*
X640146Y315549D01*
X639980Y315480D01*
X639825Y315395D01*
X639667Y315318D01*
X639514Y315223D01*
X639356Y315135D01*
X639212Y315033D01*
X639064Y314939D01*
X638923Y314827D01*
X638776Y314722D01*
X638645Y314605D01*
X638507Y314495D01*
X638379Y314367D01*
X638245Y314247D01*
X638128Y314116D01*
X638003Y313991D01*
X637891Y313850D01*
X637771Y313715D01*
X637669Y313572D01*
X637559Y313434D01*
X637463Y313281D01*
X637359Y313134D01*
X637274Y312980D01*
X637180Y312831D01*
X637102Y312669D01*
X637015Y312510D01*
X636948Y312347D01*
X636871Y312189D01*
X636812Y312019D01*
X636743Y311852D01*
X636694Y311682D01*
X636636Y311516D01*
X636596Y311340D01*
X636547Y311167D01*
X636517Y310993D01*
X636478Y310821D01*
X636458Y310642D01*
X636428Y310464D01*
X636419Y310288D01*
X636399Y310114D01*
X636399Y309933D01*
X636389Y309753D01*
X636399Y309577D01*
X636399Y309401D01*
X636420Y309222D01*
X636430Y309042D01*
X636460Y308868D01*
X636480Y308693D01*
X636520Y308517D01*
X636550Y308340D01*
X636600Y308170D01*
X636639Y307999D01*
X636698Y307829D01*
X636749Y307655D01*
X636816Y307493D01*
X636875Y307327D01*
X636953Y307164D01*
X637022Y306998D01*
X637108Y306844D01*
X637184Y306685D01*
X637280Y306532D01*
X637368Y306375D01*
X637470Y306231D01*
X637564Y306082D01*
X637677Y305941D01*
X637781Y305794D01*
X637901Y305661D01*
X638009Y305526D01*
X638130Y305404D01*
X638249Y305272D01*
X650561Y292960D01*
X650563Y292958D01*
X650565Y292956D01*
X650830Y292720D01*
X651092Y292486D01*
X651094Y292484D01*
X651096Y292482D01*
X651382Y292279D01*
X651673Y292073D01*
X651675Y292072D01*
X651678Y292070D01*
X652001Y291892D01*
X652296Y291729D01*
X652299Y291728D01*
X652302Y291726D01*
X652644Y291585D01*
X652955Y291456D01*
X652957Y291456D01*
X652960Y291454D01*
X653307Y291355D01*
X653639Y291259D01*
X653642Y291259D01*
X653645Y291258D01*
X654012Y291196D01*
X654342Y291140D01*
X654344Y291140D01*
X654347Y291140D01*
X654714Y291120D01*
X655053Y291101D01*
X655056Y291101D01*
X655059Y291101D01*
X655409Y291121D01*
X655764Y291141D01*
X655767Y291141D01*
X655770Y291142D01*
X656110Y291200D01*
X656467Y291261D01*
X656469Y291261D01*
X656472Y291262D01*
X656820Y291363D01*
X657151Y291458D01*
X657153Y291459D01*
X657156Y291460D01*
X657489Y291599D01*
X657809Y291731D01*
X657812Y291733D01*
X657814Y291734D01*
X658115Y291900D01*
X658432Y292076D01*
X658435Y292078D01*
X658437Y292079D01*
X658725Y292285D01*
X659013Y292489D01*
X659015Y292491D01*
X659017Y292493D01*
X659540Y292960D01*
X660469Y293889D01*
X662896Y294895D01*
X683304Y294895D01*
X685731Y293889D01*
X687589Y292031D01*
X688595Y289604D01*
X688595Y269196D01*
X687589Y266769D01*
X685352Y264532D01*
X685231Y264396D01*
X685103Y264267D01*
X684994Y264131D01*
X684878Y264001D01*
X684772Y263852D01*
X684659Y263710D01*
X684566Y263562D01*
X684466Y263420D01*
X684378Y263261D01*
X684281Y263106D01*
X684205Y262949D01*
X684121Y262796D01*
X684051Y262628D01*
X683973Y262464D01*
X683915Y262299D01*
X683849Y262138D01*
X683798Y261963D01*
X683738Y261791D01*
X683700Y261621D01*
X683652Y261453D01*
X683621Y261274D01*
X683581Y261096D01*
X683562Y260923D01*
X683532Y260751D01*
X683522Y260569D01*
X683502Y260388D01*
X683502Y260349D01*
X673100Y260349D01*
X673097Y260349D01*
X673095Y260349D01*
X672747Y260330D01*
X672389Y260309D01*
X672386Y260309D01*
X672383Y260309D01*
X672043Y260251D01*
X671687Y260190D01*
X671684Y260189D01*
X671681Y260189D01*
X671336Y260089D01*
X671002Y259993D01*
X671000Y259992D01*
X670997Y259991D01*
X670673Y259856D01*
X670344Y259720D01*
X670341Y259718D01*
X670339Y259717D01*
X670027Y259545D01*
X669721Y259375D01*
X669718Y259374D01*
X669716Y259372D01*
X669411Y259155D01*
X669140Y258963D01*
X669138Y258961D01*
X669135Y258959D01*
X668859Y258711D01*
X668609Y258488D01*
X668607Y258486D01*
X668605Y258484D01*
X668366Y258216D01*
X668134Y257956D01*
X668133Y257954D01*
X668131Y257952D01*
X667932Y257671D01*
X667722Y257375D01*
X667721Y257372D01*
X667719Y257370D01*
X667554Y257069D01*
X667378Y256751D01*
X667377Y256749D01*
X667376Y256746D01*
X667244Y256428D01*
X667106Y256093D01*
X667105Y256090D01*
X667104Y256088D01*
X667009Y255757D01*
X666909Y255408D01*
X666909Y255405D01*
X666908Y255403D01*
X666848Y255049D01*
X666790Y254706D01*
X666790Y254703D01*
X666790Y254700D01*
X666751Y254000D01*
X666751Y253997D01*
X666751Y253994D01*
X666772Y253628D01*
X666791Y253289D01*
X666792Y253286D01*
X666792Y253283D01*
X666850Y252942D01*
X666910Y252586D01*
X666911Y252583D01*
X666912Y252581D01*
X667012Y252234D01*
X667108Y251902D01*
X667109Y251899D01*
X667110Y251896D01*
X667246Y251568D01*
X667381Y251244D01*
X667382Y251241D01*
X667383Y251238D01*
X667557Y250925D01*
X667725Y250620D01*
X667727Y250618D01*
X667728Y250615D01*
X667940Y250318D01*
X668138Y250039D01*
X668140Y250037D01*
X668141Y250035D01*
X668381Y249767D01*
X668613Y249508D01*
X668615Y249506D01*
X668617Y249504D01*
X668895Y249256D01*
X669144Y249034D01*
X669147Y249032D01*
X669149Y249030D01*
X669429Y248832D01*
X669725Y248622D01*
X669728Y248620D01*
X669730Y248619D01*
X670027Y248456D01*
X670349Y248278D01*
X670352Y248276D01*
X670354Y248275D01*
X670673Y248144D01*
X671008Y248005D01*
X671010Y248005D01*
X671013Y248004D01*
X671342Y247909D01*
X671692Y247809D01*
X671695Y247808D01*
X671698Y247807D01*
X672052Y247748D01*
X672395Y247690D01*
X672397Y247690D01*
X672400Y247689D01*
X673100Y247651D01*
X682633Y247651D01*
X682628Y247641D01*
X682519Y247426D01*
X682403Y247215D01*
X682359Y247108D01*
X682306Y247005D01*
X682223Y246779D01*
X682131Y246556D01*
X682099Y246445D01*
X682059Y246337D01*
X682001Y246103D01*
X681934Y245871D01*
X681915Y245757D01*
X681887Y245645D01*
X681856Y245406D01*
X681816Y245169D01*
X681810Y245053D01*
X681794Y244939D01*
X681790Y244698D01*
X681777Y244457D01*
X681783Y244342D01*
X681781Y244227D01*
X681804Y243987D01*
X681818Y243746D01*
X681837Y243632D01*
X681848Y243517D01*
X681897Y243282D01*
X681938Y243044D01*
X681970Y242933D01*
X681994Y242820D01*
X682069Y242591D01*
X682136Y242360D01*
X682181Y242253D01*
X682217Y242143D01*
X682318Y241924D01*
X682410Y241702D01*
X682466Y241601D01*
X682514Y241496D01*
X682639Y241290D01*
X682756Y241079D01*
X682823Y240985D01*
X682882Y240886D01*
X683029Y240695D01*
X683169Y240499D01*
X683247Y240411D01*
X683316Y240321D01*
X683476Y240156D01*
X683637Y239976D01*
X686236Y237377D01*
X688595Y231682D01*
X688595Y225518D01*
X686236Y219823D01*
X681877Y215464D01*
X676912Y213408D01*
X676747Y213328D01*
X676578Y213258D01*
X676426Y213174D01*
X676270Y213098D01*
X676115Y213001D01*
X675955Y212912D01*
X675813Y212812D01*
X675667Y212719D01*
X675523Y212605D01*
X675374Y212499D01*
X675243Y212381D01*
X675110Y212275D01*
X674986Y212152D01*
X674852Y212031D01*
X668610Y205790D01*
X668608Y205786D01*
X668604Y205784D01*
X668363Y205513D01*
X668136Y205258D01*
X668133Y205255D01*
X668130Y205252D01*
X667929Y204967D01*
X667724Y204677D01*
X667721Y204674D01*
X667719Y204670D01*
X667547Y204358D01*
X667379Y204054D01*
X667377Y204050D01*
X667375Y204046D01*
X667241Y203721D01*
X667107Y203396D01*
X667105Y203391D01*
X667104Y203387D01*
X667007Y203048D01*
X666910Y202711D01*
X666909Y202707D01*
X666908Y202703D01*
X666848Y202346D01*
X666790Y202009D01*
X666790Y202004D01*
X666789Y202000D01*
X666751Y201300D01*
X666751Y199644D01*
X666751Y199641D01*
X666751Y199638D01*
X666771Y199291D01*
X666791Y198933D01*
X666791Y198930D01*
X666791Y198927D01*
X666852Y198573D01*
X666910Y198230D01*
X666911Y198228D01*
X666911Y198225D01*
X667012Y197878D01*
X667107Y197546D01*
X667109Y197543D01*
X667109Y197540D01*
X667244Y197216D01*
X667380Y196888D01*
X667382Y196885D01*
X667383Y196883D01*
X667559Y196565D01*
X667725Y196264D01*
X667727Y196262D01*
X667728Y196259D01*
X667940Y195962D01*
X668138Y195683D01*
X668139Y195681D01*
X668141Y195679D01*
X668386Y195406D01*
X668612Y195152D01*
X668615Y195150D01*
X668616Y195148D01*
X668886Y194908D01*
X669144Y194678D01*
X669146Y194676D01*
X669148Y194674D01*
X669429Y194476D01*
X669725Y194266D01*
X669728Y194264D01*
X669730Y194263D01*
X670026Y194100D01*
X670349Y193922D01*
X670352Y193921D01*
X670354Y193919D01*
X670672Y193788D01*
X671007Y193650D01*
X671010Y193649D01*
X671013Y193648D01*
X671342Y193553D01*
X671692Y193453D01*
X671695Y193452D01*
X671698Y193452D01*
X672051Y193392D01*
X672394Y193334D01*
X672397Y193334D01*
X672400Y193333D01*
X673100Y193295D01*
X683304Y193295D01*
X685731Y192289D01*
X687589Y190431D01*
X688595Y188004D01*
X688595Y167596D01*
X687589Y165169D01*
X685352Y162932D01*
X685231Y162796D01*
X685103Y162667D01*
X684994Y162531D01*
X684878Y162401D01*
X684772Y162252D01*
X684659Y162110D01*
X684566Y161962D01*
X684466Y161820D01*
X684378Y161661D01*
X684281Y161506D01*
X684205Y161349D01*
X684121Y161196D01*
X684051Y161028D01*
X683973Y160864D01*
X683915Y160699D01*
X683849Y160538D01*
X683798Y160363D01*
X683738Y160191D01*
X683700Y160021D01*
X683652Y159853D01*
X683621Y159674D01*
X683581Y159496D01*
X683562Y159323D01*
X683532Y159151D01*
X683522Y158969D01*
X683502Y158788D01*
X683502Y158749D01*
X675000Y158749D01*
X674848Y158741D01*
X674695Y158742D01*
X674492Y158721D01*
X674289Y158709D01*
X674138Y158684D01*
X673986Y158668D01*
X673787Y158624D01*
X673586Y158590D01*
X673440Y158548D01*
X673291Y158515D01*
X673097Y158449D01*
X672902Y158393D01*
X672761Y158334D01*
X672616Y158285D01*
X672432Y158198D01*
X672243Y158120D01*
X672110Y158046D01*
X671972Y157981D01*
X671799Y157874D01*
X671620Y157775D01*
X671496Y157687D01*
X671366Y157607D01*
X671205Y157481D01*
X671039Y157363D01*
X670926Y157261D01*
X670805Y157167D01*
X670660Y157023D01*
X670508Y156888D01*
X670407Y156774D01*
X670298Y156667D01*
X670169Y156508D01*
X670034Y156356D01*
X669945Y156232D01*
X669849Y156113D01*
X669740Y155942D01*
X669622Y155775D01*
X669548Y155641D01*
X669466Y155513D01*
X669376Y155330D01*
X669278Y155151D01*
X669219Y155010D01*
X669152Y154873D01*
X669083Y154681D01*
X669005Y154493D01*
X668963Y154346D01*
X668912Y154203D01*
X668865Y154004D01*
X668809Y153808D01*
X668783Y153658D01*
X668748Y153509D01*
X668724Y153307D01*
X668690Y153106D01*
X668681Y152954D01*
X668663Y152802D01*
X668662Y152598D01*
X668651Y152394D01*
X668659Y152242D01*
X668658Y152090D01*
X668680Y151886D01*
X668691Y151683D01*
X668717Y151533D01*
X668733Y151381D01*
X668777Y151182D01*
X668811Y150981D01*
X668854Y150834D01*
X668886Y150685D01*
X668952Y150493D01*
X669009Y150297D01*
X669068Y150156D01*
X669117Y150011D01*
X669204Y149827D01*
X669283Y149639D01*
X669357Y149505D01*
X669422Y149367D01*
X669529Y149194D01*
X669628Y149016D01*
X669716Y148891D01*
X669797Y148762D01*
X669923Y148601D01*
X670041Y148435D01*
X670143Y148322D01*
X670237Y148202D01*
X670383Y148053D01*
X670516Y147904D01*
X670624Y147808D01*
X670729Y147702D01*
X670892Y147570D01*
X671048Y147430D01*
X671168Y147345D01*
X671282Y147253D01*
X671459Y147140D01*
X671630Y147019D01*
X671759Y146948D01*
X671882Y146869D01*
X672071Y146776D01*
X672254Y146675D01*
X672390Y146619D01*
X672522Y146554D01*
X672719Y146483D01*
X672913Y146404D01*
X673054Y146363D01*
X673192Y146313D01*
X673396Y146265D01*
X673598Y146207D01*
X673742Y146183D01*
X673885Y146149D01*
X674093Y146124D01*
X674300Y146089D01*
X674449Y146081D01*
X674593Y146064D01*
X674793Y146062D01*
X675000Y146051D01*
X682633Y146051D01*
X682628Y146041D01*
X682519Y145826D01*
X682403Y145615D01*
X682359Y145508D01*
X682306Y145405D01*
X682223Y145179D01*
X682131Y144956D01*
X682099Y144845D01*
X682059Y144737D01*
X682001Y144503D01*
X681934Y144271D01*
X681915Y144157D01*
X681887Y144045D01*
X681856Y143806D01*
X681816Y143569D01*
X681810Y143453D01*
X681794Y143339D01*
X681790Y143098D01*
X681777Y142857D01*
X681783Y142742D01*
X681781Y142627D01*
X681804Y142387D01*
X681818Y142146D01*
X681837Y142032D01*
X681848Y141917D01*
X681897Y141682D01*
X681938Y141444D01*
X681970Y141333D01*
X681994Y141220D01*
X682069Y140991D01*
X682136Y140760D01*
X682181Y140653D01*
X682217Y140543D01*
X682318Y140324D01*
X682410Y140102D01*
X682466Y140001D01*
X682514Y139896D01*
X682639Y139690D01*
X682756Y139479D01*
X682823Y139385D01*
X682882Y139286D01*
X683029Y139095D01*
X683169Y138899D01*
X683247Y138811D01*
X683316Y138721D01*
X683476Y138556D01*
X683637Y138376D01*
X686236Y135777D01*
X688595Y130082D01*
X688595Y123918D01*
X686236Y118223D01*
X681877Y113864D01*
X676182Y111505D01*
X673100Y111505D01*
X673097Y111505D01*
X673094Y111505D01*
X672747Y111485D01*
X672389Y111465D01*
X672386Y111465D01*
X672383Y111465D01*
X672043Y111406D01*
X671686Y111346D01*
X671684Y111345D01*
X671681Y111345D01*
X671336Y111245D01*
X671002Y111149D01*
X670999Y111147D01*
X670996Y111147D01*
X670672Y111012D01*
X670344Y110876D01*
X670341Y110874D01*
X670339Y110873D01*
X670027Y110701D01*
X669720Y110531D01*
X669718Y110529D01*
X669715Y110528D01*
X669418Y110317D01*
X669139Y110119D01*
X669137Y110117D01*
X669135Y110115D01*
X668867Y109875D01*
X668608Y109644D01*
X668607Y109641D01*
X668604Y109640D01*
X668366Y109372D01*
X668134Y109112D01*
X668132Y109110D01*
X668130Y109108D01*
X667925Y108817D01*
X667722Y108531D01*
X667721Y108528D01*
X667719Y108526D01*
X667553Y108225D01*
X667378Y107907D01*
X667377Y107904D01*
X667375Y107902D01*
X667244Y107583D01*
X667106Y107249D01*
X667105Y107246D01*
X667104Y107243D01*
X667008Y106911D01*
X666909Y106564D01*
X666908Y106561D01*
X666908Y106559D01*
X666848Y106205D01*
X666790Y105862D01*
X666790Y105859D01*
X666789Y105856D01*
X666751Y105156D01*
X666751Y98044D01*
X666751Y98041D01*
X666751Y98038D01*
X666771Y97691D01*
X666791Y97333D01*
X666791Y97330D01*
X666791Y97327D01*
X666852Y96973D01*
X666910Y96630D01*
X666911Y96628D01*
X666911Y96625D01*
X667012Y96278D01*
X667107Y95946D01*
X667109Y95943D01*
X667109Y95940D01*
X667244Y95616D01*
X667380Y95288D01*
X667382Y95285D01*
X667383Y95283D01*
X667559Y94965D01*
X667725Y94664D01*
X667727Y94662D01*
X667728Y94659D01*
X667940Y94362D01*
X668138Y94083D01*
X668139Y94081D01*
X668141Y94079D01*
X668386Y93806D01*
X668612Y93552D01*
X668615Y93550D01*
X668616Y93548D01*
X668886Y93308D01*
X669144Y93078D01*
X669146Y93076D01*
X669148Y93074D01*
X669429Y92876D01*
X669725Y92666D01*
X669728Y92664D01*
X669730Y92663D01*
X670026Y92500D01*
X670349Y92322D01*
X670352Y92321D01*
X670354Y92319D01*
X670672Y92188D01*
X671007Y92050D01*
X671010Y92049D01*
X671013Y92048D01*
X671342Y91953D01*
X671692Y91853D01*
X671695Y91852D01*
X671698Y91852D01*
X672051Y91792D01*
X672394Y91734D01*
X672397Y91734D01*
X672400Y91733D01*
X673100Y91695D01*
X683304Y91695D01*
X685731Y90689D01*
X687589Y88831D01*
X688595Y86404D01*
X688595Y65996D01*
X687589Y63569D01*
X685352Y61332D01*
X685231Y61196D01*
X685103Y61067D01*
X684994Y60931D01*
X684878Y60801D01*
X684772Y60652D01*
X684659Y60510D01*
X684566Y60362D01*
X684466Y60220D01*
X684378Y60061D01*
X684281Y59906D01*
X684205Y59749D01*
X684121Y59596D01*
X684051Y59428D01*
X683973Y59264D01*
X683915Y59099D01*
X683849Y58938D01*
X683798Y58763D01*
X683738Y58591D01*
X683700Y58421D01*
X683652Y58253D01*
X683621Y58074D01*
X683581Y57896D01*
X683562Y57723D01*
X683532Y57551D01*
X683522Y57369D01*
X683502Y57188D01*
X683502Y57149D01*
X673100Y57149D01*
X673097Y57149D01*
X673095Y57149D01*
X672747Y57130D01*
X672389Y57109D01*
X672386Y57109D01*
X672383Y57109D01*
X672043Y57051D01*
X671687Y56990D01*
X671684Y56989D01*
X671681Y56989D01*
X671336Y56889D01*
X671002Y56793D01*
X671000Y56792D01*
X670997Y56791D01*
X670673Y56656D01*
X670344Y56520D01*
X670341Y56518D01*
X670339Y56517D01*
X670027Y56345D01*
X669721Y56175D01*
X669718Y56174D01*
X669716Y56172D01*
X669411Y55956D01*
X669140Y55763D01*
X669138Y55761D01*
X669135Y55759D01*
X668859Y55511D01*
X668609Y55288D01*
X668607Y55286D01*
X668605Y55284D01*
X668357Y55006D01*
X668134Y54756D01*
X668133Y54754D01*
X668131Y54752D01*
X667932Y54471D01*
X667722Y54175D01*
X667721Y54172D01*
X667719Y54170D01*
X667554Y53869D01*
X667378Y53551D01*
X667377Y53549D01*
X667376Y53546D01*
X667244Y53228D01*
X667106Y52893D01*
X667105Y52890D01*
X667104Y52888D01*
X667009Y52557D01*
X666909Y52208D01*
X666909Y52205D01*
X666908Y52203D01*
X666848Y51849D01*
X666790Y51506D01*
X666790Y51503D01*
X666790Y51500D01*
X666751Y50800D01*
X666751Y50797D01*
X666751Y50794D01*
X666772Y50428D01*
X666791Y50089D01*
X666792Y50086D01*
X666792Y50083D01*
X666850Y49742D01*
X666910Y49386D01*
X666911Y49383D01*
X666912Y49381D01*
X667012Y49034D01*
X667108Y48702D01*
X667109Y48699D01*
X667110Y48696D01*
X667246Y48368D01*
X667381Y48044D01*
X667382Y48041D01*
X667383Y48038D01*
X667557Y47725D01*
X667725Y47420D01*
X667727Y47418D01*
X667728Y47415D01*
X667940Y47118D01*
X668138Y46839D01*
X668140Y46837D01*
X668141Y46835D01*
X668386Y46562D01*
X668613Y46308D01*
X668615Y46306D01*
X668617Y46304D01*
X668884Y46066D01*
X669144Y45834D01*
X669147Y45832D01*
X669149Y45830D01*
X669429Y45632D01*
X669725Y45422D01*
X669728Y45420D01*
X669730Y45419D01*
X670027Y45256D01*
X670349Y45078D01*
X670352Y45076D01*
X670354Y45075D01*
X670673Y44944D01*
X671008Y44805D01*
X671010Y44805D01*
X671013Y44804D01*
X671342Y44709D01*
X671692Y44609D01*
X671695Y44608D01*
X671698Y44607D01*
X672052Y44548D01*
X672395Y44490D01*
X672397Y44490D01*
X672400Y44489D01*
X673100Y44451D01*
X682633Y44451D01*
X682628Y44441D01*
X682519Y44226D01*
X682403Y44015D01*
X682359Y43908D01*
X682306Y43805D01*
X682223Y43579D01*
X682131Y43356D01*
X682099Y43245D01*
X682059Y43137D01*
X682001Y42903D01*
X681934Y42671D01*
X681915Y42557D01*
X681887Y42445D01*
X681856Y42206D01*
X681816Y41969D01*
X681810Y41853D01*
X681794Y41739D01*
X681790Y41498D01*
X681777Y41257D01*
X681783Y41142D01*
X681781Y41027D01*
X681804Y40787D01*
X681818Y40546D01*
X681837Y40432D01*
X681848Y40317D01*
X681897Y40082D01*
X681938Y39844D01*
X681970Y39733D01*
X681994Y39620D01*
X682069Y39391D01*
X682136Y39160D01*
X682181Y39053D01*
X682217Y38943D01*
X682318Y38724D01*
X682410Y38502D01*
X682466Y38401D01*
X682514Y38296D01*
X682639Y38090D01*
X682756Y37879D01*
X682823Y37785D01*
X682882Y37686D01*
X683029Y37495D01*
X683169Y37299D01*
X683247Y37211D01*
X683316Y37121D01*
X683476Y36956D01*
X683637Y36776D01*
X686236Y34177D01*
X688595Y28482D01*
X688595Y22318D01*
X685952Y15937D01*
X685826Y15709D01*
X685825Y15707D01*
X685824Y15705D01*
X685684Y15367D01*
X685553Y15051D01*
X685552Y15049D01*
X685552Y15047D01*
X685453Y14702D01*
X685356Y14366D01*
X685355Y14364D01*
X685355Y14362D01*
X685296Y14014D01*
X685237Y13664D01*
X685236Y13662D01*
X685236Y13660D01*
X685217Y13305D01*
X685197Y12952D01*
X685197Y12950D01*
X685197Y12948D01*
X685216Y12611D01*
X685237Y12241D01*
X685237Y12239D01*
X685237Y12237D01*
X685291Y11925D01*
X685356Y11539D01*
X685357Y11537D01*
X685357Y11535D01*
X685448Y11221D01*
X685554Y10854D01*
X685555Y10852D01*
X685555Y10850D01*
X685686Y10536D01*
X685827Y10196D01*
X685828Y10194D01*
X685829Y10193D01*
X685997Y9888D01*
X686172Y9573D01*
X686173Y9571D01*
X686174Y9569D01*
X686365Y9300D01*
X686584Y8992D01*
X686586Y8990D01*
X686587Y8989D01*
X686811Y8739D01*
X687060Y8461D01*
X687061Y8460D01*
X687063Y8458D01*
X687338Y8212D01*
X687591Y7987D01*
X687593Y7986D01*
X687594Y7984D01*
X687892Y7774D01*
X688172Y7575D01*
X688174Y7574D01*
X688176Y7573D01*
X688475Y7408D01*
X688796Y7231D01*
X688798Y7230D01*
X688800Y7229D01*
X689104Y7104D01*
X689455Y6959D01*
X689457Y6958D01*
X689459Y6958D01*
X689787Y6864D01*
X690139Y6763D01*
X690141Y6762D01*
X690144Y6762D01*
X690497Y6702D01*
X690842Y6644D01*
X690844Y6644D01*
X690846Y6643D01*
X691546Y6605D01*
X705454Y6605D01*
X705456Y6605D01*
G37*
%LPC*%
G36*
X720818Y213105D02*
X720818Y213105D01*
X715123Y215464D01*
X710764Y219823D01*
X708405Y225518D01*
X708405Y231682D01*
X710858Y237603D01*
X710876Y237629D01*
X711084Y237923D01*
X711086Y237925D01*
X711088Y237928D01*
X711262Y238245D01*
X711429Y238546D01*
X711430Y238549D01*
X711432Y238552D01*
X711564Y238873D01*
X711701Y239205D01*
X711702Y239208D01*
X711703Y239210D01*
X711799Y239545D01*
X711898Y239889D01*
X711899Y239892D01*
X711900Y239895D01*
X711960Y240251D01*
X712018Y240592D01*
X712018Y240594D01*
X712018Y240598D01*
X712038Y240963D01*
X712057Y241303D01*
X712057Y241306D01*
X712057Y241309D01*
X712037Y241660D01*
X712017Y242014D01*
X712016Y242017D01*
X712016Y242020D01*
X711958Y242360D01*
X711897Y242716D01*
X711896Y242719D01*
X711896Y242722D01*
X711799Y243058D01*
X711700Y243401D01*
X711698Y243404D01*
X711698Y243407D01*
X711569Y243716D01*
X711426Y244059D01*
X711425Y244062D01*
X711424Y244064D01*
X711259Y244361D01*
X711081Y244682D01*
X711080Y244685D01*
X711078Y244687D01*
X710876Y244972D01*
X710858Y244997D01*
X708405Y250918D01*
X708405Y257082D01*
X709913Y260723D01*
X709973Y260894D01*
X710043Y261063D01*
X710091Y261231D01*
X710149Y261396D01*
X710189Y261573D01*
X710239Y261748D01*
X710268Y261920D01*
X710307Y262090D01*
X710327Y262271D01*
X710358Y262450D01*
X710367Y262624D01*
X710387Y262798D01*
X710387Y262980D01*
X710397Y263161D01*
X710387Y263336D01*
X710387Y263510D01*
X710366Y263691D01*
X710356Y263873D01*
X710326Y264045D01*
X710307Y264218D01*
X710266Y264396D01*
X710235Y264575D01*
X710187Y264743D01*
X710148Y264913D01*
X710088Y265084D01*
X710037Y265259D01*
X709970Y265420D01*
X709912Y265585D01*
X709833Y265749D01*
X709793Y265846D01*
X708405Y269196D01*
X708405Y289604D01*
X709411Y292031D01*
X711269Y293889D01*
X713696Y294895D01*
X734104Y294895D01*
X736531Y293889D01*
X738389Y292031D01*
X739395Y289604D01*
X739395Y269196D01*
X738034Y265911D01*
X738032Y265907D01*
X737962Y265739D01*
X737883Y265575D01*
X737826Y265410D01*
X737759Y265248D01*
X737709Y265074D01*
X737649Y264902D01*
X737610Y264731D01*
X737562Y264564D01*
X737532Y264385D01*
X737491Y264207D01*
X737472Y264034D01*
X737443Y263861D01*
X737433Y263680D01*
X737413Y263499D01*
X737413Y263324D01*
X737403Y263150D01*
X737414Y262969D01*
X737414Y262787D01*
X737434Y262613D01*
X737444Y262439D01*
X737474Y262259D01*
X737495Y262079D01*
X737534Y261909D01*
X737563Y261736D01*
X737614Y261561D01*
X737655Y261385D01*
X737713Y261217D01*
X737761Y261052D01*
X737827Y260892D01*
X737887Y260723D01*
X739395Y257082D01*
X739395Y250918D01*
X736942Y244997D01*
X736917Y244961D01*
X736716Y244678D01*
X736714Y244675D01*
X736713Y244672D01*
X736535Y244351D01*
X736371Y244054D01*
X736370Y244051D01*
X736369Y244049D01*
X736220Y243690D01*
X736099Y243396D01*
X736098Y243393D01*
X736097Y243390D01*
X735992Y243024D01*
X735902Y242711D01*
X735901Y242708D01*
X735900Y242705D01*
X735837Y242329D01*
X735783Y242009D01*
X735782Y242006D01*
X735782Y242003D01*
X735761Y241629D01*
X735743Y241297D01*
X735743Y241294D01*
X735743Y241291D01*
X735763Y240938D01*
X735783Y240586D01*
X735784Y240583D01*
X735784Y240580D01*
X735843Y240236D01*
X735903Y239884D01*
X735904Y239881D01*
X735904Y239878D01*
X736008Y239520D01*
X736100Y239199D01*
X736101Y239197D01*
X736102Y239194D01*
X736241Y238861D01*
X736373Y238541D01*
X736375Y238539D01*
X736376Y238536D01*
X736542Y238237D01*
X736718Y237918D01*
X736720Y237916D01*
X736722Y237913D01*
X736942Y237604D01*
X739395Y231682D01*
X739395Y225518D01*
X737036Y219823D01*
X732677Y215464D01*
X726982Y213105D01*
X720818Y213105D01*
G37*
%LPD*%
%LPC*%
G36*
X720818Y111505D02*
X720818Y111505D01*
X715123Y113864D01*
X710764Y118223D01*
X708405Y123918D01*
X708405Y130082D01*
X710858Y136003D01*
X710876Y136029D01*
X711084Y136323D01*
X711086Y136325D01*
X711088Y136328D01*
X711262Y136645D01*
X711429Y136946D01*
X711430Y136949D01*
X711432Y136952D01*
X711564Y137273D01*
X711701Y137605D01*
X711702Y137608D01*
X711703Y137610D01*
X711799Y137945D01*
X711898Y138289D01*
X711899Y138292D01*
X711900Y138295D01*
X711960Y138651D01*
X712018Y138992D01*
X712018Y138994D01*
X712018Y138998D01*
X712038Y139363D01*
X712057Y139703D01*
X712057Y139706D01*
X712057Y139709D01*
X712037Y140060D01*
X712017Y140414D01*
X712016Y140417D01*
X712016Y140420D01*
X711958Y140760D01*
X711897Y141116D01*
X711896Y141119D01*
X711896Y141122D01*
X711799Y141458D01*
X711700Y141801D01*
X711698Y141804D01*
X711698Y141807D01*
X711569Y142116D01*
X711426Y142459D01*
X711425Y142462D01*
X711424Y142464D01*
X711259Y142761D01*
X711081Y143082D01*
X711080Y143085D01*
X711078Y143087D01*
X710876Y143372D01*
X710858Y143397D01*
X708405Y149318D01*
X708405Y155482D01*
X709913Y159123D01*
X709973Y159294D01*
X710043Y159463D01*
X710091Y159631D01*
X710149Y159796D01*
X710189Y159973D01*
X710239Y160148D01*
X710268Y160320D01*
X710307Y160490D01*
X710327Y160671D01*
X710358Y160850D01*
X710367Y161024D01*
X710387Y161198D01*
X710387Y161380D01*
X710397Y161561D01*
X710387Y161736D01*
X710387Y161910D01*
X710366Y162091D01*
X710356Y162273D01*
X710326Y162445D01*
X710307Y162618D01*
X710266Y162796D01*
X710235Y162975D01*
X710187Y163143D01*
X710148Y163313D01*
X710088Y163484D01*
X710037Y163659D01*
X709970Y163820D01*
X709912Y163985D01*
X709833Y164149D01*
X709793Y164246D01*
X708405Y167596D01*
X708405Y188004D01*
X709411Y190431D01*
X711269Y192289D01*
X713696Y193295D01*
X734104Y193295D01*
X736531Y192289D01*
X738389Y190431D01*
X739395Y188004D01*
X739395Y167596D01*
X738034Y164311D01*
X738032Y164307D01*
X737962Y164139D01*
X737883Y163975D01*
X737826Y163810D01*
X737759Y163648D01*
X737709Y163474D01*
X737649Y163302D01*
X737610Y163131D01*
X737562Y162964D01*
X737532Y162785D01*
X737491Y162607D01*
X737472Y162434D01*
X737443Y162261D01*
X737433Y162080D01*
X737413Y161899D01*
X737413Y161724D01*
X737403Y161550D01*
X737414Y161369D01*
X737414Y161187D01*
X737434Y161013D01*
X737444Y160839D01*
X737474Y160659D01*
X737495Y160479D01*
X737534Y160309D01*
X737563Y160136D01*
X737614Y159961D01*
X737655Y159785D01*
X737713Y159617D01*
X737761Y159452D01*
X737827Y159292D01*
X737887Y159123D01*
X739395Y155482D01*
X739395Y149318D01*
X736942Y143397D01*
X736917Y143361D01*
X736716Y143078D01*
X736714Y143075D01*
X736713Y143072D01*
X736535Y142751D01*
X736371Y142454D01*
X736370Y142451D01*
X736369Y142449D01*
X736220Y142090D01*
X736099Y141796D01*
X736098Y141793D01*
X736097Y141790D01*
X735992Y141424D01*
X735902Y141111D01*
X735901Y141108D01*
X735900Y141105D01*
X735837Y140729D01*
X735783Y140409D01*
X735782Y140406D01*
X735782Y140403D01*
X735761Y140029D01*
X735743Y139697D01*
X735743Y139694D01*
X735743Y139691D01*
X735763Y139338D01*
X735783Y138986D01*
X735784Y138983D01*
X735784Y138980D01*
X735843Y138636D01*
X735903Y138284D01*
X735904Y138281D01*
X735904Y138278D01*
X736008Y137920D01*
X736100Y137599D01*
X736101Y137597D01*
X736102Y137594D01*
X736241Y137261D01*
X736373Y136941D01*
X736375Y136939D01*
X736376Y136936D01*
X736542Y136637D01*
X736718Y136318D01*
X736720Y136316D01*
X736722Y136313D01*
X736942Y136004D01*
X739395Y130082D01*
X739395Y123918D01*
X737036Y118223D01*
X732677Y113864D01*
X726982Y111505D01*
X720818Y111505D01*
G37*
%LPD*%
%LPC*%
G36*
X377918Y416305D02*
X377918Y416305D01*
X372223Y418664D01*
X367864Y423023D01*
X365808Y427988D01*
X365728Y428154D01*
X365658Y428323D01*
X365574Y428474D01*
X365498Y428630D01*
X365401Y428785D01*
X365312Y428945D01*
X365212Y429086D01*
X365119Y429233D01*
X365005Y429377D01*
X364899Y429526D01*
X364781Y429657D01*
X364675Y429790D01*
X364552Y429914D01*
X364431Y430048D01*
X352094Y442386D01*
X352090Y442388D01*
X352088Y442392D01*
X351828Y442623D01*
X351562Y442860D01*
X351559Y442863D01*
X351556Y442866D01*
X351271Y443067D01*
X350981Y443273D01*
X350978Y443275D01*
X350974Y443277D01*
X350664Y443448D01*
X350358Y443617D01*
X350354Y443619D01*
X350350Y443621D01*
X350025Y443755D01*
X349699Y443890D01*
X349695Y443891D01*
X349691Y443892D01*
X349364Y443986D01*
X349015Y444087D01*
X349010Y444087D01*
X349007Y444088D01*
X348660Y444147D01*
X348312Y444206D01*
X348308Y444206D01*
X348304Y444207D01*
X347604Y444245D01*
X327521Y444245D01*
X327504Y444251D01*
X327326Y444292D01*
X327149Y444342D01*
X326979Y444371D01*
X326810Y444410D01*
X326628Y444430D01*
X326447Y444461D01*
X326271Y444470D01*
X326102Y444489D01*
X325927Y444489D01*
X325747Y444499D01*
X324939Y444499D01*
X324368Y445070D01*
X324231Y445193D01*
X324101Y445322D01*
X323966Y445430D01*
X323837Y445545D01*
X323687Y445651D01*
X323544Y445765D01*
X323397Y445857D01*
X323256Y445957D01*
X323095Y446046D01*
X322940Y446143D01*
X322932Y446147D01*
X319146Y449934D01*
X319138Y449950D01*
X319040Y450105D01*
X318951Y450265D01*
X318851Y450406D01*
X318759Y450553D01*
X318644Y450697D01*
X318538Y450846D01*
X318421Y450977D01*
X318314Y451110D01*
X318191Y451234D01*
X318070Y451368D01*
X317499Y451939D01*
X317499Y452747D01*
X317489Y452930D01*
X317489Y453113D01*
X317469Y453285D01*
X317459Y453458D01*
X317429Y453639D01*
X317408Y453821D01*
X317369Y453990D01*
X317340Y454161D01*
X317289Y454336D01*
X317248Y454515D01*
X317245Y454523D01*
X317245Y459879D01*
X317251Y459896D01*
X317292Y460074D01*
X317342Y460251D01*
X317371Y460421D01*
X317410Y460590D01*
X317430Y460772D01*
X317461Y460953D01*
X317470Y461129D01*
X317489Y461298D01*
X317489Y461473D01*
X317499Y461653D01*
X317499Y462461D01*
X318070Y463032D01*
X318193Y463169D01*
X318322Y463299D01*
X318430Y463434D01*
X318545Y463563D01*
X318651Y463713D01*
X318765Y463856D01*
X318857Y464003D01*
X318957Y464144D01*
X319046Y464305D01*
X319143Y464460D01*
X319147Y464468D01*
X322934Y468254D01*
X322950Y468262D01*
X323105Y468360D01*
X323265Y468449D01*
X323406Y468549D01*
X323553Y468641D01*
X323697Y468756D01*
X323846Y468862D01*
X323977Y468979D01*
X324110Y469086D01*
X324234Y469209D01*
X324368Y469330D01*
X324939Y469901D01*
X325747Y469901D01*
X325930Y469911D01*
X326113Y469911D01*
X326285Y469931D01*
X326458Y469941D01*
X326639Y469971D01*
X326821Y469992D01*
X326990Y470031D01*
X327161Y470060D01*
X327336Y470111D01*
X327515Y470152D01*
X327523Y470155D01*
X358177Y470155D01*
X362938Y468183D01*
X382752Y448369D01*
X382888Y448247D01*
X383018Y448117D01*
X383154Y448009D01*
X383283Y447894D01*
X383433Y447788D01*
X383576Y447674D01*
X383723Y447582D01*
X383864Y447482D01*
X384025Y447393D01*
X384180Y447296D01*
X384338Y447220D01*
X384488Y447137D01*
X384649Y447071D01*
X384812Y446992D01*
X389777Y444936D01*
X394136Y440577D01*
X396495Y434882D01*
X396495Y428718D01*
X394136Y423023D01*
X389777Y418664D01*
X384082Y416305D01*
X377918Y416305D01*
G37*
%LPD*%
%LPC*%
G36*
X635000Y361949D02*
X635000Y361949D01*
X624597Y361949D01*
X624597Y362000D01*
X624577Y362180D01*
X624566Y362362D01*
X624537Y362535D01*
X624517Y362708D01*
X624477Y362885D01*
X624446Y363064D01*
X624397Y363233D01*
X624358Y363402D01*
X624298Y363574D01*
X624248Y363749D01*
X624180Y363910D01*
X624123Y364075D01*
X624044Y364239D01*
X623974Y364406D01*
X623889Y364559D01*
X623813Y364716D01*
X623716Y364870D01*
X623628Y365029D01*
X623527Y365172D01*
X623434Y365319D01*
X623321Y365461D01*
X623215Y365610D01*
X623097Y365742D01*
X622989Y365876D01*
X622867Y365999D01*
X622748Y366132D01*
X620511Y368369D01*
X619505Y370796D01*
X619505Y391204D01*
X620511Y393631D01*
X622369Y395489D01*
X624796Y396495D01*
X645204Y396495D01*
X647631Y395489D01*
X649489Y393631D01*
X650495Y391204D01*
X650495Y370796D01*
X649489Y368369D01*
X647252Y366132D01*
X647131Y365996D01*
X647003Y365868D01*
X646894Y365731D01*
X646778Y365601D01*
X646673Y365452D01*
X646559Y365310D01*
X646467Y365162D01*
X646366Y365020D01*
X646278Y364861D01*
X646181Y364706D01*
X646106Y364549D01*
X646021Y364396D01*
X645952Y364228D01*
X645873Y364064D01*
X645815Y363899D01*
X645749Y363738D01*
X645698Y363563D01*
X645638Y363391D01*
X645600Y363221D01*
X645552Y363053D01*
X645521Y362874D01*
X645481Y362697D01*
X645462Y362523D01*
X645432Y362351D01*
X645422Y362169D01*
X645402Y361989D01*
X645402Y361949D01*
X635000Y361949D01*
X635000Y361949D01*
G37*
%LPD*%
%LPC*%
G36*
X428718Y416305D02*
X428718Y416305D01*
X423023Y418664D01*
X418664Y423023D01*
X416305Y428718D01*
X416305Y434882D01*
X418664Y440577D01*
X423023Y444936D01*
X428718Y447295D01*
X434882Y447295D01*
X440577Y444936D01*
X444936Y440577D01*
X447295Y434882D01*
X447295Y428718D01*
X444936Y423023D01*
X440577Y418664D01*
X434882Y416305D01*
X428718Y416305D01*
G37*
%LPD*%
%LPC*%
G36*
X720818Y314705D02*
X720818Y314705D01*
X715123Y317064D01*
X710764Y321423D01*
X708405Y327118D01*
X708405Y333282D01*
X710764Y338977D01*
X715123Y343336D01*
X720818Y345695D01*
X726982Y345695D01*
X732677Y343336D01*
X737036Y338977D01*
X739395Y333282D01*
X739395Y327118D01*
X737036Y321423D01*
X732677Y317064D01*
X726982Y314705D01*
X720818Y314705D01*
G37*
%LPD*%
%LPC*%
G36*
X720818Y365505D02*
X720818Y365505D01*
X715123Y367864D01*
X710764Y372223D01*
X708405Y377918D01*
X708405Y384082D01*
X710764Y389777D01*
X715123Y394136D01*
X720818Y396495D01*
X726982Y396495D01*
X732677Y394136D01*
X737036Y389777D01*
X739395Y384082D01*
X739395Y377918D01*
X737036Y372223D01*
X732677Y367864D01*
X726982Y365505D01*
X720818Y365505D01*
G37*
%LPD*%
%LPC*%
G36*
X641349Y446604D02*
X641349Y446604D01*
X641349Y451051D01*
X645796Y451051D01*
X645796Y448895D01*
X645698Y448404D01*
X645507Y447941D01*
X645228Y447525D01*
X644875Y447172D01*
X644459Y446893D01*
X643996Y446702D01*
X643505Y446604D01*
X641349Y446604D01*
G37*
%LPD*%
%LPC*%
G36*
X626495Y446604D02*
X626495Y446604D01*
X626004Y446702D01*
X625541Y446893D01*
X625125Y447172D01*
X624772Y447525D01*
X624493Y447941D01*
X624302Y448404D01*
X624204Y448895D01*
X624204Y451051D01*
X628651Y451051D01*
X628651Y446604D01*
X626495Y446604D01*
G37*
%LPD*%
%LPC*%
G36*
X577849Y449581D02*
X577849Y449581D01*
X582500Y449581D01*
X582083Y448859D01*
X581069Y447538D01*
X579892Y446361D01*
X578571Y445347D01*
X577849Y444930D01*
X577849Y449581D01*
G37*
%LPD*%
%LPC*%
G36*
X539749Y449581D02*
X539749Y449581D01*
X544400Y449581D01*
X543983Y448859D01*
X542969Y447538D01*
X541792Y446361D01*
X540471Y445347D01*
X539749Y444930D01*
X539749Y449581D01*
G37*
%LPD*%
%LPC*%
G36*
X564429Y445347D02*
X564429Y445347D01*
X563108Y446361D01*
X561931Y447538D01*
X560917Y448859D01*
X560500Y449581D01*
X565151Y449581D01*
X565151Y444930D01*
X564429Y445347D01*
G37*
%LPD*%
%LPC*%
G36*
X526329Y445347D02*
X526329Y445347D01*
X525008Y446361D01*
X523831Y447538D01*
X522817Y448859D01*
X522400Y449581D01*
X527051Y449581D01*
X527051Y444930D01*
X526329Y445347D01*
G37*
%LPD*%
%LPC*%
G36*
X171449Y438149D02*
X171449Y438149D01*
X171449Y441333D01*
X171464Y441325D01*
X172653Y440412D01*
X173712Y439353D01*
X174625Y438164D01*
X174633Y438149D01*
X171449Y438149D01*
G37*
%LPD*%
%LPC*%
G36*
X730249Y438149D02*
X730249Y438149D01*
X730249Y441333D01*
X730264Y441325D01*
X731453Y440412D01*
X732512Y439353D01*
X733425Y438164D01*
X733433Y438149D01*
X730249Y438149D01*
G37*
%LPD*%
%LPC*%
G36*
X171449Y425451D02*
X171449Y425451D01*
X174633Y425451D01*
X174625Y425436D01*
X173712Y424247D01*
X172653Y423188D01*
X171464Y422275D01*
X171449Y422267D01*
X171449Y425451D01*
G37*
%LPD*%
%LPC*%
G36*
X730249Y425451D02*
X730249Y425451D01*
X733433Y425451D01*
X733425Y425436D01*
X732512Y424247D01*
X731453Y423188D01*
X730264Y422275D01*
X730249Y422267D01*
X730249Y425451D01*
G37*
%LPD*%
%LPC*%
G36*
X714367Y438149D02*
X714367Y438149D01*
X714375Y438164D01*
X715288Y439353D01*
X716347Y440412D01*
X717536Y441325D01*
X717551Y441333D01*
X717551Y438149D01*
X714367Y438149D01*
G37*
%LPD*%
%LPC*%
G36*
X155567Y438149D02*
X155567Y438149D01*
X155575Y438164D01*
X156488Y439353D01*
X157547Y440412D01*
X158736Y441325D01*
X158751Y441333D01*
X158751Y438149D01*
X155567Y438149D01*
G37*
%LPD*%
%LPC*%
G36*
X730249Y476251D02*
X730249Y476251D01*
X733433Y476251D01*
X733425Y476236D01*
X732512Y475047D01*
X731453Y473988D01*
X730264Y473075D01*
X730249Y473067D01*
X730249Y476251D01*
G37*
%LPD*%
%LPC*%
G36*
X158736Y422275D02*
X158736Y422275D01*
X157547Y423188D01*
X156488Y424247D01*
X155575Y425436D01*
X155567Y425451D01*
X158751Y425451D01*
X158751Y422267D01*
X158736Y422275D01*
G37*
%LPD*%
%LPC*%
G36*
X717536Y422275D02*
X717536Y422275D01*
X716347Y423188D01*
X715288Y424247D01*
X714375Y425436D01*
X714367Y425451D01*
X717551Y425451D01*
X717551Y422267D01*
X717536Y422275D01*
G37*
%LPD*%
%LPC*%
G36*
X717536Y473075D02*
X717536Y473075D01*
X716347Y473988D01*
X715288Y475047D01*
X714375Y476236D01*
X714367Y476251D01*
X717551Y476251D01*
X717551Y473067D01*
X717536Y473075D01*
G37*
%LPD*%
D10*
X165100Y482600D03*
X165100Y431800D03*
X431800Y431800D03*
X381000Y431800D03*
X38100Y139700D03*
X38100Y88900D03*
X38100Y38100D03*
X38100Y190500D03*
X38100Y355600D03*
X38100Y304800D03*
X38100Y254000D03*
X38100Y406400D03*
X723900Y381000D03*
X723900Y431800D03*
X723900Y482600D03*
X723900Y330200D03*
D11*
X673100Y279400D03*
D10*
X673100Y254000D03*
X673100Y228600D03*
D11*
X673100Y76200D03*
D10*
X673100Y50800D03*
X673100Y25400D03*
D11*
X673100Y177800D03*
D10*
X673100Y152400D03*
X673100Y127000D03*
D12*
X330200Y381000D03*
X330200Y457200D03*
D11*
X635000Y381000D03*
D10*
X635000Y355600D03*
X635000Y330200D03*
D13*
X571500Y455930D03*
X571500Y483870D03*
X533400Y455930D03*
X533400Y483870D03*
D14*
X635000Y482400D03*
D15*
X635000Y457400D03*
D16*
X228600Y375920D02*
X228600Y360680D01*
X254000Y360680D02*
X254000Y375920D01*
X279400Y375920D02*
X279400Y360680D01*
D11*
X723900Y76200D03*
D10*
X723900Y50800D03*
X723900Y25400D03*
D11*
X723900Y177800D03*
D10*
X723900Y152400D03*
X723900Y127000D03*
D11*
X723900Y279400D03*
D10*
X723900Y254000D03*
X723900Y228600D03*
D17*
X228600Y431800D02*
X165100Y431800D01*
X228600Y431800D02*
X254000Y431800D01*
X330200Y431800D01*
X368300Y393700D01*
X596900Y393700D01*
D18*
X635000Y355600D01*
X711200Y431800D01*
D17*
X723900Y431800D01*
X723900Y482600D01*
X698300Y457400D02*
X723900Y431800D01*
X698300Y457400D02*
X635000Y457400D01*
X571500Y455930D02*
X533400Y455930D01*
X571500Y455930D02*
X572970Y457400D01*
X635000Y457400D01*
D19*
X698549Y76249D02*
X673100Y50800D01*
D20*
X698549Y177800D02*
X698549Y266749D01*
X698549Y177800D02*
X698549Y165100D01*
X698549Y76249D01*
D17*
X685849Y152400D02*
X673100Y152400D01*
D19*
X685849Y152400D02*
X698549Y165100D01*
D17*
X254000Y368300D02*
X244094Y378206D01*
X244094Y420438D01*
X235018Y429514D01*
X230886Y429514D01*
X228600Y431800D01*
X263906Y378206D02*
X254000Y368300D01*
X263906Y421894D02*
X254000Y431800D01*
X263906Y421894D02*
X263906Y378206D01*
D21*
X690237Y300363D02*
X698549Y288742D01*
X690237Y300363D02*
X635000Y355600D01*
X698549Y288742D02*
X698549Y266749D01*
X673100Y254000D01*
D17*
X635000Y190500D02*
X38100Y190500D01*
X635000Y190500D02*
X673100Y228600D01*
X63500Y330200D02*
X38100Y355600D01*
X63500Y330200D02*
X635000Y330200D01*
X228600Y368300D02*
X76200Y368300D01*
X38100Y406400D01*
X330200Y457200D02*
X355600Y457200D01*
X381000Y431800D01*
X660400Y139700D02*
X38100Y139700D01*
X660400Y139700D02*
X673100Y127000D01*
X101600Y25400D02*
X38100Y88900D01*
X101600Y25400D02*
X673100Y25400D01*
M02*
