G04 EAGLE Gerber RS-274X export*
G75*
%MOMM*%
%FSLAX34Y34*%
%LPD*%
%IN*%
%IPPOS*%
%AMOC8*
5,1,8,0,0,1.08239X$1,22.5*%
G01*
%ADD10C,0.254000*%


D10*
X0Y0D02*
X762000Y0D01*
X762000Y508000D01*
X0Y508000D01*
X0Y0D01*
X70800Y469296D02*
X70727Y468089D01*
X70581Y466889D01*
X70363Y465700D01*
X70074Y464527D01*
X69715Y463373D01*
X69286Y462243D01*
X68790Y461141D01*
X68228Y460070D01*
X67603Y459036D01*
X66916Y458041D01*
X66171Y457090D01*
X65369Y456185D01*
X64515Y455331D01*
X63610Y454529D01*
X62659Y453784D01*
X61664Y453097D01*
X60630Y452472D01*
X59559Y451910D01*
X58457Y451414D01*
X57327Y450985D01*
X56173Y450626D01*
X55000Y450337D01*
X53811Y450119D01*
X52611Y449973D01*
X51404Y449900D01*
X50196Y449900D01*
X48989Y449973D01*
X47789Y450119D01*
X46600Y450337D01*
X45427Y450626D01*
X44273Y450985D01*
X43143Y451414D01*
X42041Y451910D01*
X40970Y452472D01*
X39936Y453097D01*
X38941Y453784D01*
X37990Y454529D01*
X37085Y455331D01*
X36231Y456185D01*
X35429Y457090D01*
X34684Y458041D01*
X33997Y459036D01*
X33372Y460070D01*
X32810Y461141D01*
X32314Y462243D01*
X31885Y463373D01*
X31526Y464527D01*
X31237Y465700D01*
X31019Y466889D01*
X30873Y468089D01*
X30800Y469296D01*
X30800Y470504D01*
X30873Y471711D01*
X31019Y472911D01*
X31237Y474100D01*
X31526Y475273D01*
X31885Y476427D01*
X32314Y477557D01*
X32810Y478659D01*
X33372Y479730D01*
X33997Y480764D01*
X34684Y481759D01*
X35429Y482710D01*
X36231Y483615D01*
X37085Y484469D01*
X37990Y485271D01*
X38941Y486016D01*
X39936Y486703D01*
X40970Y487328D01*
X42041Y487890D01*
X43143Y488386D01*
X44273Y488815D01*
X45427Y489174D01*
X46600Y489463D01*
X47789Y489681D01*
X48989Y489827D01*
X50196Y489900D01*
X51404Y489900D01*
X52611Y489827D01*
X53811Y489681D01*
X55000Y489463D01*
X56173Y489174D01*
X57327Y488815D01*
X58457Y488386D01*
X59559Y487890D01*
X60630Y487328D01*
X61664Y486703D01*
X62659Y486016D01*
X63610Y485271D01*
X64515Y484469D01*
X65369Y483615D01*
X66171Y482710D01*
X66916Y481759D01*
X67603Y480764D01*
X68228Y479730D01*
X68790Y478659D01*
X69286Y477557D01*
X69715Y476427D01*
X70074Y475273D01*
X70363Y474100D01*
X70581Y472911D01*
X70727Y471711D01*
X70800Y470504D01*
X70800Y469296D01*
X629600Y266096D02*
X629527Y264889D01*
X629381Y263689D01*
X629163Y262500D01*
X628874Y261327D01*
X628515Y260173D01*
X628086Y259043D01*
X627590Y257941D01*
X627028Y256870D01*
X626403Y255836D01*
X625716Y254841D01*
X624971Y253890D01*
X624169Y252985D01*
X623315Y252131D01*
X622410Y251329D01*
X621459Y250584D01*
X620464Y249897D01*
X619430Y249272D01*
X618359Y248710D01*
X617257Y248214D01*
X616127Y247785D01*
X614973Y247426D01*
X613800Y247137D01*
X612611Y246919D01*
X611411Y246773D01*
X610204Y246700D01*
X608996Y246700D01*
X607789Y246773D01*
X606589Y246919D01*
X605400Y247137D01*
X604227Y247426D01*
X603073Y247785D01*
X601943Y248214D01*
X600841Y248710D01*
X599770Y249272D01*
X598736Y249897D01*
X597741Y250584D01*
X596790Y251329D01*
X595885Y252131D01*
X595031Y252985D01*
X594229Y253890D01*
X593484Y254841D01*
X592797Y255836D01*
X592172Y256870D01*
X591610Y257941D01*
X591114Y259043D01*
X590685Y260173D01*
X590326Y261327D01*
X590037Y262500D01*
X589819Y263689D01*
X589673Y264889D01*
X589600Y266096D01*
X589600Y267304D01*
X589673Y268511D01*
X589819Y269711D01*
X590037Y270900D01*
X590326Y272073D01*
X590685Y273227D01*
X591114Y274357D01*
X591610Y275459D01*
X592172Y276530D01*
X592797Y277564D01*
X593484Y278559D01*
X594229Y279510D01*
X595031Y280415D01*
X595885Y281269D01*
X596790Y282071D01*
X597741Y282816D01*
X598736Y283503D01*
X599770Y284128D01*
X600841Y284690D01*
X601943Y285186D01*
X603073Y285615D01*
X604227Y285974D01*
X605400Y286263D01*
X606589Y286481D01*
X607789Y286627D01*
X608996Y286700D01*
X610204Y286700D01*
X611411Y286627D01*
X612611Y286481D01*
X613800Y286263D01*
X614973Y285974D01*
X616127Y285615D01*
X617257Y285186D01*
X618359Y284690D01*
X619430Y284128D01*
X620464Y283503D01*
X621459Y282816D01*
X622410Y282071D01*
X623315Y281269D01*
X624169Y280415D01*
X624971Y279510D01*
X625716Y278559D01*
X626403Y277564D01*
X627028Y276530D01*
X627590Y275459D01*
X628086Y274357D01*
X628515Y273227D01*
X628874Y272073D01*
X629163Y270900D01*
X629381Y269711D01*
X629527Y268511D01*
X629600Y267304D01*
X629600Y266096D01*
X159700Y75596D02*
X159627Y74389D01*
X159481Y73189D01*
X159263Y72000D01*
X158974Y70827D01*
X158615Y69673D01*
X158186Y68543D01*
X157690Y67441D01*
X157128Y66370D01*
X156503Y65336D01*
X155816Y64341D01*
X155071Y63390D01*
X154269Y62485D01*
X153415Y61631D01*
X152510Y60829D01*
X151559Y60084D01*
X150564Y59397D01*
X149530Y58772D01*
X148459Y58210D01*
X147357Y57714D01*
X146227Y57285D01*
X145073Y56926D01*
X143900Y56637D01*
X142711Y56419D01*
X141511Y56273D01*
X140304Y56200D01*
X139096Y56200D01*
X137889Y56273D01*
X136689Y56419D01*
X135500Y56637D01*
X134327Y56926D01*
X133173Y57285D01*
X132043Y57714D01*
X130941Y58210D01*
X129870Y58772D01*
X128836Y59397D01*
X127841Y60084D01*
X126890Y60829D01*
X125985Y61631D01*
X125131Y62485D01*
X124329Y63390D01*
X123584Y64341D01*
X122897Y65336D01*
X122272Y66370D01*
X121710Y67441D01*
X121214Y68543D01*
X120785Y69673D01*
X120426Y70827D01*
X120137Y72000D01*
X119919Y73189D01*
X119773Y74389D01*
X119700Y75596D01*
X119700Y76804D01*
X119773Y78011D01*
X119919Y79211D01*
X120137Y80400D01*
X120426Y81573D01*
X120785Y82727D01*
X121214Y83857D01*
X121710Y84959D01*
X122272Y86030D01*
X122897Y87064D01*
X123584Y88059D01*
X124329Y89010D01*
X125131Y89915D01*
X125985Y90769D01*
X126890Y91571D01*
X127841Y92316D01*
X128836Y93003D01*
X129870Y93628D01*
X130941Y94190D01*
X132043Y94686D01*
X133173Y95115D01*
X134327Y95474D01*
X135500Y95763D01*
X136689Y95981D01*
X137889Y96127D01*
X139096Y96200D01*
X140304Y96200D01*
X141511Y96127D01*
X142711Y95981D01*
X143900Y95763D01*
X145073Y95474D01*
X146227Y95115D01*
X147357Y94686D01*
X148459Y94190D01*
X149530Y93628D01*
X150564Y93003D01*
X151559Y92316D01*
X152510Y91571D01*
X153415Y90769D01*
X154269Y89915D01*
X155071Y89010D01*
X155816Y88059D01*
X156503Y87064D01*
X157128Y86030D01*
X157690Y84959D01*
X158186Y83857D01*
X158615Y82727D01*
X158974Y81573D01*
X159263Y80400D01*
X159481Y79211D01*
X159627Y78011D01*
X159700Y76804D01*
X159700Y75596D01*
X642300Y75596D02*
X642227Y74389D01*
X642081Y73189D01*
X641863Y72000D01*
X641574Y70827D01*
X641215Y69673D01*
X640786Y68543D01*
X640290Y67441D01*
X639728Y66370D01*
X639103Y65336D01*
X638416Y64341D01*
X637671Y63390D01*
X636869Y62485D01*
X636015Y61631D01*
X635110Y60829D01*
X634159Y60084D01*
X633164Y59397D01*
X632130Y58772D01*
X631059Y58210D01*
X629957Y57714D01*
X628827Y57285D01*
X627673Y56926D01*
X626500Y56637D01*
X625311Y56419D01*
X624111Y56273D01*
X622904Y56200D01*
X621696Y56200D01*
X620489Y56273D01*
X619289Y56419D01*
X618100Y56637D01*
X616927Y56926D01*
X615773Y57285D01*
X614643Y57714D01*
X613541Y58210D01*
X612470Y58772D01*
X611436Y59397D01*
X610441Y60084D01*
X609490Y60829D01*
X608585Y61631D01*
X607731Y62485D01*
X606929Y63390D01*
X606184Y64341D01*
X605497Y65336D01*
X604872Y66370D01*
X604310Y67441D01*
X603814Y68543D01*
X603385Y69673D01*
X603026Y70827D01*
X602737Y72000D01*
X602519Y73189D01*
X602373Y74389D01*
X602300Y75596D01*
X602300Y76804D01*
X602373Y78011D01*
X602519Y79211D01*
X602737Y80400D01*
X603026Y81573D01*
X603385Y82727D01*
X603814Y83857D01*
X604310Y84959D01*
X604872Y86030D01*
X605497Y87064D01*
X606184Y88059D01*
X606929Y89010D01*
X607731Y89915D01*
X608585Y90769D01*
X609490Y91571D01*
X610441Y92316D01*
X611436Y93003D01*
X612470Y93628D01*
X613541Y94190D01*
X614643Y94686D01*
X615773Y95115D01*
X616927Y95474D01*
X618100Y95763D01*
X619289Y95981D01*
X620489Y96127D01*
X621696Y96200D01*
X622904Y96200D01*
X624111Y96127D01*
X625311Y95981D01*
X626500Y95763D01*
X627673Y95474D01*
X628827Y95115D01*
X629957Y94686D01*
X631059Y94190D01*
X632130Y93628D01*
X633164Y93003D01*
X634159Y92316D01*
X635110Y91571D01*
X636015Y90769D01*
X636869Y89915D01*
X637671Y89010D01*
X638416Y88059D01*
X639103Y87064D01*
X639728Y86030D01*
X640290Y84959D01*
X640786Y83857D01*
X641215Y82727D01*
X641574Y81573D01*
X641863Y80400D01*
X642081Y79211D01*
X642227Y78011D01*
X642300Y76804D01*
X642300Y75596D01*
M02*
