G04 EAGLE Gerber RS-274X export*
G75*
%MOMM*%
%FSLAX34Y34*%
%LPD*%
%INSilkscreen Bottom*%
%IPPOS*%
%AMOC8*
5,1,8,0,0,1.08239X$1,22.5*%
G01*
%ADD10C,0.076200*%


D10*
X743246Y470281D02*
X736981Y472369D01*
X743246Y474458D01*
X736981Y479478D02*
X736981Y481566D01*
X736981Y479478D02*
X736983Y479401D01*
X736989Y479325D01*
X736998Y479248D01*
X737011Y479172D01*
X737028Y479097D01*
X737048Y479023D01*
X737073Y478950D01*
X737100Y478879D01*
X737131Y478808D01*
X737166Y478740D01*
X737204Y478673D01*
X737245Y478608D01*
X737289Y478545D01*
X737336Y478485D01*
X737387Y478426D01*
X737440Y478371D01*
X737495Y478318D01*
X737554Y478267D01*
X737614Y478220D01*
X737677Y478176D01*
X737742Y478135D01*
X737809Y478097D01*
X737877Y478062D01*
X737948Y478031D01*
X738019Y478004D01*
X738092Y477979D01*
X738166Y477959D01*
X738241Y477942D01*
X738317Y477929D01*
X738394Y477920D01*
X738470Y477914D01*
X738547Y477912D01*
X738547Y477911D02*
X741680Y477911D01*
X741680Y477912D02*
X741757Y477914D01*
X741833Y477920D01*
X741910Y477929D01*
X741986Y477942D01*
X742061Y477959D01*
X742135Y477979D01*
X742208Y478004D01*
X742279Y478031D01*
X742350Y478062D01*
X742418Y478097D01*
X742485Y478135D01*
X742550Y478176D01*
X742613Y478220D01*
X742673Y478267D01*
X742732Y478318D01*
X742787Y478371D01*
X742840Y478426D01*
X742891Y478485D01*
X742938Y478545D01*
X742982Y478608D01*
X743023Y478673D01*
X743061Y478740D01*
X743096Y478808D01*
X743127Y478879D01*
X743154Y478950D01*
X743179Y479023D01*
X743199Y479097D01*
X743216Y479172D01*
X743229Y479248D01*
X743238Y479325D01*
X743244Y479401D01*
X743246Y479478D01*
X743246Y481566D01*
X736981Y486488D02*
X736981Y488576D01*
X736981Y486488D02*
X736983Y486411D01*
X736989Y486335D01*
X736998Y486258D01*
X737011Y486182D01*
X737028Y486107D01*
X737048Y486033D01*
X737073Y485960D01*
X737100Y485889D01*
X737131Y485818D01*
X737166Y485750D01*
X737204Y485683D01*
X737245Y485618D01*
X737289Y485555D01*
X737336Y485495D01*
X737387Y485436D01*
X737440Y485381D01*
X737495Y485328D01*
X737554Y485277D01*
X737614Y485230D01*
X737677Y485186D01*
X737742Y485145D01*
X737809Y485107D01*
X737877Y485072D01*
X737948Y485041D01*
X738019Y485014D01*
X738092Y484989D01*
X738166Y484969D01*
X738241Y484952D01*
X738317Y484939D01*
X738394Y484930D01*
X738470Y484924D01*
X738547Y484922D01*
X741680Y484922D01*
X741757Y484924D01*
X741833Y484930D01*
X741910Y484939D01*
X741986Y484952D01*
X742061Y484969D01*
X742135Y484989D01*
X742208Y485014D01*
X742279Y485041D01*
X742350Y485072D01*
X742418Y485107D01*
X742485Y485145D01*
X742550Y485186D01*
X742613Y485230D01*
X742673Y485277D01*
X742732Y485328D01*
X742787Y485381D01*
X742840Y485436D01*
X742891Y485495D01*
X742938Y485555D01*
X742982Y485618D01*
X743023Y485683D01*
X743061Y485750D01*
X743096Y485818D01*
X743127Y485889D01*
X743154Y485960D01*
X743179Y486033D01*
X743199Y486107D01*
X743216Y486182D01*
X743229Y486258D01*
X743238Y486335D01*
X743244Y486411D01*
X743246Y486488D01*
X743246Y488576D01*
X736981Y421569D02*
X743246Y419481D01*
X743246Y423658D02*
X736981Y421569D01*
X736981Y428678D02*
X736981Y430766D01*
X736981Y428678D02*
X736983Y428601D01*
X736989Y428525D01*
X736998Y428448D01*
X737011Y428372D01*
X737028Y428297D01*
X737048Y428223D01*
X737073Y428150D01*
X737100Y428079D01*
X737131Y428008D01*
X737166Y427940D01*
X737204Y427873D01*
X737245Y427808D01*
X737289Y427745D01*
X737336Y427685D01*
X737387Y427626D01*
X737440Y427571D01*
X737495Y427518D01*
X737554Y427467D01*
X737614Y427420D01*
X737677Y427376D01*
X737742Y427335D01*
X737809Y427297D01*
X737877Y427262D01*
X737948Y427231D01*
X738019Y427204D01*
X738092Y427179D01*
X738166Y427159D01*
X738241Y427142D01*
X738317Y427129D01*
X738394Y427120D01*
X738470Y427114D01*
X738547Y427112D01*
X738547Y427111D02*
X741680Y427111D01*
X741680Y427112D02*
X741757Y427114D01*
X741833Y427120D01*
X741910Y427129D01*
X741986Y427142D01*
X742061Y427159D01*
X742135Y427179D01*
X742208Y427204D01*
X742279Y427231D01*
X742350Y427262D01*
X742418Y427297D01*
X742485Y427335D01*
X742550Y427376D01*
X742613Y427420D01*
X742673Y427467D01*
X742732Y427518D01*
X742787Y427571D01*
X742840Y427626D01*
X742891Y427685D01*
X742938Y427745D01*
X742982Y427808D01*
X743023Y427873D01*
X743061Y427940D01*
X743096Y428008D01*
X743127Y428079D01*
X743154Y428150D01*
X743179Y428223D01*
X743199Y428297D01*
X743216Y428372D01*
X743229Y428448D01*
X743238Y428525D01*
X743244Y428601D01*
X743246Y428678D01*
X743246Y430766D01*
X736981Y435688D02*
X736981Y437776D01*
X736981Y435688D02*
X736983Y435611D01*
X736989Y435535D01*
X736998Y435458D01*
X737011Y435382D01*
X737028Y435307D01*
X737048Y435233D01*
X737073Y435160D01*
X737100Y435089D01*
X737131Y435018D01*
X737166Y434950D01*
X737204Y434883D01*
X737245Y434818D01*
X737289Y434755D01*
X737336Y434695D01*
X737387Y434636D01*
X737440Y434581D01*
X737495Y434528D01*
X737554Y434477D01*
X737614Y434430D01*
X737677Y434386D01*
X737742Y434345D01*
X737809Y434307D01*
X737877Y434272D01*
X737948Y434241D01*
X738019Y434214D01*
X738092Y434189D01*
X738166Y434169D01*
X738241Y434152D01*
X738317Y434139D01*
X738394Y434130D01*
X738470Y434124D01*
X738547Y434122D01*
X741680Y434122D01*
X741757Y434124D01*
X741833Y434130D01*
X741910Y434139D01*
X741986Y434152D01*
X742061Y434169D01*
X742135Y434189D01*
X742208Y434214D01*
X742279Y434241D01*
X742350Y434272D01*
X742418Y434307D01*
X742485Y434345D01*
X742550Y434386D01*
X742613Y434430D01*
X742673Y434477D01*
X742732Y434528D01*
X742787Y434581D01*
X742840Y434636D01*
X742891Y434695D01*
X742938Y434755D01*
X742982Y434818D01*
X743023Y434883D01*
X743061Y434950D01*
X743096Y435018D01*
X743127Y435089D01*
X743154Y435160D01*
X743179Y435233D01*
X743199Y435307D01*
X743216Y435382D01*
X743229Y435458D01*
X743238Y435535D01*
X743244Y435611D01*
X743246Y435688D01*
X743246Y437776D01*
X742202Y373902D02*
X742202Y372336D01*
X742202Y373902D02*
X736981Y373902D01*
X736981Y370769D01*
X736983Y370680D01*
X736989Y370592D01*
X736998Y370504D01*
X737011Y370416D01*
X737028Y370329D01*
X737048Y370243D01*
X737073Y370158D01*
X737100Y370073D01*
X737132Y369990D01*
X737166Y369909D01*
X737205Y369829D01*
X737246Y369751D01*
X737291Y369674D01*
X737339Y369600D01*
X737390Y369527D01*
X737444Y369457D01*
X737502Y369390D01*
X737562Y369324D01*
X737624Y369262D01*
X737690Y369202D01*
X737757Y369144D01*
X737827Y369090D01*
X737900Y369039D01*
X737974Y368991D01*
X738051Y368946D01*
X738129Y368905D01*
X738209Y368866D01*
X738290Y368832D01*
X738373Y368800D01*
X738458Y368773D01*
X738543Y368748D01*
X738629Y368728D01*
X738716Y368711D01*
X738804Y368698D01*
X738892Y368689D01*
X738980Y368683D01*
X739069Y368681D01*
X744291Y368681D01*
X744382Y368683D01*
X744473Y368689D01*
X744564Y368699D01*
X744654Y368713D01*
X744743Y368730D01*
X744831Y368752D01*
X744919Y368778D01*
X745005Y368807D01*
X745090Y368840D01*
X745173Y368877D01*
X745255Y368917D01*
X745335Y368961D01*
X745413Y369008D01*
X745489Y369059D01*
X745562Y369112D01*
X745633Y369169D01*
X745702Y369230D01*
X745767Y369293D01*
X745830Y369358D01*
X745890Y369427D01*
X745948Y369498D01*
X746001Y369571D01*
X746052Y369647D01*
X746099Y369725D01*
X746143Y369805D01*
X746183Y369887D01*
X746220Y369970D01*
X746253Y370055D01*
X746282Y370141D01*
X746308Y370229D01*
X746330Y370317D01*
X746347Y370406D01*
X746361Y370496D01*
X746371Y370587D01*
X746377Y370678D01*
X746379Y370769D01*
X746379Y373902D01*
X746379Y378435D02*
X736981Y378435D01*
X736981Y383656D02*
X746379Y378435D01*
X746379Y383656D02*
X736981Y383656D01*
X736981Y388188D02*
X746379Y388188D01*
X746379Y390799D01*
X746377Y390899D01*
X746371Y390999D01*
X746362Y391098D01*
X746348Y391198D01*
X746331Y391296D01*
X746310Y391394D01*
X746286Y391491D01*
X746257Y391587D01*
X746225Y391682D01*
X746190Y391775D01*
X746151Y391867D01*
X746108Y391958D01*
X746062Y392046D01*
X746012Y392133D01*
X745960Y392218D01*
X745904Y392301D01*
X745845Y392382D01*
X745782Y392460D01*
X745717Y392536D01*
X745649Y392610D01*
X745579Y392680D01*
X745505Y392748D01*
X745429Y392813D01*
X745351Y392876D01*
X745270Y392935D01*
X745187Y392991D01*
X745102Y393043D01*
X745015Y393093D01*
X744927Y393139D01*
X744836Y393182D01*
X744744Y393221D01*
X744651Y393256D01*
X744556Y393288D01*
X744460Y393317D01*
X744363Y393341D01*
X744265Y393362D01*
X744167Y393379D01*
X744067Y393393D01*
X743968Y393402D01*
X743868Y393408D01*
X743768Y393410D01*
X743768Y393409D02*
X739592Y393409D01*
X739592Y393410D02*
X739492Y393408D01*
X739392Y393402D01*
X739293Y393393D01*
X739193Y393379D01*
X739095Y393362D01*
X738997Y393341D01*
X738900Y393317D01*
X738804Y393288D01*
X738709Y393256D01*
X738616Y393221D01*
X738524Y393182D01*
X738433Y393139D01*
X738345Y393093D01*
X738258Y393043D01*
X738173Y392991D01*
X738090Y392935D01*
X738009Y392876D01*
X737931Y392813D01*
X737855Y392748D01*
X737781Y392680D01*
X737711Y392610D01*
X737643Y392536D01*
X737578Y392460D01*
X737515Y392382D01*
X737456Y392301D01*
X737400Y392218D01*
X737348Y392133D01*
X737298Y392046D01*
X737252Y391958D01*
X737209Y391867D01*
X737170Y391775D01*
X737135Y391682D01*
X737103Y391587D01*
X737074Y391491D01*
X737050Y391394D01*
X737029Y391296D01*
X737012Y391198D01*
X736998Y391098D01*
X736989Y390999D01*
X736983Y390899D01*
X736981Y390799D01*
X736981Y388188D01*
X742202Y323102D02*
X742202Y321536D01*
X742202Y323102D02*
X736981Y323102D01*
X736981Y319969D01*
X736983Y319880D01*
X736989Y319792D01*
X736998Y319704D01*
X737011Y319616D01*
X737028Y319529D01*
X737048Y319443D01*
X737073Y319358D01*
X737100Y319273D01*
X737132Y319190D01*
X737166Y319109D01*
X737205Y319029D01*
X737246Y318951D01*
X737291Y318874D01*
X737339Y318800D01*
X737390Y318727D01*
X737444Y318657D01*
X737502Y318590D01*
X737562Y318524D01*
X737624Y318462D01*
X737690Y318402D01*
X737757Y318344D01*
X737827Y318290D01*
X737900Y318239D01*
X737974Y318191D01*
X738051Y318146D01*
X738129Y318105D01*
X738209Y318066D01*
X738290Y318032D01*
X738373Y318000D01*
X738458Y317973D01*
X738543Y317948D01*
X738629Y317928D01*
X738716Y317911D01*
X738804Y317898D01*
X738892Y317889D01*
X738980Y317883D01*
X739069Y317881D01*
X744291Y317881D01*
X744382Y317883D01*
X744473Y317889D01*
X744564Y317899D01*
X744654Y317913D01*
X744743Y317930D01*
X744831Y317952D01*
X744919Y317978D01*
X745005Y318007D01*
X745090Y318040D01*
X745173Y318077D01*
X745255Y318117D01*
X745335Y318161D01*
X745413Y318208D01*
X745489Y318259D01*
X745562Y318312D01*
X745633Y318369D01*
X745702Y318430D01*
X745767Y318493D01*
X745830Y318558D01*
X745890Y318627D01*
X745948Y318698D01*
X746001Y318771D01*
X746052Y318847D01*
X746099Y318925D01*
X746143Y319005D01*
X746183Y319087D01*
X746220Y319170D01*
X746253Y319255D01*
X746282Y319341D01*
X746308Y319429D01*
X746330Y319517D01*
X746347Y319606D01*
X746361Y319696D01*
X746371Y319787D01*
X746377Y319878D01*
X746379Y319969D01*
X746379Y323102D01*
X746379Y327635D02*
X736981Y327635D01*
X736981Y332856D02*
X746379Y327635D01*
X746379Y332856D02*
X736981Y332856D01*
X736981Y337388D02*
X746379Y337388D01*
X746379Y339999D01*
X746377Y340099D01*
X746371Y340199D01*
X746362Y340298D01*
X746348Y340398D01*
X746331Y340496D01*
X746310Y340594D01*
X746286Y340691D01*
X746257Y340787D01*
X746225Y340882D01*
X746190Y340975D01*
X746151Y341067D01*
X746108Y341158D01*
X746062Y341246D01*
X746012Y341333D01*
X745960Y341418D01*
X745904Y341501D01*
X745845Y341582D01*
X745782Y341660D01*
X745717Y341736D01*
X745649Y341810D01*
X745579Y341880D01*
X745505Y341948D01*
X745429Y342013D01*
X745351Y342076D01*
X745270Y342135D01*
X745187Y342191D01*
X745102Y342243D01*
X745015Y342293D01*
X744927Y342339D01*
X744836Y342382D01*
X744744Y342421D01*
X744651Y342456D01*
X744556Y342488D01*
X744460Y342517D01*
X744363Y342541D01*
X744265Y342562D01*
X744167Y342579D01*
X744067Y342593D01*
X743968Y342602D01*
X743868Y342608D01*
X743768Y342610D01*
X743768Y342609D02*
X739592Y342609D01*
X739592Y342610D02*
X739492Y342608D01*
X739392Y342602D01*
X739293Y342593D01*
X739193Y342579D01*
X739095Y342562D01*
X738997Y342541D01*
X738900Y342517D01*
X738804Y342488D01*
X738709Y342456D01*
X738616Y342421D01*
X738524Y342382D01*
X738433Y342339D01*
X738345Y342293D01*
X738258Y342243D01*
X738173Y342191D01*
X738090Y342135D01*
X738009Y342076D01*
X737931Y342013D01*
X737855Y341948D01*
X737781Y341880D01*
X737711Y341810D01*
X737643Y341736D01*
X737578Y341660D01*
X737515Y341582D01*
X737456Y341501D01*
X737400Y341418D01*
X737348Y341333D01*
X737298Y341246D01*
X737252Y341158D01*
X737209Y341067D01*
X737170Y340975D01*
X737135Y340882D01*
X737103Y340787D01*
X737074Y340691D01*
X737050Y340594D01*
X737029Y340496D01*
X737012Y340398D01*
X736998Y340298D01*
X736989Y340199D01*
X736983Y340099D01*
X736981Y339999D01*
X736981Y337388D01*
M02*
