G04 EAGLE Gerber RS-274X export*
G75*
%MOMM*%
%FSLAX34Y34*%
%LPD*%
%INSoldermask Top*%
%IPPOS*%
%AMOC8*
5,1,8,0,0,1.08239X$1,22.5*%
G01*
%ADD10C,4.127000*%
%ADD11C,1.905000*%
%ADD12R,1.905000X1.905000*%
%ADD13P,1.457113X8X112.500000*%
%ADD14C,1.778000*%
%ADD15R,1.778000X1.778000*%
%ADD16C,1.651000*%

G36*
X533548Y478773D02*
X533548Y478773D01*
X533639Y478772D01*
X534603Y478903D01*
X534651Y478919D01*
X534740Y478938D01*
X535651Y479280D01*
X535694Y479306D01*
X535778Y479345D01*
X536589Y479882D01*
X536625Y479917D01*
X536698Y479973D01*
X537370Y480677D01*
X537398Y480719D01*
X537456Y480790D01*
X537954Y481626D01*
X537955Y481629D01*
X537957Y481631D01*
X537963Y481650D01*
X537972Y481673D01*
X538012Y481755D01*
X538312Y482681D01*
X538319Y482731D01*
X538341Y482820D01*
X538427Y483789D01*
X538423Y483836D01*
X538426Y483911D01*
X538324Y484887D01*
X538310Y484935D01*
X538294Y485025D01*
X537978Y485954D01*
X537954Y485998D01*
X537917Y486083D01*
X537403Y486918D01*
X537369Y486955D01*
X537315Y487030D01*
X536627Y487730D01*
X536586Y487759D01*
X536517Y487819D01*
X535690Y488348D01*
X535644Y488367D01*
X535563Y488411D01*
X534640Y488743D01*
X534590Y488751D01*
X534501Y488776D01*
X533527Y488894D01*
X533477Y488891D01*
X533391Y488895D01*
X532389Y488800D01*
X532340Y488786D01*
X532250Y488770D01*
X531294Y488454D01*
X531249Y488430D01*
X531165Y488395D01*
X530304Y487873D01*
X530266Y487840D01*
X530191Y487787D01*
X529467Y487087D01*
X529438Y487046D01*
X529377Y486977D01*
X528827Y486134D01*
X528807Y486088D01*
X528763Y486007D01*
X528415Y485063D01*
X528406Y485013D01*
X528381Y484925D01*
X528251Y483927D01*
X528253Y483884D01*
X528252Y483758D01*
X528391Y482747D01*
X528407Y482699D01*
X528426Y482609D01*
X528788Y481654D01*
X528814Y481611D01*
X528853Y481527D01*
X529417Y480677D01*
X529452Y480640D01*
X529509Y480568D01*
X530249Y479864D01*
X530291Y479836D01*
X530362Y479778D01*
X531240Y479257D01*
X531287Y479239D01*
X531369Y479198D01*
X532341Y478885D01*
X532391Y478878D01*
X532480Y478857D01*
X533498Y478768D01*
X533548Y478773D01*
G37*
G36*
X571648Y478773D02*
X571648Y478773D01*
X571739Y478772D01*
X572703Y478903D01*
X572751Y478919D01*
X572840Y478938D01*
X573751Y479280D01*
X573794Y479306D01*
X573878Y479345D01*
X574689Y479882D01*
X574725Y479917D01*
X574798Y479973D01*
X575470Y480677D01*
X575498Y480719D01*
X575556Y480790D01*
X576054Y481626D01*
X576055Y481629D01*
X576057Y481631D01*
X576063Y481650D01*
X576072Y481673D01*
X576112Y481755D01*
X576412Y482681D01*
X576419Y482731D01*
X576441Y482820D01*
X576527Y483789D01*
X576523Y483836D01*
X576526Y483911D01*
X576424Y484887D01*
X576410Y484935D01*
X576394Y485025D01*
X576078Y485954D01*
X576054Y485998D01*
X576017Y486083D01*
X575503Y486918D01*
X575469Y486955D01*
X575415Y487030D01*
X574727Y487730D01*
X574686Y487759D01*
X574617Y487819D01*
X573790Y488348D01*
X573744Y488367D01*
X573663Y488411D01*
X572740Y488743D01*
X572690Y488751D01*
X572601Y488776D01*
X571627Y488894D01*
X571577Y488891D01*
X571491Y488895D01*
X570489Y488800D01*
X570440Y488786D01*
X570350Y488770D01*
X569394Y488454D01*
X569349Y488430D01*
X569265Y488395D01*
X568404Y487873D01*
X568366Y487840D01*
X568291Y487787D01*
X567567Y487087D01*
X567538Y487046D01*
X567477Y486977D01*
X566927Y486134D01*
X566907Y486088D01*
X566863Y486007D01*
X566515Y485063D01*
X566506Y485013D01*
X566481Y484925D01*
X566351Y483927D01*
X566353Y483884D01*
X566352Y483758D01*
X566491Y482747D01*
X566507Y482699D01*
X566526Y482609D01*
X566888Y481654D01*
X566914Y481611D01*
X566953Y481527D01*
X567517Y480677D01*
X567552Y480640D01*
X567609Y480568D01*
X568349Y479864D01*
X568391Y479836D01*
X568462Y479778D01*
X569340Y479257D01*
X569387Y479239D01*
X569469Y479198D01*
X570441Y478885D01*
X570491Y478878D01*
X570580Y478857D01*
X571598Y478768D01*
X571648Y478773D01*
G37*
G36*
X533548Y450782D02*
X533548Y450782D01*
X533639Y450781D01*
X534603Y450912D01*
X534651Y450928D01*
X534740Y450947D01*
X535651Y451289D01*
X535694Y451315D01*
X535778Y451354D01*
X536589Y451891D01*
X536625Y451926D01*
X536698Y451982D01*
X537370Y452686D01*
X537398Y452728D01*
X537456Y452799D01*
X537954Y453635D01*
X537955Y453638D01*
X537957Y453640D01*
X537963Y453660D01*
X537972Y453682D01*
X538012Y453764D01*
X538312Y454690D01*
X538319Y454740D01*
X538341Y454829D01*
X538427Y455798D01*
X538423Y455845D01*
X538426Y455920D01*
X538324Y456896D01*
X538310Y456944D01*
X538294Y457034D01*
X537978Y457963D01*
X537954Y458007D01*
X537917Y458092D01*
X537403Y458927D01*
X537369Y458964D01*
X537315Y459039D01*
X536627Y459739D01*
X536586Y459768D01*
X536517Y459828D01*
X535690Y460357D01*
X535644Y460376D01*
X535563Y460420D01*
X534640Y460752D01*
X534590Y460760D01*
X534501Y460785D01*
X533527Y460903D01*
X533477Y460900D01*
X533391Y460904D01*
X532389Y460809D01*
X532340Y460795D01*
X532250Y460779D01*
X531294Y460463D01*
X531249Y460439D01*
X531165Y460404D01*
X530304Y459882D01*
X530266Y459849D01*
X530191Y459796D01*
X529467Y459096D01*
X529438Y459055D01*
X529377Y458986D01*
X528827Y458143D01*
X528807Y458097D01*
X528763Y458016D01*
X528415Y457072D01*
X528406Y457022D01*
X528381Y456934D01*
X528251Y455936D01*
X528253Y455893D01*
X528252Y455767D01*
X528391Y454756D01*
X528407Y454708D01*
X528426Y454618D01*
X528788Y453663D01*
X528814Y453620D01*
X528853Y453536D01*
X529417Y452686D01*
X529452Y452649D01*
X529509Y452577D01*
X530249Y451873D01*
X530291Y451845D01*
X530362Y451787D01*
X531240Y451266D01*
X531287Y451248D01*
X531369Y451207D01*
X532341Y450894D01*
X532391Y450887D01*
X532480Y450866D01*
X533498Y450777D01*
X533548Y450782D01*
G37*
G36*
X571648Y450782D02*
X571648Y450782D01*
X571739Y450781D01*
X572703Y450912D01*
X572751Y450928D01*
X572840Y450947D01*
X573751Y451289D01*
X573794Y451315D01*
X573878Y451354D01*
X574689Y451891D01*
X574725Y451926D01*
X574798Y451982D01*
X575470Y452686D01*
X575498Y452728D01*
X575556Y452799D01*
X576054Y453635D01*
X576055Y453638D01*
X576057Y453640D01*
X576063Y453660D01*
X576072Y453682D01*
X576112Y453764D01*
X576412Y454690D01*
X576419Y454740D01*
X576441Y454829D01*
X576527Y455798D01*
X576523Y455845D01*
X576526Y455920D01*
X576424Y456896D01*
X576410Y456944D01*
X576394Y457034D01*
X576078Y457963D01*
X576054Y458007D01*
X576017Y458092D01*
X575503Y458927D01*
X575469Y458964D01*
X575415Y459039D01*
X574727Y459739D01*
X574686Y459768D01*
X574617Y459828D01*
X573790Y460357D01*
X573744Y460376D01*
X573663Y460420D01*
X572740Y460752D01*
X572690Y460760D01*
X572601Y460785D01*
X571627Y460903D01*
X571577Y460900D01*
X571491Y460904D01*
X570489Y460809D01*
X570440Y460795D01*
X570350Y460779D01*
X569394Y460463D01*
X569349Y460439D01*
X569265Y460404D01*
X568404Y459882D01*
X568366Y459849D01*
X568291Y459796D01*
X567567Y459096D01*
X567538Y459055D01*
X567477Y458986D01*
X566927Y458143D01*
X566907Y458097D01*
X566863Y458016D01*
X566515Y457072D01*
X566506Y457022D01*
X566481Y456934D01*
X566351Y455936D01*
X566353Y455893D01*
X566352Y455767D01*
X566491Y454756D01*
X566507Y454708D01*
X566526Y454618D01*
X566888Y453663D01*
X566914Y453620D01*
X566953Y453536D01*
X567517Y452686D01*
X567552Y452649D01*
X567609Y452577D01*
X568349Y451873D01*
X568391Y451845D01*
X568462Y451787D01*
X569340Y451266D01*
X569387Y451248D01*
X569469Y451207D01*
X570441Y450894D01*
X570491Y450887D01*
X570580Y450866D01*
X571598Y450777D01*
X571648Y450782D01*
G37*
D10*
X50800Y469900D03*
X609600Y266700D03*
X139700Y76200D03*
X622300Y76200D03*
D11*
X165100Y482600D03*
X165100Y431800D03*
X431800Y431800D03*
X381000Y431800D03*
X38100Y139700D03*
X38100Y88900D03*
X38100Y38100D03*
X38100Y190500D03*
X38100Y355600D03*
X38100Y304800D03*
X38100Y254000D03*
X38100Y406400D03*
X723900Y381000D03*
X723900Y431800D03*
X723900Y482600D03*
X723900Y330200D03*
D12*
X673100Y279400D03*
D11*
X673100Y254000D03*
X673100Y228600D03*
D12*
X673100Y76200D03*
D11*
X673100Y50800D03*
X673100Y25400D03*
D12*
X673100Y177800D03*
D11*
X673100Y152400D03*
X673100Y127000D03*
D13*
X330200Y381000D03*
X330200Y457200D03*
D12*
X635000Y381000D03*
D11*
X635000Y355600D03*
X635000Y330200D03*
D14*
X635000Y482400D03*
D15*
X635000Y457400D03*
D16*
X228600Y375920D02*
X228600Y360680D01*
X254000Y360680D02*
X254000Y375920D01*
X279400Y375920D02*
X279400Y360680D01*
D12*
X723900Y76200D03*
D11*
X723900Y50800D03*
X723900Y25400D03*
D12*
X723900Y177800D03*
D11*
X723900Y152400D03*
X723900Y127000D03*
D12*
X723900Y279400D03*
D11*
X723900Y254000D03*
X723900Y228600D03*
M02*
