M48
;GenerationSoftware,Autodesk,EAGLE,9.3.0*%
;CreationDate,2019-03-13T21:15:39Z*%
FMAT,2
ICI,OFF
METRIC,TZ,000.000
T6C0.700
T5C0.813
T4C1.000
T3C1.016
T2C4.000
%
G90
M71
T2
X60960Y26670
X13970Y7620
X62230Y7620
X5080Y46990
T3
X27940Y36830
X57150Y45593
X57150Y48387
X53340Y45593
X53340Y48387
X22860Y36830
X25400Y36830
T4
X72390Y5080
X72390Y7620
X72390Y22860
X72390Y2540
X72390Y17780
X72390Y15240
X72390Y12700
X72390Y27940
X72390Y25400
X63500Y33020
X63500Y35560
X63500Y38100
X67310Y12700
X67310Y15240
X67310Y17780
X67310Y5080
X16510Y48260
X16510Y43180
X43180Y43180
X38100Y43180
X3810Y13970
X3810Y8890
X3810Y3810
X3810Y19050
X3810Y35560
X3810Y30480
X3810Y25400
X3810Y40640
X72390Y38100
X72390Y43180
X72390Y48260
X72390Y33020
X67310Y27940
X67310Y25400
X67310Y22860
X67310Y7620
X67310Y2540
T5
X33020Y45720
X33020Y38100
T6
X63500Y45740
X63500Y48240
M30